<svg xmlns="http://www.w3.org/2000/svg" xmlns:xlink="http://www.w3.org/1999/xlink" viewBox="0 0 199.48 153.04"><defs><style>.cls-1,.cls-2{fill:none;stroke-linecap:round;stroke-miterlimit:10;}.cls-1{stroke:url(#Degradado_sin_nombre_14);}.cls-2{stroke:url(#Degradado_sin_nombre_14-2);}.cls-3{font-size:46.78px;fill:#0d436e;}.cls-3,.cls-4{font-family:RemachineScriptPersonalUse, Remachine Script Personal Use;}.cls-4{font-size:34.65px;fill:#f05244;}.cls-5{fill:url(#Degradado_sin_nombre_62);}.cls-6{fill:url(#Degradado_sin_nombre_60);}.cls-7{font-size:10.7px;}.cls-7,.cls-8{fill:#fff;font-family:GothamRounded-Medium, Gotham Rounded;font-weight:500;}.cls-8{font-size:10.43px;}</style><linearGradient id="Degradado_sin_nombre_14" x1="135.4" y1="118.38" x2="79.46" y2="21.48" gradientUnits="userSpaceOnUse"><stop offset="0" stop-color="#4cc6df"/><stop offset="1" stop-color="#dda5cb"/></linearGradient><linearGradient id="Degradado_sin_nombre_14-2" x1="112.78" y1="131.82" x2="56.84" y2="34.93" xlink:href="#Degradado_sin_nombre_14"/><linearGradient id="Degradado_sin_nombre_62" x1="123.23" y1="88.43" x2="73.03" y2="1.48" gradientUnits="userSpaceOnUse"><stop offset="0" stop-color="#4cc6df" stop-opacity="0"/><stop offset="1" stop-color="#dda5cb"/></linearGradient><linearGradient id="Degradado_sin_nombre_60" x1="118.66" y1="151.8" x2="69.41" y2="66.5" gradientUnits="userSpaceOnUse"><stop offset="0" stop-color="#4cc6df"/><stop offset="1" stop-color="#dda5cb" stop-opacity="0"/></linearGradient></defs><title>tble</title><g id="Layer_2" data-name="Layer 2"><g id="Layer_1-2" data-name="Layer 1"><path class="cls-1" d="M150.71,64.87A55.6,55.6,0,0,0,47.06,50.77"/><path class="cls-2" d="M42.47,90.34a55.61,55.61,0,0,0,102.59,13"/><text class="cls-3" transform="matrix(1, -0.18, 0, 1, 0, 88.64)">The best</text><text class="cls-4" transform="matrix(1, -0.18, 0, 1, 57.27, 105.32)">learning experience</text><path class="cls-5" d="M96.05,21.46a55.07,55.07,0,0,1,54,44.07l21-4.66A76.5,76.5,0,0,0,28.07,41.45l19,10A55,55,0,0,1,96.05,21.46Z"/><path class="cls-6" d="M96.05,131.59A55.07,55.07,0,0,1,42.53,89.45L21.59,94.11a76.49,76.49,0,0,0,141.91,18.5l-19-10A55.05,55.05,0,0,1,96.05,131.59Z"/><text class="cls-7" transform="matrix(0.62, -0.8, 0.79, 0.61, 44.01, 43.08)">A</text><text class="cls-7" transform="translate(48.69 36.99) rotate(-45.83) scale(1.02 1)">P</text><text class="cls-7" transform="translate(53.21 32.27) rotate(-39.6) scale(1.02 1)">R</text><text class="cls-7" transform="matrix(0.85, -0.56, 0.55, 0.84, 58.67, 27.71)">E</text><text class="cls-7" transform="translate(64.09 24.05) rotate(-26.8) scale(1.02 1)">N</text><text class="cls-7" transform="matrix(0.96, -0.34, 0.34, 0.94, 71.06, 20.48)">D</text><text class="cls-7" transform="translate(78.41 17.93) rotate(-14.85) scale(1.02 1)">I</text><text class="cls-7" transform="matrix(1, -0.18, 0.18, 0.98, 81.07, 17.12)">Z</text><text class="cls-7" transform="translate(87.79 15.81) rotate(-3.84) scale(1.02 1)">A</text><text class="cls-7" transform="translate(95.45 15.32) rotate(1.98) scale(1.02 1)">J</text><text class="cls-7" transform="translate(100.83 15.45) rotate(7.37) scale(1.02 1)">E</text><text class="cls-8" transform="translate(92.36 146.25) rotate(0.92) scale(1.02 1)">R</text><text class="cls-8" transform="translate(99.97 146.34) rotate(-5.44) scale(1.02 1)">E</text><text class="cls-8" transform="translate(106.97 145.66) rotate(-11.07) scale(1.02 1)">S</text><text class="cls-8" transform="translate(113.58 144.41) rotate(-17.12) scale(1.02 1)">U</text><text class="cls-8" transform="translate(121.19 142.03) rotate(-23.11) scale(1.02 1)">L</text><text class="cls-8" transform="matrix(0.9, -0.47, 0.46, 0.89, 126.1, 139.99)">T</text><text class="cls-8" transform="translate(131.4 137.3) rotate(-33.05) scale(1.02 1)">A</text><text class="cls-8" transform="translate(138.26 132.84) rotate(-39.82) scale(1.02 1)">D</text><text class="cls-8" transform="matrix(0.69, -0.74, 0.73, 0.68, 144.68, 127.51)">O</text><text class="cls-8" transform="matrix(0.6, -0.82, 0.8, 0.6, 150.74, 120.93)">S</text></g></g></svg>