<svg width="78" height="112" viewBox="0 0 78 112" fill="none" xmlns="http://www.w3.org/2000/svg">
<path d="M0 98.7984H5.95738V98.0403H0.858274V89.9545H0V98.7984ZM13.6818 96.4232L14.742 98.7984H15.6508L11.6119 89.8535H10.7536L6.71467 98.7984H7.57295L8.63318 96.4232H13.6818ZM8.98656 95.6651L11.1575 90.7631L13.3284 95.6651H8.98656ZM24.5868 98.7984H25.2937V89.904H24.4354V97.2823L18.6295 89.904H17.7712V98.7984H18.6295V91.2179L24.5868 98.7984ZM28.4743 94.4017C28.4743 96.9285 30.1908 98.95 32.9676 98.95C34.4317 98.95 35.6938 98.3436 36.5016 97.636V94.149H32.9171V94.9071H35.6434V97.2823H35.5928C34.9365 97.7877 33.9773 98.1919 32.9171 98.1919C31.8064 98.1919 30.8976 97.7877 30.2413 97.0801C29.585 96.3726 29.2316 95.4125 29.2316 94.3512V94.3007C29.2316 93.2899 29.585 92.3297 30.2413 91.6222C30.8472 90.9147 31.7559 90.5104 32.7656 90.5104C34.0278 90.5104 34.8356 90.9147 35.4919 91.5212L36.0472 90.8642C35.189 90.1567 34.2802 89.7524 32.8161 89.7524C30.2413 89.7524 28.4743 91.9254 28.4743 94.4017ZM39.8842 95.1092C39.8842 97.636 41.3483 98.95 43.5697 98.95C45.7911 98.95 47.2552 97.636 47.2552 95.0082V89.904H46.3969V95.0587C46.3969 96.0694 46.1445 96.8275 45.6396 97.3328C45.1348 97.8382 44.428 98.0909 43.6202 98.0909C42.7619 98.0909 42.0046 97.7877 41.5502 97.2823C41.0454 96.7264 40.7929 95.9683 40.7929 94.9576V89.9545H39.9347V95.1092H39.8842ZM55.7369 96.4232L56.7971 98.7984H57.7059L53.6669 89.8535H52.8087L48.7698 98.7984H49.628L50.6883 96.4232H55.7369ZM51.0417 95.6651L53.2126 90.7631L55.3835 95.6651H51.0417ZM59.5739 94.4017C59.5739 96.9285 61.2904 98.95 64.0671 98.95C65.5312 98.95 66.7934 98.3436 67.6012 97.636V94.149H64.0166V94.9071H66.7429V97.2823H66.6924C66.0361 97.7877 65.0769 98.1919 64.0166 98.1919C62.9059 98.1919 61.9972 97.7877 61.3409 97.0801C60.6846 96.3726 60.3311 95.4125 60.3311 94.3512V94.3007C60.3311 93.2899 60.6846 92.3297 61.3409 91.6222C61.9467 90.9147 62.8555 90.5104 63.8652 90.5104C65.1273 90.5104 65.9351 90.9147 66.5915 91.5212L67.1468 90.8642C66.2885 90.1567 65.3798 89.7524 63.9157 89.7524C61.3409 89.7524 59.5739 91.9254 59.5739 94.4017ZM71.1857 98.7984H77.5975V98.0403H72.044V94.7049H76.9916V93.9469H72.044V90.7126H77.547V89.9545H71.1857V98.7984ZM6.76518 84.3955L7.67393 86.5686H9.18852L5.30106 77.6237H3.93793L0.0505048 86.5686H1.51459L2.42334 84.3955H6.76518ZM2.87773 83.1827L4.54377 79.2914L6.20981 83.1827H2.87773ZM26.1014 86.6191H32.7151V85.3557H27.5655V82.7784H32.1093V81.515H27.5655V78.9882H32.6646V77.7248H26.1014V86.6191ZM40.8434 83.1827L40.9444 83.1321C42.2066 82.7784 43.0143 81.9193 43.0648 80.4537V80.4032C43.0648 79.6451 42.8124 78.9882 42.358 78.5333C41.8027 77.9774 40.9444 77.6742 39.7832 77.6742H35.8453V86.5686H37.2589V83.4354H39.2783H39.3288L41.5502 86.5686H43.2163L40.8434 83.1827ZM37.2084 82.172V78.9882H39.5813C40.1871 78.9882 40.6415 79.1398 40.9949 79.3925C41.3483 79.6451 41.4998 80.0494 41.4998 80.5548V80.6053C41.4998 81.0602 41.2978 81.4644 40.9444 81.7677C40.591 82.0203 40.1366 82.172 39.5308 82.2225H37.2084V82.172ZM45.5891 86.6191H47.0028V77.7248H45.5891V86.6191ZM49.5776 82.172C49.5776 84.7493 51.4961 86.7202 54.0709 86.7202C55.6864 86.7202 56.6961 86.1138 57.6049 85.2041L56.6961 84.2945C55.9388 85.002 55.232 85.4568 54.1213 85.4568C53.2126 85.4568 52.4553 85.1031 51.8999 84.4966C51.3446 83.8902 51.0417 83.0816 51.0417 82.172V82.1214C51.0417 81.2118 51.3446 80.4032 51.8999 79.7967C52.4553 79.1903 53.2126 78.8366 54.1213 78.8366C55.1311 78.8366 55.9388 79.2914 56.6456 79.9484L57.5544 78.8871C56.6961 78.0785 55.7369 77.5732 54.1213 77.5732C51.496 77.5732 49.5776 79.5946 49.5776 82.172ZM65.4808 84.3955L66.3895 86.5686H67.9041L64.0166 77.6237H62.6535L58.7661 86.5686H60.2302L61.1389 84.3955H65.4808ZM61.5933 83.1827L63.2593 79.2914L64.9254 83.1827H61.5933ZM76.4363 86.6191H77.6479V77.7248H76.2343V84.1429L71.2867 77.7248H69.9235V86.6191H71.3372V80.0494L76.4363 86.6191ZM24.2334 86.6191H22.6684L19.8916 79.5441L17.1149 86.6191H16.8624L14.0857 79.5441L11.3089 86.6191H9.74385L13.4294 77.6742H14.742L16.9634 83.2837L19.1848 77.6742H20.4975L24.2334 86.6191ZM11.9653 108.855L12.874 111.028H14.3886L10.5011 102.083H9.13804L5.25059 111.028H6.71467L7.62345 108.855H11.9653ZM8.07781 107.592L9.74385 103.7L11.4099 107.592H8.07781ZM31.352 108.855L32.2608 111.028H33.7754L29.8879 102.083H28.5248L24.6373 111.028H26.1014L27.0102 108.855H31.352ZM27.4646 107.592L29.1306 103.7L30.7967 107.592H27.4646ZM39.0259 102.134H35.7443V111.028H39.0259C41.8027 111.028 43.7212 109.108 43.7716 106.581V106.53C43.7212 104.054 41.8027 102.134 39.0259 102.134ZM42.257 106.631C42.257 107.541 41.9541 108.299 41.3988 108.855C40.8434 109.411 40.0357 109.714 39.0764 109.714H37.2084V103.397H39.0764C40.0357 103.397 40.8434 103.751 41.3988 104.307C41.9036 104.913 42.257 105.671 42.257 106.631ZM72.7003 107.491V110.978H74.1644V107.44L77.6984 102.083H76.0829L73.5081 106.177L70.9333 102.083H69.2672L72.7003 107.491ZM46.3969 111.028H53.0106V109.765H47.861V107.187H52.4048V105.924H47.861V103.397H52.9602V102.134H46.3969V111.028ZM61.9467 111.028H62.1991L62.603 109.967L64.9759 103.953L67.7526 111.028H69.3177L65.6322 102.083H64.3196L62.0982 107.693L59.8768 102.083H58.5641L54.8786 111.028H56.4437L59.2204 103.953L61.9467 111.028ZM15.4993 106.631C15.4993 109.209 17.4178 111.18 19.9926 111.18C21.6082 111.18 22.6179 110.573 23.5266 109.664L22.6179 108.754C21.8606 109.462 21.1538 109.916 20.0431 109.916C19.1343 109.916 18.377 109.563 17.8217 108.956C17.2663 108.35 16.9634 107.541 16.9634 106.631V106.581C16.9634 105.671 17.2663 104.863 17.8217 104.256C18.377 103.65 19.1343 103.296 20.0431 103.296C21.0528 103.296 21.8606 103.751 22.5674 104.408L23.4761 103.347C22.6179 102.538 21.6586 102.033 20.0431 102.033C17.3673 101.982 15.4993 104.054 15.4993 106.631Z" fill="white"/>
<path d="M22.3655 5.30628C22.9713 3.53752 24.6374 2.27411 26.6064 2.27411C28.5753 2.27411 30.2414 3.53752 30.8472 5.30628L37.8648 26.8853L33.523 40.1763C33.422 40.429 33.2201 40.6311 32.9172 40.6311C27.8685 40.4795 22.9714 40.1258 18.1752 39.6204C18.1247 39.6204 18.1247 39.6204 18.0742 39.6204C17.5693 39.6204 17.115 40.0247 17.115 40.5806C17.115 40.8838 17.2159 41.1365 17.4179 41.2881C21.1034 44.4213 25.0413 47.4535 29.1307 50.4351C29.4336 50.6878 29.686 51.0416 29.686 51.4459C29.686 51.648 29.6356 51.7996 29.5851 51.9512C27.1112 57.4091 21.6082 61.2499 15.1965 61.2499H5.04871C4.69531 61.2499 4.44287 60.9467 4.44287 60.6435C4.44287 60.5929 4.44289 60.4919 4.49338 60.4413L22.3655 5.30628Z" fill="white"/>
<path d="M77.5974 72.469L55.4844 4.29558C54.6262 1.8193 52.3038 0 49.5271 0H30.1403C29.9888 0 29.8374 0.151612 29.8374 0.303221C29.8374 0.404293 29.8879 0.505365 29.9889 0.555902C31.4025 1.31395 32.4627 2.57735 33.018 4.14398L44.7309 40.1763C44.8318 40.429 45.0338 40.6311 45.3367 40.6311C50.3853 40.4795 55.2825 40.1258 60.0787 39.6204C60.1292 39.6204 60.1292 39.6204 60.1797 39.6204C60.6845 39.6204 61.1389 40.0247 61.1389 40.5806C61.1389 40.8838 61.0379 41.1365 60.836 41.2881C57.0495 44.4719 53.0611 47.6051 48.8707 50.6373C48.6183 50.7889 48.4668 51.0921 48.4668 51.3954C48.4668 51.4964 48.4669 51.5975 48.5173 51.648L49.9814 56.1963C53.1621 66.1014 62.4516 73.227 73.4071 73.227H77.1431C77.4965 73.227 77.7489 72.9238 77.7489 72.6206C77.6479 72.57 77.6479 72.5195 77.5974 72.469Z" fill="white"/>
</svg>
