<svg xmlns="http://www.w3.org/2000/svg" viewBox="0 0 374.17 374.17"><defs><style>.cls-1{fill:#003764;}</style></defs><title>ALA_icon</title><g id="Layer_2" data-name="Layer 2"><g id="Layer_1-2" data-name="Layer 1"><path class="cls-1" d="M91.65,27.06a22.81,22.81,0,0,1,43.27,0h0l35.83,110.27-22.07,67.92h0a3.17,3.17,0,0,1-3.07,2.25c-25.69-.77-50.85-2.47-75.32-5h0a3.1,3.1,0,0,0-.43,0,4.84,4.84,0,0,0-3.21,8.46h0q28.35,23.9,59.8,46.65h0a6.44,6.44,0,0,1,2.72,5.27,6.36,6.36,0,0,1-.58,2.68h0a80.67,80.67,0,0,1-73.48,47.34H3.22A3.22,3.22,0,0,1,0,309.65a3.37,3.37,0,0,1,.18-1.06L91.65,27.06Z"/><path class="cls-1" d="M374,370,261,22A32.29,32.29,0,0,0,230.37,0H131.23a1.61,1.61,0,0,0-1.61,1.61A1.63,1.63,0,0,0,130.46,3h0A32.35,32.35,0,0,1,145.83,21.3h0l59.77,184h0a3.17,3.17,0,0,0,3.08,2.24q38.53-1.14,75.32-5h0a3,3,0,0,1,.42,0,4.84,4.84,0,0,1,3.21,8.46h0q-29,24.42-61.18,47.64a4.83,4.83,0,0,0-2,3.93,4.92,4.92,0,0,0,.2,1.39h0l7.56,23.25h0a125.84,125.84,0,0,0,119.71,87h19a3.23,3.23,0,0,0,3.22-3.23A3.12,3.12,0,0,0,374,370Z"/></g></g></svg>