<svg xmlns="http://www.w3.org/2000/svg" viewBox="0 0 464.88 306.92"><defs><style>.cls-1{fill:#003a65;}.cls-2{fill:#6bb1e2;}</style></defs><title>horiz</title><g id="Layer_2" data-name="Layer 2"><g id="Dise_o" data-name="Dise–o"><path class="cls-1" d="M0,243.78H30.38v-4H4.4V198.43H0v45.35Zm69.89-12.21,5.41,12.21H80L59.33,198.1H55L34.31,243.78h4.45l5.47-12.21Zm-24-3.86,11.18-25,11.12,25Zm79.74,16.07h3.55V198.43h-4.26V236.2L95.25,198.43H91v45.35h4.26V205.15l30.41,38.63Zm19.85-22.55c0,13,8.78,23.33,23.07,23.34h0a27.64,27.64,0,0,0,18.13-6.83h0V219.93H168.45v3.87H182.5v12.07l-.15.12a22.1,22.1,0,0,1-13.58,4.71h0a18.06,18.06,0,0,1-13.64-5.59h0a20.31,20.31,0,0,1-5-14h0V221a20.23,20.23,0,0,1,5-13.59h0a17.13,17.13,0,0,1,12.9-5.74h0a20,20,0,0,1,14,5.1h0l2.83-3.33c-4.48-3.68-9.11-5.77-16.64-5.77h0c-13.61,0-22.73,11-22.74,23.46h0v.13Zm58.3,3.63c0,12.89,7.56,19.61,18.79,19.64h0c11.36,0,18.81-6.74,18.85-20h0v-26H237v26.43c0,5.12-1.37,9-3.88,11.69h0c-2.5,2.64-6.11,4-10.44,3.95h0c-4.5,0-8.16-1.43-10.67-4.18h0c-2.51-2.74-3.85-6.74-3.85-11.79h0v-26.1h-4.4v26.43Zm81.11,6.71,5.41,12.21H295L274.36,198.1H270l-20.68,45.68h4.45l5.47-12.21Zm-24-3.86,11.19-25,11.11,25Zm43.47-6.48c0,13,8.78,23.33,23.07,23.34h0a27.64,27.64,0,0,0,18.13-6.83h0V219.93H327.35v3.87h14v12.07l-.14.12a22.16,22.16,0,0,1-13.58,4.71h0A18.06,18.06,0,0,1,314,235.11h0a20.31,20.31,0,0,1-5-14h0V221a20.22,20.22,0,0,1,5-13.59h0a17.15,17.15,0,0,1,12.91-5.74h0a20,20,0,0,1,14,5.1h0l2.82-3.33c-4.47-3.68-9.1-5.77-16.63-5.77h0c-13.61,0-22.73,11-22.74,23.46h0v.13ZM364,243.78h32.89v-3.93h-28.5v-17h25.2v-3.93h-25.2V202.36h28.17v-3.93H364v45.35ZM34.53,170.26l4.69,11.14h7.69L27,135.72H20L0,181.4H7.43l4.75-11.14Zm-19.72-6.39L23.32,144l8.59,19.87Zm118.71,17.54h33.75V175H140.83v-13.2H164v-6.45H140.83v-12.8h26.11v-6.45H133.52v45.35Zm75.14-17.3.54-.16c6.35-1.83,10.71-6.18,10.73-13.59v-.13a13.57,13.57,0,0,0-3.71-9.67c-2.87-2.81-7.31-4.5-13-4.5H183v45.35h7.31V165.32h10.76l11.34,16.09H221Zm-18.34-5.17v-16.3h12.2a11.6,11.6,0,0,1,7.28,2.06,7.26,7.26,0,0,1,2.68,6v.13a7.36,7.36,0,0,1-2.72,5.92,11.15,11.15,0,0,1-7.17,2.2Zm42.82,22.47h7.31V136.06h-7.31v45.35Zm20.4-22.58c0,13,9.84,23.34,23.07,23.34h0c8.38,0,13.46-3,18.17-7.77h0l-4.66-4.72c-3.87,3.56-7.6,5.85-13.24,5.84h0a15,15,0,0,1-11.23-5h0a17.59,17.59,0,0,1-4.4-11.87h0v-.13a17.35,17.35,0,0,1,4.4-11.8h0a15.06,15.06,0,0,1,11.23-4.89h0c5.25,0,9.25,2.26,12.89,5.57h0l4.68-5.4c-4.31-4-9.27-6.81-17.51-6.82h0c-13.76,0-23.39,10.55-23.4,23.47h0v.13Zm81,11.44,4.68,11.14H347l-20-45.68h-7l-19.95,45.68h7.43l4.75-11.14Zm-19.73-6.39L323.37,144,332,163.88Zm75.81,17.53h6.19V136.06h-7.18v32.68l-25.32-32.68h-6.92v45.35h7.18v-33.6l26.05,33.6ZM124,181.4h-7.9L102,145.23,87.78,181.4H86.57L72.45,145.23,58.27,181.4h-8.1L69,135.72h6.59l11.47,28.64,11.46-28.64h6.58ZM61.12,295l4.68,11.14h7.7l-20-45.68h-7l-20,45.68H34L38.76,295ZM41.39,288.6l8.52-19.87,8.58,19.87ZM160.27,295,165,306.13h7.69l-20-45.69h-7l-20,45.69h7.43L137.91,295Zm-19.73-6.39,8.51-19.87,8.59,19.87Zm58.94-27.83H182.67v45.36h16.81c14.32,0,24.12-9.9,24.13-22.68v-.13C223.6,270.55,213.8,260.79,199.48,260.77Zm16.43,22.81a15.81,15.81,0,0,1-4.5,11.46,16.58,16.58,0,0,1-11.92,4.5H190V267.36h9.5a16.47,16.47,0,0,1,11.93,4.58,16,16,0,0,1,4.5,11.51Zm155.58,4.63v17.92h7.38V288l18-27.24h-8.33l-13.28,20.79L362.1,260.77h-8.6l18,27.44ZM237.24,306.13H271v-6.45H244.55v-13.2h23.14V280H244.55v-12.8h26.11v-6.46H237.24v45.36Zm79.51,0H318l2.14-5.44L332.14,270l14.12,36.17h7.89L335.3,260.45h-6.59l-11.46,28.64-11.47-28.64H299.2l-18.86,45.68h8.1L302.63,270l14.12,36.17ZM79.24,283.59c0,13,9.84,23.33,23.08,23.33h0c8.37,0,13.46-3,18.16-7.77h0l-4.66-4.72c-3.87,3.56-7.59,5.85-13.24,5.84h0a15,15,0,0,1-11.22-4.95h0A17.55,17.55,0,0,1,87,283.45h0v-.13a17.31,17.31,0,0,1,4.41-11.8h0a15,15,0,0,1,11.22-4.89h0c5.25,0,9.25,2.26,12.89,5.57h0l4.69-5.4c-4.31-4-9.28-6.81-17.51-6.82h0c-13.76,0-23.39,10.55-23.41,23.47h0v.14Z"/><path class="cls-2" d="M370.71,9a7.6,7.6,0,0,1,14.42,0h0l11.94,36.76-7.36,22.64h0a1,1,0,0,1-1,.75c-8.56-.26-16.95-.82-25.11-1.68h-.14a1.61,1.61,0,0,0-1.61,1.61,1.63,1.63,0,0,0,.54,1.21h0q9.45,8,19.93,15.55h0a2.14,2.14,0,0,1,.9,1.75,2.23,2.23,0,0,1-.19.9h0a26.87,26.87,0,0,1-24.49,15.78H341.23a1.07,1.07,0,0,1-1.07-1.07,1,1,0,0,1,.06-.36L370.71,9Z"/><path class="cls-2" d="M464.84,123.32l-37.7-116A10.74,10.74,0,0,0,417,0H383.9a.54.54,0,0,0-.53.54.53.53,0,0,0,.28.47h0a10.77,10.77,0,0,1,5.13,6.09h0l19.92,61.32h0a1.05,1.05,0,0,0,1,.75c8.56-.25,16.95-.82,25.11-1.68H435a1.61,1.61,0,0,1,1.61,1.61,1.63,1.63,0,0,1-.54,1.21h0q-9.66,8.14-20.39,15.88A1.6,1.6,0,0,0,415,87.5a1.39,1.39,0,0,0,.07.46h0l2.51,7.75h0a42,42,0,0,0,39.91,29h6.34a1.07,1.07,0,0,0,1.07-1.07A1.19,1.19,0,0,0,464.84,123.32Z"/></g></g></svg>