<svg xmlns="http://www.w3.org/2000/svg" viewBox="0 0 680.31 56.69"><defs><style>.cls-1{fill:#7ab2e1;}.cls-2{fill:#00457c;}</style></defs><title>Asset 3</title><g id="Layer_2" data-name="Layer 2"><g id="Dise_o" data-name="Dise–o"><path class="cls-1" d="M13.89,4.1a3.45,3.45,0,0,1,6.55,0h0l5.43,16.71L22.53,31.1h0a.47.47,0,0,1-.47.34q-5.83-.18-11.41-.76h-.06a.73.73,0,0,0-.74.73.75.75,0,0,0,.25.55h0C13,34.37,16,36.74,19.16,39h0a1,1,0,0,1,.41.79,1.07,1.07,0,0,1-.08.41h0A12.23,12.23,0,0,1,8.35,47.4H.49A.48.48,0,0,1,0,46.92a.51.51,0,0,1,0-.17L13.89,4.1Z"/><path class="cls-1" d="M56.67,56.05,39.54,3.33A4.88,4.88,0,0,0,34.91,0h-15a.25.25,0,0,0-.24.25.23.23,0,0,0,.13.21h0A4.92,4.92,0,0,1,22.1,3.23h0l9,27.87h0a.47.47,0,0,0,.47.34q5.83-.18,11.41-.76h.06a.73.73,0,0,1,.74.73.75.75,0,0,1-.25.55h0q-4.39,3.7-9.27,7.22a.73.73,0,0,0-.3.59A.66.66,0,0,0,34,40h0l1.14,3.53h0A19.08,19.08,0,0,0,53.32,56.69H56.2a.49.49,0,0,0,.49-.49A.77.77,0,0,0,56.67,56.05Z"/><path class="cls-2" d="M512.44,39.78l2.34,5.57h3.85l-10-22.84h-3.5l-10,22.84h3.72l2.37-5.57Zm-9.86-3.19,4.25-9.94,4.3,9.94ZM562,39.78l2.34,5.57h3.84l-10-22.84h-3.49l-10,22.84h3.71l2.38-5.57Zm-9.87-3.19,4.26-9.94,4.29,9.94Zm29.47-13.92h-8.4V45.35h8.4c7.16,0,12.06-5,12.07-11.34V34C593.68,27.56,588.78,22.68,581.62,22.67Zm8.21,11.41a7.83,7.83,0,0,1-2.24,5.72,8.31,8.31,0,0,1-6,2.26h-4.76V26h4.75a8.25,8.25,0,0,1,6,2.28A8,8,0,0,1,589.83,34Zm77.8,2.31v9h3.69V36.29l9-13.62h-4.17l-6.64,10.4-6.57-10.4h-4.3l9,13.72Zm-67.13,9h16.88V42.12H604.16V35.53h11.57V32.3H604.16V25.9h13.05V22.67H600.5V45.35Zm39.75,0h.61l1.07-2.72,6-15.36L655,45.35h4l-9.43-22.84h-3.29l-5.73,14.32-5.74-14.32h-3.29l-9.43,22.84h4.05l7.09-18.08,7.06,18.08ZM521.5,34.08A11.42,11.42,0,0,0,533,45.75h0a11.65,11.65,0,0,0,9.08-3.89h0l-2.33-2.36c-1.93,1.78-3.79,2.92-6.62,2.92h0A7.51,7.51,0,0,1,527.56,40h0a8.78,8.78,0,0,1-2.2-5.94h0V34a8.67,8.67,0,0,1,2.2-5.91h0a7.56,7.56,0,0,1,5.61-2.44h0a9.3,9.3,0,0,1,6.45,2.78h0l2.34-2.7a11.79,11.79,0,0,0-8.75-3.4h0A11.48,11.48,0,0,0,521.5,34h0v.07ZM85.29,39.78l2.34,5.57h3.85L81.5,22.5H78L68,45.35h3.72l2.37-5.57Zm-9.86-3.2,4.26-9.93L84,36.58Zm59.35,8.77h16.88V42.12H138.44V35.53H150V32.3H138.44V25.9h13.05V22.67H134.78V45.35Zm37.57-8.65.28-.08c3.17-.91,5.35-3.09,5.36-6.79v-.07a6.77,6.77,0,0,0-1.86-4.84,9.09,9.09,0,0,0-6.51-2.25H159.53V45.35h3.65v-8h5.38l5.68,8h4.28Zm-9.17-2.59V26h6.11a5.8,5.8,0,0,1,3.63,1,3.67,3.67,0,0,1,1.35,3v.07a3.71,3.71,0,0,1-1.36,3,5.67,5.67,0,0,1-3.59,1.09ZM184.6,45.35h3.65V22.67H184.6V45.35Zm10.19-11.29a11.41,11.41,0,0,0,11.54,11.67h0a11.62,11.62,0,0,0,9.08-3.89h0l-2.33-2.36c-1.93,1.79-3.79,2.93-6.62,2.93h0a7.47,7.47,0,0,1-5.61-2.48h0a8.78,8.78,0,0,1-2.2-5.93h0v-.07a8.64,8.64,0,0,1,2.2-5.9h0a7.52,7.52,0,0,1,5.61-2.44h0a9.26,9.26,0,0,1,6.45,2.78h0l2.34-2.7a11.8,11.8,0,0,0-8.76-3.41h0A11.49,11.49,0,0,0,194.79,34h0v.06Zm40.52,5.72,2.34,5.57h3.85l-10-22.84H228l-10,22.84h3.71l2.38-5.57Zm-9.86-3.19,4.26-9.94L234,36.59Zm37.9,8.76h3.1V22.67h-3.59V39L250.2,22.67h-3.46V45.35h3.59V28.55l13,16.8ZM130,45.35h-3.94L119,27.26l-7.1,18.09h-.6l-7.06-18.09L97.16,45.35h-4l9.43-22.85h3.29l5.73,14.33,5.73-14.33h3.3Zm154.16,0h15.19v-2h-13V22.68h-2.2V45.35Zm34.94-6.1,2.71,6.1h2.35L313.83,22.51h-2.17L301.32,45.35h2.23l2.73-6.1Zm-12-1.93,5.59-12.48,5.56,12.48Zm39.87,8h1.78V22.68h-2.13V41.56L331.79,22.68h-2.13V45.35h2.13V26L347,45.35Zm9.93-11.27c0,6.5,4.39,11.66,11.53,11.67h0a13.73,13.73,0,0,0,9.06-3.42h0v-8.9h-9.12v1.93h7v6l-.08.06a11.1,11.1,0,0,1-6.79,2.36h0a9.06,9.06,0,0,1-6.82-2.8h0a10.19,10.19,0,0,1-2.52-7h0V34a10.15,10.15,0,0,1,2.53-6.8h0a8.57,8.57,0,0,1,6.45-2.87h0a10,10,0,0,1,7,2.55h0l1.42-1.66a12,12,0,0,0-8.32-2.89h0c-6.81,0-11.37,5.5-11.37,11.73h0v.07Zm29.15,1.82c0,6.44,3.77,9.8,9.39,9.81h0c5.68,0,9.41-3.37,9.43-10h0v-13h-2.2V35.9a8.27,8.27,0,0,1-1.94,5.84h0a7,7,0,0,1-5.22,2h0a7,7,0,0,1-5.34-2.09h0a8.54,8.54,0,0,1-1.92-5.9h0v-13h-2.2V35.9Zm40.55,3.35,2.71,6.1h2.35L421.35,22.51h-2.18L408.83,45.35h2.23l2.73-6.1Zm-12-1.93,5.6-12.48,5.55,12.48Zm21.74-3.24c0,6.5,4.39,11.66,11.53,11.67h0A13.77,13.77,0,0,0,457,42.33h0v-8.9h-9.12v1.93h7v6l-.07.06A11.1,11.1,0,0,1,448,43.82h0a9.06,9.06,0,0,1-6.82-2.8h0a10.19,10.19,0,0,1-2.52-7h0V34a10.14,10.14,0,0,1,2.52-6.8h0a8.59,8.59,0,0,1,6.46-2.87h0a10,10,0,0,1,7,2.55h0l1.41-1.66a11.93,11.93,0,0,0-8.31-2.89h0c-6.81,0-11.37,5.5-11.37,11.73h0v.07Zm29.78,11.27h16.44v-2H468.35V34.9H481v-2h-12.6V24.65h14.08v-2H466.15V45.35Z"/></g></g></svg>