<svg xmlns="http://www.w3.org/2000/svg" viewBox="0 0 75.37 107.82"><defs><style>.cls-1{fill:#fff;}</style></defs><title>Asset 13</title><g id="Layer_2" data-name="Layer 2"><g id="Layer_1-2" data-name="Layer 1"><path class="cls-1" d="M0,95.83H5.77v-.76H.83V87.21H0v8.62Zm13.27-2.32,1,2.32h.89l-3.92-8.68h-.83L6.52,95.83h.84l1-2.32Zm-4.55-.74L10.84,88,13,92.77Zm15.14,3.06h.68V87.21h-.81v7.18l-5.64-7.18h-.81v8.62h.81V88.49l5.77,7.34Zm3.77-4.29A4.23,4.23,0,0,0,32,96h0a5.26,5.26,0,0,0,3.45-1.3h0V91.3H32V92h2.67v2.29l0,0a4.22,4.22,0,0,1-2.58.89h0a3.43,3.43,0,0,1-2.59-1.06h0a3.89,3.89,0,0,1-.95-2.66h0v0a3.86,3.86,0,0,1,.95-2.58h0a3.27,3.27,0,0,1,2.45-1.09h0a3.77,3.77,0,0,1,2.66,1h0l.54-.63A4.52,4.52,0,0,0,32,87.06h0a4.33,4.33,0,0,0-4.32,4.46h0v0Zm11.08.69c0,2.45,1.43,3.73,3.56,3.73h0c2.16,0,3.58-1.28,3.58-3.8h0v-5H45v5a3.11,3.11,0,0,1-.74,2.22h0a2.63,2.63,0,0,1-2,.75h0a2.65,2.65,0,0,1-2-.79h0a3.26,3.26,0,0,1-.73-2.24h0v-5h-.83v5Zm15.4,1.28,1,2.32H56l-3.92-8.68h-.83l-3.93,8.68h.85l1-2.32Zm-4.55-.74L51.68,88l2.11,4.73Zm8.25-1.23A4.23,4.23,0,0,0,62.19,96h0a5.26,5.26,0,0,0,3.44-1.3h0V91.3H62.17V92h2.67v2.29l0,0a4.22,4.22,0,0,1-2.58.89h0a3.43,3.43,0,0,1-2.59-1.06h0a3.85,3.85,0,0,1-1-2.66h0v0a3.87,3.87,0,0,1,1-2.58h0a3.25,3.25,0,0,1,2.45-1.09h0a3.8,3.8,0,0,1,2.66,1h0l.54-.63a4.52,4.52,0,0,0-3.16-1.1h0a4.32,4.32,0,0,0-4.32,4.46h0v0Zm11.31,4.29h6.25v-.75H70V91.86h4.78v-.75H70V88h5.35v-.75H69.12v8.62Zm-62.56-14L7.45,84H8.91L5.12,75.3H3.79L0,84H1.41l.9-2.12ZM2.81,80.65l1.62-3.77,1.63,3.77ZM25.36,84h6.41V82.76h-5V80.25h4.39V79H26.75V76.59H31.7V75.37H25.36V84ZM39.63,80.7l.1,0a2.57,2.57,0,0,0,2-2.59v0a2.57,2.57,0,0,0-.71-1.84,3.44,3.44,0,0,0-2.47-.85H34.76V84h1.39v-3h2l2.15,3H42Zm-3.48-1V76.62h2.31a2.23,2.23,0,0,1,1.39.39,1.35,1.35,0,0,1,.5,1.14v0a1.41,1.41,0,0,1-.51,1.13,2.12,2.12,0,0,1-1.36.41ZM44.28,84h1.39V75.37H44.28V84Zm3.87-4.29a4.34,4.34,0,0,0,4.38,4.44h0A4.45,4.45,0,0,0,56,82.65h0l-.88-.9a3.47,3.47,0,0,1-2.52,1.11h0a2.84,2.84,0,0,1-2.13-.94h0a3.37,3.37,0,0,1-.83-2.25h0v0a3.34,3.34,0,0,1,.83-2.24h0a2.87,2.87,0,0,1,2.13-.93h0A3.52,3.52,0,0,1,55,77.53h0l.89-1a4.45,4.45,0,0,0-3.32-1.3h0a4.36,4.36,0,0,0-4.45,4.46h0v0Zm15.39,2.18L64.43,84h1.46L62.1,75.31H60.77L57,84H58.4l.9-2.11ZM59.8,80.65l1.61-3.77L63,80.65ZM74.19,84h1.18V75.37H74v6.21L69.2,75.37H67.88V84h1.37V77.6L74.19,84ZM23.55,84h-1.5l-2.69-6.87L16.67,84h-.23l-2.68-6.87L11.07,84H9.53l3.58-8.68h1.25l2.18,5.44,2.17-5.44H20ZM11.61,105.55l.89,2.12H14L10.17,99H8.84l-3.79,8.68H6.46l.9-2.12Zm-3.75-1.21,1.62-3.77,1.63,3.77Zm22.58,1.21.89,2.12h1.46L29,99H27.67l-3.79,8.68h1.41l.9-2.12Zm-3.75-1.21,1.62-3.78,1.63,3.78Zm11.2-5.29h-3.2v8.62h3.2a4.31,4.31,0,0,0,4.58-4.31v0A4.3,4.3,0,0,0,37.89,99.05ZM41,103.39a2.94,2.94,0,0,1-.85,2.17,3.14,3.14,0,0,1-2.26.86H36.08V100.3h1.81a3.15,3.15,0,0,1,2.26.87,3,3,0,0,1,.85,2.19Zm29.55.87v3.41H72v-3.44l3.42-5.18H73.79l-2.52,4-2.5-4H67.14l3.41,5.21Zm-25.49,3.41h6.41v-1.23h-5v-2.5h4.4v-1.23h-4.4v-2.43h5V99.05H45.06v8.62Zm15.1,0h.23l.4-1,2.29-5.83,2.68,6.87h1.5L63.68,99H62.43l-2.18,5.44L58.07,99H56.82l-3.58,8.68h1.54l2.69-6.87,2.69,6.87Zm-45.11-4.28a4.33,4.33,0,0,0,4.38,4.43h0a4.42,4.42,0,0,0,3.45-1.48h0l-.88-.89a3.51,3.51,0,0,1-2.52,1.11h0a2.85,2.85,0,0,1-2.13-1h0a3.31,3.31,0,0,1-.84-2.25h0v0a3.31,3.31,0,0,1,.84-2.25h0a2.86,2.86,0,0,1,2.13-.92h0a3.51,3.51,0,0,1,2.45,1h0l.89-1a4.5,4.5,0,0,0-3.33-1.3h0a4.37,4.37,0,0,0-4.44,4.46h0v0Z"/><path class="cls-1" d="M21.71,5.14a4.33,4.33,0,0,1,8.22,0h0l6.81,20.94L32.55,39h0a.6.6,0,0,1-.59.43q-7.32-.22-14.3-.95h-.08A.92.92,0,0,0,17,40.06h0q5.38,4.55,11.35,8.86h0a1.23,1.23,0,0,1,.51,1,1.26,1.26,0,0,1-.11.51h0a15.31,15.31,0,0,1-13.95,9H4.92a.61.61,0,0,1-.61-.61.64.64,0,0,1,0-.2L21.71,5.14Z"/><path class="cls-1" d="M75.34,70.26,53.87,4.17A6.14,6.14,0,0,0,48.06,0H29.23a.31.31,0,0,0-.31.31.34.34,0,0,0,.16.27h0A6.08,6.08,0,0,1,32,4.05h0L43.35,39h0a.6.6,0,0,0,.59.43c4.88-.15,9.66-.47,14.3-.95h.08a.92.92,0,0,1,.61,1.61h0c-3.66,3.09-7.54,6.12-11.61,9a.89.89,0,0,0-.39.74,1.17,1.17,0,0,0,0,.27h0l1.44,4.41h0A23.89,23.89,0,0,0,71.14,71.06h3.62a.61.61,0,0,0,.61-.61A.58.58,0,0,0,75.34,70.26Z"/></g></g></svg>