<svg xmlns="http://www.w3.org/2000/svg" viewBox="0 0 87.91 74.79"><defs><style>.cls-1{fill:#fff;}</style></defs><title>Asset 15</title><g id="Layer_2" data-name="Layer 2"><g id="Layer_1-2" data-name="Layer 1"><path class="cls-1" d="M0,48.9H5.77v-.76H.83V40.29H0V48.9Zm13.27-2.32,1,2.32h.89l-3.92-8.67h-.83L6.52,48.9h.84l1-2.32Zm-4.55-.73,2.12-4.74L13,45.85Zm15.14,3h.68V40.29h-.81v7.17l-5.64-7.17h-.81V48.9h.81V41.57l5.77,7.33Zm3.77-4.28A4.22,4.22,0,0,0,32,49.05h0a5.21,5.21,0,0,0,3.45-1.3h0V44.37H32v.74h2.67V47.4l0,0a4.22,4.22,0,0,1-2.58.9h0a3.44,3.44,0,0,1-2.59-1.07h0a3.86,3.86,0,0,1-.95-2.66h0v0A3.85,3.85,0,0,1,29.46,42h0a3.27,3.27,0,0,1,2.45-1.09h0a3.77,3.77,0,0,1,2.66,1h0l.54-.64A4.56,4.56,0,0,0,32,40.14h0a4.32,4.32,0,0,0-4.32,4.45h0v0Zm11.08.69c0,2.45,1.43,3.72,3.56,3.73h0c2.16,0,3.58-1.28,3.58-3.81h0V40.29H45v5a3.13,3.13,0,0,1-.74,2.22h0a2.63,2.63,0,0,1-2,.75h0a2.65,2.65,0,0,1-2-.79h0a3.3,3.3,0,0,1-.73-2.24h0v-5h-.83v5Zm15.4,1.27,1,2.32H56l-3.92-8.67h-.83L47.35,48.9h.85l1-2.32Zm-4.55-.73,2.12-4.74,2.11,4.74Zm8.25-1.23a4.22,4.22,0,0,0,4.38,4.43h0a5.21,5.21,0,0,0,3.44-1.3h0V44.37H62.17v.74h2.67V47.4l0,0a4.22,4.22,0,0,1-2.58.9h0a3.44,3.44,0,0,1-2.59-1.07h0a3.82,3.82,0,0,1-1-2.66h0v0a3.85,3.85,0,0,1,1-2.58h0a3.25,3.25,0,0,1,2.45-1.09h0a3.8,3.8,0,0,1,2.66,1h0l.54-.64a4.56,4.56,0,0,0-3.16-1.09h0a4.32,4.32,0,0,0-4.32,4.45h0v0ZM69.12,48.9h6.25v-.75H70V44.93h4.78v-.75H70V41h5.35v-.75H69.12V48.9Zm-62.56-14,.89,2.11H8.91L5.12,28.38H3.79L0,37.05H1.41l.9-2.11ZM2.81,33.73,4.43,30l1.63,3.78Zm22.55,3.33h6.41V35.83h-5V33.32h4.39V32.1H26.75V29.67H31.7V28.44H25.36v8.62Zm14.27-3.29.1,0a2.55,2.55,0,0,0,2-2.58v0a2.56,2.56,0,0,0-.71-1.83,3.4,3.4,0,0,0-2.47-.86H34.76v8.62h1.39V34h2l2.15,3.06H42Zm-3.48-1v-3.1h2.31a2.23,2.23,0,0,1,1.39.39,1.35,1.35,0,0,1,.5,1.14v0a1.4,1.4,0,0,1-.51,1.12,2.12,2.12,0,0,1-1.36.42Zm8.13,4.27h1.39V28.44H44.28v8.62Zm3.87-4.29a4.33,4.33,0,0,0,4.38,4.43h0A4.39,4.39,0,0,0,56,35.72h0l-.88-.89a3.51,3.51,0,0,1-2.52,1.11h0A2.84,2.84,0,0,1,50.45,35h0a3.37,3.37,0,0,1-.83-2.26h0v0a3.3,3.3,0,0,1,.83-2.24h0a2.84,2.84,0,0,1,2.13-.93h0A3.52,3.52,0,0,1,55,30.61h0l.89-1a4.45,4.45,0,0,0-3.32-1.29h0a4.35,4.35,0,0,0-4.45,4.45h0v0Zm15.39,2.17.89,2.12h1.46L62.1,28.38H60.77L57,37.06H58.4l.9-2.12ZM59.8,33.73,61.41,30,63,33.73Zm14.39,3.33h1.18V28.44H74v6.21L69.2,28.44H67.88v8.62h1.37V30.67l4.94,6.39Zm-50.64,0h-1.5l-2.69-6.86-2.69,6.86h-.23l-2.68-6.86-2.69,6.86H9.53l3.58-8.67h1.25l2.18,5.44,2.17-5.44H20ZM11.61,58.63l.89,2.11H14l-3.79-8.67H8.84L5.05,60.74H6.46l.9-2.11ZM7.86,57.41l1.62-3.77,1.63,3.77Zm22.58,1.22.89,2.11h1.46L29,52.07H27.67l-3.79,8.67h1.41l.9-2.11Zm-3.75-1.22,1.62-3.77,1.63,3.77Zm11.2-5.28h-3.2v8.61h3.2a4.31,4.31,0,0,0,4.58-4.3v0A4.29,4.29,0,0,0,37.89,52.13ZM41,56.46a3,3,0,0,1-.85,2.18,3.14,3.14,0,0,1-2.26.85H36.08V53.38h1.81a3.11,3.11,0,0,1,2.26.87A3,3,0,0,1,41,56.44Zm29.55.88v3.4H72V57.3l3.42-5.17H73.79l-2.52,3.95-2.5-3.95H67.14l3.41,5.21Zm-25.49,3.4h6.41V59.52h-5V57h4.4V55.79h-4.4V53.35h5V52.13H45.06v8.61Zm15.1,0h.23l.4-1,2.29-5.84,2.68,6.87h1.5l-3.58-8.67H62.43l-2.18,5.44-2.18-5.44H56.82l-3.58,8.67h1.54l2.69-6.87,2.69,6.87ZM15.05,56.46a4.33,4.33,0,0,0,4.38,4.43h0a4.41,4.41,0,0,0,3.45-1.47h0l-.88-.9a3.47,3.47,0,0,1-2.52,1.11h0a2.84,2.84,0,0,1-2.13-.94h0a3.33,3.33,0,0,1-.84-2.25h0v0a3.26,3.26,0,0,1,.84-2.24h0a2.87,2.87,0,0,1,2.13-.93h0a3.52,3.52,0,0,1,2.45,1.06h0l.89-1A4.49,4.49,0,0,0,19.49,52h0a4.35,4.35,0,0,0-4.44,4.46h0v0Z"/><path class="cls-1" d="M69.68,1.75a1.48,1.48,0,0,1,1.4-1,1.46,1.46,0,0,1,1.39,1h0l2.32,7.11-1.43,4.38h0a.2.2,0,0,1-.2.15c-1.65-.05-3.28-.16-4.86-.33h0a.31.31,0,0,0-.32.31.34.34,0,0,0,.11.24h0c1.22,1,2.51,2,3.86,3h0a.42.42,0,0,1,.17.34.47.47,0,0,1,0,.17h0a5.21,5.21,0,0,1-4.74,3.05H64a.21.21,0,0,1-.21-.21.13.13,0,0,1,0-.06l5.9-18.16Z"/><path class="cls-1" d="M87.9,23.87,80.6,1.42a2.06,2.06,0,0,0-2-1.42H72.24a.11.11,0,0,0-.11.1.11.11,0,0,0,.06.1h0a2.1,2.1,0,0,1,1,1.17h0L77,13.24h0a.21.21,0,0,0,.2.15q2.49-.08,4.86-.33h0a.31.31,0,0,1,.31.31.3.3,0,0,1-.11.24h0c-1.24,1.05-2.56,2.07-3.94,3.07a.31.31,0,0,0-.13.25.28.28,0,0,0,0,.09h0l.49,1.5h0a8.11,8.11,0,0,0,7.72,5.62H87.7a.22.22,0,0,0,.21-.21S87.9,23.89,87.9,23.87Z"/><rect class="cls-1" y="64.75" width="75" height="0.5"/><path class="cls-1" d="M3.46,71.67C4.29,71.81,5,72.2,5,73a1.49,1.49,0,0,1-.82,1.3,2.89,2.89,0,0,1-1.5.34H.49v-.25c.71-.07.75-.14.75-.82V70.22c0-.71-.08-.77-.75-.83v-.25H2.78a2.29,2.29,0,0,1,1.32.3,1.11,1.11,0,0,1,.51,1A1.37,1.37,0,0,1,3.46,71.67Zm-1-.11c.91,0,1.28-.37,1.28-1a1,1,0,0,0-1.14-1.05,1,1,0,0,0-.47.08c-.07.06-.09.15-.09.4v1.62Zm-.42,2c0,.61.17.77.75.77A1.17,1.17,0,0,0,4,73.11c0-.86-.58-1.24-1.6-1.24H2.05Z"/><path class="cls-1" d="M11.29,69.39c-.54,0-.72.18-.74.56,0,.2,0,.55,0,1.3v1a2.74,2.74,0,0,1-.6,2,2.12,2.12,0,0,1-1.57.55,2.35,2.35,0,0,1-1.41-.4,2.22,2.22,0,0,1-.76-2V70.27c0-.76-.06-.82-.74-.88v-.25H7.75v.25c-.67,0-.75.12-.75.88v2.15c0,1.19.57,1.86,1.57,1.86,1.17,0,1.56-.74,1.56-2.13v-.9c0-.75,0-1.07,0-1.3,0-.39-.23-.52-.85-.56v-.25h2Z"/><path class="cls-1" d="M14.71,70.45c-.15-.55-.39-1.12-1.19-1.12a.84.84,0,0,0-.88.91c0,.56.37.86,1.08,1.23,1,.51,1.47.91,1.47,1.72a1.71,1.71,0,0,1-1.91,1.6A3.86,3.86,0,0,1,12,74.52c-.06-.23-.17-.87-.23-1.31l.27-.07a1.61,1.61,0,0,0,1.44,1.33.9.9,0,0,0,1-1c0-.62-.34-.89-1.08-1.29-.9-.48-1.41-.9-1.41-1.7A1.6,1.6,0,0,1,13.7,69a5.72,5.72,0,0,1,1.14.16c0,.31.07.67.14,1.22Z"/><path class="cls-1" d="M15.91,74.67v-.25c.69-.08.76-.12.76-.84V70.23c0-.72-.07-.76-.76-.84v-.25h2.34v.25c-.69.08-.76.12-.76.84v3.35c0,.73.07.76.76.84v.25Z"/><path class="cls-1" d="M25,69.39c-.53.07-.71.15-.74.54s0,.63,0,1.41v3.41h-.35l-3.62-4.41v2.08c0,.77,0,1.14.05,1.38,0,.43.22.57.84.62v.25H19v-.25c.52,0,.73-.17.77-.59s0-.64,0-1.41V70.28a.83.83,0,0,0-.17-.59c-.16-.21-.35-.25-.75-.3v-.25h1.34l3.54,4.19v-2a13.23,13.23,0,0,0,0-1.39c0-.38-.21-.51-.89-.56v-.25H25Z"/><path class="cls-1" d="M30.09,73.3c-.05.22-.28,1.12-.37,1.37H25.54v-.25c.79-.07.85-.14.85-.84V70.25c0-.75-.1-.8-.73-.86v-.25h3.88c0,.2,0,.85.08,1.31l-.27,0a2.37,2.37,0,0,0-.28-.67c-.13-.26-.31-.32-.81-.32H27.5c-.28,0-.3,0-.3.28v1.86h.93c.61,0,.66-.13.76-.71h.28V72.7h-.28c-.11-.62-.18-.71-.77-.71H27.2v1.65c0,.6.16.67.6.68h.76c.51,0,.6-.07.79-.3a3.59,3.59,0,0,0,.47-.79Z"/><path class="cls-1" d="M33.68,70.45c-.15-.55-.39-1.12-1.19-1.12a.83.83,0,0,0-.87.91c0,.56.36.86,1.07,1.23,1,.51,1.47.91,1.47,1.72a1.71,1.71,0,0,1-1.9,1.6,3.87,3.87,0,0,1-1.33-.27c-.06-.23-.17-.87-.23-1.31l.27-.07a1.61,1.61,0,0,0,1.44,1.33.9.9,0,0,0,1-1c0-.62-.34-.89-1.08-1.29s-1.41-.9-1.41-1.7A1.6,1.6,0,0,1,32.67,69a5.72,5.72,0,0,1,1.14.16c0,.31.07.67.14,1.22Z"/><path class="cls-1" d="M38,70.45c-.15-.55-.39-1.12-1.18-1.12a.83.83,0,0,0-.88.91c0,.56.36.86,1.07,1.23,1,.51,1.47.91,1.47,1.72a1.7,1.7,0,0,1-1.9,1.6,3.76,3.76,0,0,1-1.32-.27A12.24,12.24,0,0,1,35,73.21l.28-.07a1.6,1.6,0,0,0,1.43,1.33.9.9,0,0,0,1-1c0-.62-.34-.89-1.08-1.29s-1.41-.9-1.41-1.7A1.61,1.61,0,0,1,37,69a5.71,5.71,0,0,1,1.13.16c0,.31.08.67.14,1.22Z"/><path class="cls-1" d="M46.32,73.29a11.13,11.13,0,0,1-.47,1.3,7.83,7.83,0,0,1-1.56.2A2.82,2.82,0,0,1,41.19,72,3,3,0,0,1,44.44,69a8.6,8.6,0,0,1,1.61.2c0,.39.1.92.16,1.33l-.28.06a1.44,1.44,0,0,0-.82-1.1,2.24,2.24,0,0,0-.86-.16c-1.37,0-2.09,1-2.09,2.43,0,1.62.84,2.68,2.18,2.68.84,0,1.27-.4,1.71-1.26Z"/><path class="cls-1" d="M51.57,73.3c0,.22-.28,1.12-.36,1.37H47v-.25c.79-.07.84-.14.84-.84V70.25c0-.75-.09-.8-.72-.86v-.25H51c0,.2,0,.85.08,1.31l-.27,0a2.37,2.37,0,0,0-.28-.67c-.14-.26-.32-.32-.81-.32H49c-.28,0-.3,0-.3.28v1.86h.92c.61,0,.66-.13.77-.71h.28V72.7h-.28c-.12-.62-.18-.71-.77-.71h-.92v1.65c0,.6.16.67.6.68h.76c.51,0,.6-.07.79-.3a3.59,3.59,0,0,0,.47-.79Z"/><path class="cls-1" d="M58,69.39c-.54.07-.71.15-.74.54s0,.63,0,1.41v3.41h-.35l-3.62-4.41v2.08c0,.77,0,1.14,0,1.38,0,.43.23.57.84.62v.25H52.1v-.25c.52,0,.72-.17.76-.59a13.08,13.08,0,0,0,0-1.41V70.28a.79.79,0,0,0-.18-.59c-.16-.21-.34-.25-.74-.3v-.25h1.34l3.54,4.19v-2c0-.78,0-1.13,0-1.39s-.21-.51-.9-.56v-.25H58Z"/><path class="cls-1" d="M63.27,70.5a2.9,2.9,0,0,0-.29-.73c-.14-.22-.22-.28-.69-.28h-.8V73.6c0,.68.07.76.87.82v.25H59.83v-.25c.78-.06.84-.14.84-.82V69.49H60c-.47,0-.61.06-.76.3a4.06,4.06,0,0,0-.29.71h-.27c.06-.53.11-1.09.13-1.56H59c.13.21.22.2.46.2H62.8a.44.44,0,0,0,.45-.2h.21c0,.4,0,1,.08,1.54Z"/><path class="cls-1" d="M68.67,73.3c0,.22-.28,1.12-.36,1.37H64.13v-.25c.79-.07.84-.14.84-.84V70.25c0-.75-.09-.8-.72-.86v-.25h3.88c0,.2,0,.85.08,1.31l-.27,0a2.37,2.37,0,0,0-.28-.67c-.14-.26-.32-.32-.81-.32h-.76c-.28,0-.3,0-.3.28v1.86h.93c.6,0,.65-.13.76-.71h.28V72.7h-.28c-.11-.62-.18-.71-.77-.71h-.92v1.65c0,.6.16.67.6.68h.76c.51,0,.6-.07.79-.3a3.59,3.59,0,0,0,.47-.79Z"/><path class="cls-1" d="M74.34,74.73H74A1.54,1.54,0,0,1,72.66,74c-.32-.44-.62-1-.89-1.42-.16-.26-.28-.31-.68-.31h-.28v1.31c0,.72.1.77.77.84v.25H69.25v-.25c.69-.08.76-.12.76-.84V70.22c0-.72-.09-.75-.76-.83v-.25h2.22a2.37,2.37,0,0,1,1.39.3,1.26,1.26,0,0,1,.58,1.12A1.55,1.55,0,0,1,72.35,72c.15.26.51.83.76,1.21a7.92,7.92,0,0,0,.67.88,1.13,1.13,0,0,0,.6.38ZM71.19,72a1.33,1.33,0,0,0,.92-.25,1.19,1.19,0,0,0,.45-1,1.12,1.12,0,0,0-1.21-1.24.68.68,0,0,0-.44.09c-.07,0-.1.14-.1.35V72Z"/></g></g></svg>