<svg xmlns="http://www.w3.org/2000/svg" viewBox="0 0 170.38 135.6"><defs><style>.cls-1{fill:#14477c;}.cls-2{fill:#f29520;}</style></defs><title>Business_Center_Color</title><g id="Layer_2" data-name="Layer 2"><g id="Layer_1-2" data-name="Layer 1"><path class="cls-1" d="M29.06,98.91a8.16,8.16,0,0,0,8.45,8.14,8.74,8.74,0,0,0,6.66-2.71l-1.71-1.65a6.86,6.86,0,0,1-4.85,2A5.58,5.58,0,0,1,33.5,103a5.94,5.94,0,0,1-1.62-4.14v0A5.87,5.87,0,0,1,33.5,94.7,5.65,5.65,0,0,1,37.61,93a7,7,0,0,1,4.73,1.94l1.71-1.89a8.87,8.87,0,0,0-6.41-2.37,8.21,8.21,0,0,0-8.58,8.18v0m87,7.86h.45l5.19-12.61,5.18,12.61h2.89l-6.91-15.93h-2.41l-4.2,10-4.2-10h-2.42l-6.91,15.93h3l5.2-12.61Zm-29.13,0H99.33v-2.25H89.64v-4.6h8.48V97.67H89.64V93.2H99.2V91H87Zm49.2-6.25v6.25h2.7v-6.32l6.59-9.5h-3.06l-4.86,7.25L132.71,91h-3.15Zm-57-1.61a5.33,5.33,0,0,1-1.65,4,6.25,6.25,0,0,1-4.37,1.58H69.64V93.25h3.48a6.17,6.17,0,0,1,4.37,1.6,5.41,5.41,0,0,1,1.65,4Zm-6-8H67v15.82h6.16c5.25,0,8.84-3.45,8.84-7.91v0C82,94.36,78.37,91,73.12,91m-21.6,9.71,3.12-6.93,3.15,6.93Zm7.23,2.23,1.72,3.88h2.82L56,90.84H53.41L46.1,106.77h2.72l1.74-3.88Zm-43.56-2.23,3.12-6.93,3.15,6.93Zm7.23,2.23,1.71,3.88H27L19.64,90.84H17.08L9.76,106.77h2.73l1.74-3.88Zm23-39.62H42.56L37.38,50.66,32.19,63.27h-.45L26.57,50.66l-5.2,12.61h-3l6.91-15.93h2.42l4.2,10,4.2-10h2.41Zm97.73,0h2.27V47.45h-2.63v11.4l-9.28-11.4H131V63.27h2.63V51.55ZM115.4,57.16l3.12-6.93,3.15,6.93Zm7.23,2.23,1.71,3.88h2.83l-7.32-15.93h-2.56L110,63.27h2.73l1.74-3.88Zm-29.7-4a8.16,8.16,0,0,0,8.46,8.14A8.75,8.75,0,0,0,108,60.83l-1.7-1.65a6.9,6.9,0,0,1-4.86,2,5.58,5.58,0,0,1-4.11-1.73,5.93,5.93,0,0,1-1.61-4.14v0a5.87,5.87,0,0,1,1.61-4.12,5.65,5.65,0,0,1,4.11-1.7,7,7,0,0,1,4.73,1.94l1.72-1.89a8.92,8.92,0,0,0-6.42-2.37,8.21,8.21,0,0,0-8.58,8.18Zm-7.47,7.87h2.68V47.45H85.46Zm-15.7-7.84V49.75h4.48a4.36,4.36,0,0,1,2.66.72,2.48,2.48,0,0,1,1,2.09v0a2.53,2.53,0,0,1-1,2.07,4.28,4.28,0,0,1-2.63.76Zm6.72,1.81.2-.06c2.33-.64,3.93-2.15,3.93-4.74v0A4.63,4.63,0,0,0,79.26,49a6.89,6.89,0,0,0-4.78-1.57h-7.4V63.27h2.68V57.66h3.95l4.15,5.61H81ZM49,63.27H61.32V61H51.63v-4.6h8.48V54.17H51.63V49.7H61.2V47.45H49ZM5.45,57.16l3.12-6.93,3.14,6.93Zm7.22,2.22,1.72,3.89h2.82L9.9,47.34H7.33L0,63.27H2.74l1.74-3.89ZM133.4,85h12V83.66H135V77.73h9.23V76.36H135V70.58h10.32V69.21H133.4Zm-21.83-7.87c0,4.54,3.22,8.14,8.45,8.14a10.46,10.46,0,0,0,6.65-2.38V76.71H120v1.35h5.15v4.21l-.06,0a8.34,8.34,0,0,1-5,1.64,6.8,6.8,0,0,1-5-2,6.87,6.87,0,0,1-1.85-4.88v-.05a6.89,6.89,0,0,1,1.85-4.74,6.41,6.41,0,0,1,4.73-2A7.47,7.47,0,0,1,125,72.11L126,71a9,9,0,0,0-6.1-2,8.12,8.12,0,0,0-8.33,8.19ZM95.64,79.42l4.1-8.7,4.07,8.7Zm8.79,1.35,2,4.26h1.73l-7.58-15.94H99L91.39,85H93l2-4.26ZM74.71,78.43c0,4.49,2.76,6.83,6.88,6.85s6.89-2.36,6.91-7V69.21H86.88v9.22a5.55,5.55,0,0,1-1.42,4.07,5.2,5.2,0,0,1-3.82,1.38,5.26,5.26,0,0,1-3.91-1.45,5.78,5.78,0,0,1-1.41-4.12v-9.1H74.71ZM53.34,77.16c0,4.54,3.22,8.14,8.45,8.14a10.46,10.46,0,0,0,6.65-2.38V76.71H61.75v1.35H66.9v4.21l-.06,0a8.34,8.34,0,0,1-5,1.64A6.52,6.52,0,0,1,55,77.12v-.05a6.89,6.89,0,0,1,1.85-4.74,6.43,6.43,0,0,1,4.73-2,7.47,7.47,0,0,1,5.13,1.78l1-1.16a9,9,0,0,0-6.1-2,8.13,8.13,0,0,0-8.33,8.19ZM46.07,85h1.3V69.21H45.8V82.38L34.92,69.21H33.36V85h1.56V71.56ZM16.84,79.42l4.1-8.7L25,79.42Zm8.79,1.35,2,4.26h1.73L21.76,69.09H20.17L12.59,85h1.63l2-4.26ZM0,85H11.15v-1.4H1.63V69.21H0Z"/><path class="cls-2" d="M135.87,3.15a2.82,2.82,0,0,1,5.28,0L145.53,16l-2.69,7.89h0a.39.39,0,0,1-.38.27q-4.71-.14-9.2-.59h0a.57.57,0,0,0-.59.56.54.54,0,0,0,.19.42q3.48,2.79,7.31,5.43h0a.73.73,0,0,1,.33.61.64.64,0,0,1-.07.31,9.87,9.87,0,0,1-9,5.51h-6.34a.39.39,0,0,1-.4-.38.27.27,0,0,1,0-.12L135.87,3.15"/><path class="cls-2" d="M170.36,43,156.55,2.55A3.94,3.94,0,0,0,152.81,0H140.7a.19.19,0,0,0-.19.19.18.18,0,0,0,.1.16,3.82,3.82,0,0,1,1.88,2.13l7.3,21.38h0a.39.39,0,0,0,.37.26q4.71-.14,9.2-.59h.06a.58.58,0,0,1,.59.56.55.55,0,0,1-.2.42c-2.36,1.9-4.86,3.75-7.47,5.54a.56.56,0,0,0-.25.46.45.45,0,0,0,0,.16l.92,2.7A15.31,15.31,0,0,0,167.66,43.5H170a.39.39,0,0,0,.39-.37.5.5,0,0,0,0-.12"/><path class="cls-2" d="M0,135.47V124.36H3.54a6.93,6.93,0,0,1,1.76.2,3.64,3.64,0,0,1,1.22.57,2.36,2.36,0,0,1,.71.92,3.07,3.07,0,0,1,.23,1.21,2.62,2.62,0,0,1-.13.79,2.41,2.41,0,0,1-.39.7,2.65,2.65,0,0,1-.65.59,3.38,3.38,0,0,1-.92.41,3.49,3.49,0,0,1,1.84.88,2.3,2.3,0,0,1,.62,1.67,3.2,3.2,0,0,1-.26,1.29,2.86,2.86,0,0,1-.76,1,3.43,3.43,0,0,1-1.23.65,5.53,5.53,0,0,1-1.65.23Zm1.5-6.13h2a4,4,0,0,0,1.1-.14,2.42,2.42,0,0,0,.77-.39,1.64,1.64,0,0,0,.45-.6,2,2,0,0,0,.15-.77A1.73,1.73,0,0,0,5.37,126a3,3,0,0,0-1.83-.45h-2Zm0,1.07v3.86H3.91a4,4,0,0,0,1.1-.14,2.06,2.06,0,0,0,.76-.42,1.57,1.57,0,0,0,.44-.64,2.29,2.29,0,0,0,.14-.81,1.7,1.7,0,0,0-.61-1.36,2.89,2.89,0,0,0-1.84-.49Z"/><path class="cls-2" d="M15.26,134.27a3.17,3.17,0,0,0,1.23-.23,2.65,2.65,0,0,0,.92-.65,2.81,2.81,0,0,0,.57-1,3.74,3.74,0,0,0,.2-1.28v-6.75h1.5v6.75a4.93,4.93,0,0,1-.31,1.78,4,4,0,0,1-.87,1.42,4,4,0,0,1-1.4.95,5.15,5.15,0,0,1-3.68,0,4,4,0,0,1-1.4-.95,4.05,4.05,0,0,1-.88-1.42,5.16,5.16,0,0,1-.31-1.78v-6.75h1.5v6.74a4,4,0,0,0,.2,1.28,2.81,2.81,0,0,0,.57,1A2.67,2.67,0,0,0,14,134,3.26,3.26,0,0,0,15.26,134.27Z"/><path class="cls-2" d="M28.86,126.1a.63.63,0,0,1-.15.17.32.32,0,0,1-.2.06.55.55,0,0,1-.3-.13,3.94,3.94,0,0,0-.45-.29,2.73,2.73,0,0,0-.64-.29,2.68,2.68,0,0,0-.91-.14,2.72,2.72,0,0,0-.89.14,1.79,1.79,0,0,0-.65.37,1.5,1.5,0,0,0-.39.54,1.72,1.72,0,0,0-.13.68,1.26,1.26,0,0,0,.23.77,1.94,1.94,0,0,0,.6.53,4.73,4.73,0,0,0,.85.37l1,.33c.33.12.66.24,1,.38a3.85,3.85,0,0,1,.85.54,2.51,2.51,0,0,1,.6.8,2.55,2.55,0,0,1,.23,1.16,3.83,3.83,0,0,1-.24,1.37,3.11,3.11,0,0,1-.73,1.11,3.36,3.36,0,0,1-1.17.75,4.33,4.33,0,0,1-1.58.27,4.83,4.83,0,0,1-2-.39,4.57,4.57,0,0,1-1.52-1.06l.44-.71a.54.54,0,0,1,.15-.15.42.42,0,0,1,.2-.05.58.58,0,0,1,.37.17,5.47,5.47,0,0,0,.52.38,4.13,4.13,0,0,0,.76.39,3.16,3.16,0,0,0,1.09.17,2.79,2.79,0,0,0,.95-.15,1.84,1.84,0,0,0,.71-.41,1.81,1.81,0,0,0,.45-.64,2.19,2.19,0,0,0,.15-.83,1.33,1.33,0,0,0-.23-.82,1.74,1.74,0,0,0-.6-.54,3.69,3.69,0,0,0-.85-.37l-1-.31c-.33-.11-.66-.23-1-.37a3.24,3.24,0,0,1-.85-.54,2.43,2.43,0,0,1-.6-.83,3,3,0,0,1-.23-1.24,3,3,0,0,1,.23-1.14,3,3,0,0,1,.67-1,3.12,3.12,0,0,1,1.07-.68,3.9,3.9,0,0,1,1.47-.25,4.58,4.58,0,0,1,1.69.29,4,4,0,0,1,1.35.85Z"/><path class="cls-2" d="M34.08,135.47h-1.5V124.36h1.5Z"/><path class="cls-2" d="M39.05,124.41a.69.69,0,0,1,.22.21L45.7,133l0-.4c0-.12,0-.25,0-.36v-7.87H47v11.11h-.76a.56.56,0,0,1-.3-.07.64.64,0,0,1-.23-.21l-6.43-8.36c0,.13,0,.26,0,.38s0,.24,0,.34v7.92H38V124.36h.78A.78.78,0,0,1,39.05,124.41Z"/><path class="cls-2" d="M57.45,124.36v1.22H52.12v3.69h4.31v1.18H52.12v3.79h5.33v1.23H50.61V124.36Z"/><path class="cls-2" d="M66.22,126.1a.86.86,0,0,1-.15.17.32.32,0,0,1-.2.06.61.61,0,0,1-.31-.13,3.73,3.73,0,0,0-.44-.29,2.93,2.93,0,0,0-.64-.29,3,3,0,0,0-1.81,0A1.83,1.83,0,0,0,62,126a1.41,1.41,0,0,0-.4.54,1.91,1.91,0,0,0-.13.68,1.26,1.26,0,0,0,.23.77,2,2,0,0,0,.61.53,4.44,4.44,0,0,0,.85.37l1,.33c.33.12.65.24,1,.38a3.85,3.85,0,0,1,.85.54,2.4,2.4,0,0,1,.61.8,2.69,2.69,0,0,1,.23,1.16,3.63,3.63,0,0,1-.25,1.37,3.23,3.23,0,0,1-.72,1.11,3.32,3.32,0,0,1-1.18.75,4.27,4.27,0,0,1-1.57.27,4.84,4.84,0,0,1-2-.39,4.53,4.53,0,0,1-1.51-1.06l.43-.71a.54.54,0,0,1,.15-.15.46.46,0,0,1,.2-.05.58.58,0,0,1,.37.17,5.75,5.75,0,0,0,.53.38,3.83,3.83,0,0,0,.76.39,3.1,3.1,0,0,0,1.08.17,2.85,2.85,0,0,0,1-.15,1.92,1.92,0,0,0,.71-.41,1.79,1.79,0,0,0,.44-.64,2,2,0,0,0,.16-.83,1.39,1.39,0,0,0-.23-.82,1.74,1.74,0,0,0-.6-.54,3.89,3.89,0,0,0-.85-.37l-1-.31a10.22,10.22,0,0,1-1-.37,3.24,3.24,0,0,1-.85-.54,2.43,2.43,0,0,1-.6-.83,2.89,2.89,0,0,1-.23-1.24,2.83,2.83,0,0,1,.23-1.14,2.92,2.92,0,0,1,.66-1,3.32,3.32,0,0,1,1.07-.68,4,4,0,0,1,1.47-.25,4.63,4.63,0,0,1,1.7.29,4,4,0,0,1,1.34.85Z"/><path class="cls-2" d="M75.34,126.1a.61.61,0,0,1-.14.17.32.32,0,0,1-.2.06.61.61,0,0,1-.31-.13,3.73,3.73,0,0,0-.44-.29,2.93,2.93,0,0,0-.64-.29,2.78,2.78,0,0,0-.92-.14,2.72,2.72,0,0,0-.89.14,1.74,1.74,0,0,0-.64.37,1.41,1.41,0,0,0-.4.54,1.91,1.91,0,0,0-.13.68,1.26,1.26,0,0,0,.23.77,1.87,1.87,0,0,0,.61.53,4.44,4.44,0,0,0,.85.37l1,.33c.34.12.66.24,1,.38a3.85,3.85,0,0,1,.85.54,2.4,2.4,0,0,1,.61.8,2.69,2.69,0,0,1,.23,1.16,3.83,3.83,0,0,1-.25,1.37,3.11,3.11,0,0,1-.73,1.11,3.19,3.19,0,0,1-1.17.75,4.27,4.27,0,0,1-1.57.27,4.84,4.84,0,0,1-2-.39,4.53,4.53,0,0,1-1.51-1.06l.43-.71a.54.54,0,0,1,.15-.15.46.46,0,0,1,.2-.05.58.58,0,0,1,.37.17,5.75,5.75,0,0,0,.53.38,4,4,0,0,0,.75.39,3.16,3.16,0,0,0,1.09.17,2.85,2.85,0,0,0,1-.15,1.92,1.92,0,0,0,.71-.41,1.79,1.79,0,0,0,.44-.64,2,2,0,0,0,.16-.83,1.39,1.39,0,0,0-.23-.82,1.74,1.74,0,0,0-.6-.54,3.89,3.89,0,0,0-.85-.37l-1-.31a10.22,10.22,0,0,1-1-.37,3.24,3.24,0,0,1-.85-.54,2.43,2.43,0,0,1-.6-.83,2.89,2.89,0,0,1-.23-1.24,2.83,2.83,0,0,1,.23-1.14,2.92,2.92,0,0,1,.66-1,3.32,3.32,0,0,1,1.07-.68,4,4,0,0,1,1.47-.25,4.63,4.63,0,0,1,1.7.29,4,4,0,0,1,1.34.85Z"/><path class="cls-2" d="M90.52,133.17a.32.32,0,0,1,.22.1l.59.65a4.83,4.83,0,0,1-1.65,1.23,5.73,5.73,0,0,1-2.35.44,5.59,5.59,0,0,1-2.17-.41A4.75,4.75,0,0,1,83.49,134a5.18,5.18,0,0,1-1.07-1.79,6.81,6.81,0,0,1-.38-2.3,6.28,6.28,0,0,1,.41-2.3,5.1,5.1,0,0,1,2.9-3,6,6,0,0,1,2.27-.41,5.08,5.08,0,0,1,3.69,1.41l-.49.69a.46.46,0,0,1-.12.12.31.31,0,0,1-.2.05.4.4,0,0,1-.22-.07l-.27-.18-.36-.23a2.92,2.92,0,0,0-.5-.24,4.44,4.44,0,0,0-.66-.18,4.61,4.61,0,0,0-.88-.07,4.3,4.3,0,0,0-1.63.3,3.67,3.67,0,0,0-1.27.88,3.82,3.82,0,0,0-.84,1.38,5.23,5.23,0,0,0-.29,1.82,5.32,5.32,0,0,0,.29,1.85,4,4,0,0,0,.82,1.37,3.39,3.39,0,0,0,1.22.86,3.82,3.82,0,0,0,1.52.3,6,6,0,0,0,.89-.06,3.25,3.25,0,0,0,.73-.19,3.07,3.07,0,0,0,.63-.31,5.69,5.69,0,0,0,.58-.45A.41.41,0,0,1,90.52,133.17Z"/><path class="cls-2" d="M101.07,124.36v1.22H95.73v3.69h4.32v1.18H95.73v3.79h5.34v1.23H94.22V124.36Z"/><path class="cls-2" d="M105.22,124.41a.81.81,0,0,1,.22.21l6.43,8.37a2.8,2.8,0,0,1,0-.4c0-.12,0-.25,0-.36v-7.87h1.32v11.11h-.76a.56.56,0,0,1-.3-.07.75.75,0,0,1-.24-.21l-6.42-8.36c0,.13,0,.26,0,.38s0,.24,0,.34v7.92h-1.32V124.36h.78A.78.78,0,0,1,105.22,124.41Z"/><path class="cls-2" d="M124.34,124.36v1.26h-3.59v9.85h-1.5v-9.85h-3.61v-1.26Z"/><path class="cls-2" d="M133.68,124.36v1.22h-5.33v3.69h4.31v1.18h-4.31v3.79h5.33v1.23h-6.84V124.36Z"/><path class="cls-2" d="M138.41,130.83v4.64h-1.5V124.36h3.14a7,7,0,0,1,1.82.21,3.67,3.67,0,0,1,1.27.62,2.5,2.5,0,0,1,.74,1,3.28,3.28,0,0,1,.24,1.28,3.07,3.07,0,0,1-.19,1.1,2.86,2.86,0,0,1-.54.92,3.11,3.11,0,0,1-.86.69,3.92,3.92,0,0,1-1.15.43,1.62,1.62,0,0,1,.5.48l3.24,4.41h-1.33a.67.67,0,0,1-.61-.32l-2.88-4a1,1,0,0,0-.29-.27,1.08,1.08,0,0,0-.46-.08Zm0-1.09H140a3.74,3.74,0,0,0,1.16-.16,2.59,2.59,0,0,0,.84-.45,1.8,1.8,0,0,0,.5-.69,2.17,2.17,0,0,0,.17-.89,1.75,1.75,0,0,0-.65-1.5,3.15,3.15,0,0,0-1.95-.5h-1.64Z"/><rect class="cls-1" x="0.02" y="115.54" width="145.43" height="1"/></g></g></svg>