<?xml version="1.0" encoding="utf-8"?>
<!-- Generator: Adobe Illustrator 23.0.3, SVG Export Plug-In . SVG Version: 6.00 Build 0)  -->
<svg version="1.1" id="Layer_1" xmlns="http://www.w3.org/2000/svg" xmlns:xlink="http://www.w3.org/1999/xlink" x="0px" y="0px"
	 viewBox="0 0 99.1 99.1" style="enable-background:new 0 0 99.1 99.1;" xml:space="preserve">
<style type="text/css">
	.st0{fill:#FFFFFF;}
	.st1{fill:#293560;}
	.st2{fill:url(#SVGID_1_);}
	.st3{fill:url(#SVGID_2_);}
	.st4{fill:url(#SVGID_3_);}
	.st5{fill:#5CC3E0;}
	.st6{fill:url(#SVGID_4_);}
	.st7{fill:url(#SVGID_5_);}
</style>
<circle class="st0" cx="49.6" cy="49.6" r="49.6"/>
<title>Nuevo símbolo</title>
<g>
	<g id="Capa_1">
		<g id="Nuevo_símbolo">
			<path class="st1" d="M26.8,39.4H28l2.6,4.2l2.6-4.2h1.2l-3.2,5.3v4.9h-1v-4.9L26.8,39.4z"/>
			<path class="st1" d="M37.1,39.4h5.8v1h-4.8v3.2h4.8v1h-4.8v4h4.8v1h-5.8V39.4z"/>
			<path class="st1" d="M49.9,39.4l4.7,10.2h-1.1l-1.6-3.3h-4.4L46,49.6h-1.2l4.8-10.2H49.9z M49.8,41.6L48,45.2h3.5L49.8,41.6z"/>
			<path class="st1" d="M57.3,39.4h2c0.8,0,1.5,0,2.3,0.1c0.6,0.1,1.1,0.4,1.5,0.9c0.4,0.5,0.6,1.1,0.6,1.7c0,0.5-0.1,1-0.4,1.5
				c-0.3,0.4-0.6,0.8-1.1,1c-0.6,0.2-1.3,0.3-2,0.3l3.7,4.7h-1.2l-3.7-4.7h-0.6v4.7h-1L57.3,39.4z M58.3,40.4v3.5h1.8
				c0.5,0,1,0,1.5-0.2c0.3-0.1,0.6-0.3,0.8-0.6c0.2-0.3,0.3-0.6,0.3-1c0-0.3-0.1-0.7-0.3-0.9c-0.2-0.3-0.4-0.5-0.7-0.6
				c-0.5-0.1-1-0.2-1.5-0.2L58.3,40.4z"/>
			<path class="st1" d="M65.9,47.7l0.9-0.5c0.6,1.1,1.3,1.7,2.1,1.7c0.3,0,0.7-0.1,1-0.2c0.3-0.1,0.5-0.4,0.7-0.6
				c0.2-0.3,0.2-0.6,0.2-0.8c0-0.4-0.1-0.7-0.3-1c-0.5-0.6-1.1-1.2-1.8-1.6c-0.6-0.4-1.1-0.9-1.6-1.4c-0.3-0.4-0.5-1-0.5-1.6
				c0-0.4,0.1-0.8,0.3-1.2c0.2-0.4,0.5-0.7,0.9-0.9c0.4-0.2,0.8-0.3,1.2-0.3c0.5,0,0.9,0.1,1.3,0.3c0.5,0.3,1,0.8,1.3,1.3l-0.8,0.6
				c-0.3-0.4-0.6-0.7-1-1c-0.3-0.2-0.6-0.2-0.9-0.2c-0.4,0-0.7,0.1-1,0.4c-0.3,0.2-0.4,0.6-0.4,0.9c0,0.2,0,0.4,0.1,0.7
				c0.1,0.3,0.3,0.5,0.5,0.7c0.1,0.1,0.6,0.5,1.3,1c0.7,0.5,1.3,1.1,1.8,1.7c0.3,0.4,0.5,1,0.5,1.5c0,0.7-0.3,1.4-0.8,1.9
				c-0.5,0.5-1.3,0.8-2,0.8c-0.6,0-1.2-0.2-1.7-0.5C66.7,48.9,66.2,48.3,65.9,47.7z"/>
			<path class="st1" d="M46.5,11.4v2.2h-8.3L37,19.9c0.9-0.3,1.8-0.4,2.7-0.4c2-0.1,3.9,0.7,5.3,2.1c1.4,1.5,2.1,3.4,2.1,5.4
				c0,1.5-0.3,2.9-1.1,4.2c-0.7,1.2-1.7,2.2-2.9,2.9c-1.3,0.7-2.7,1-4.2,1c-1.8,0.1-3.5-0.6-4.8-1.7c-1.3-1.2-2.1-2.7-2.3-4.5h2.4
				c0.1,0.8,0.4,1.5,0.9,2.2c0.5,0.6,1,1,1.7,1.3c0.7,0.3,1.5,0.5,2.2,0.5c1.5,0,2.9-0.6,3.9-1.7c1.1-1.2,1.7-2.7,1.7-4.3
				c0.1-1.4-0.5-2.8-1.5-3.8c-1.1-1-2.5-1.5-4-1.5c-1.7,0.1-3.4,0.5-5,1.2l2.2-11.6L46.5,11.4z"/>
			<path class="st1" d="M49.5,23c-0.1-2.4,0.2-4.8,1-7.1c0.5-1.5,1.5-2.8,2.8-3.8c1.2-0.9,2.6-1.3,4-1.3c1.5,0,2.9,0.4,4.1,1.3
				c1.3,1,2.3,2.4,2.9,3.9c0.8,2.2,1.2,4.6,1.1,7c0.1,2.4-0.2,4.7-1,7c-0.6,1.6-1.6,2.9-2.9,3.9c-1.2,0.9-2.6,1.3-4.1,1.3
				c-1.4,0-2.8-0.4-4-1.3c-1.3-1-2.3-2.3-2.8-3.8C49.8,27.8,49.4,25.4,49.5,23z M51.7,23c-0.1,2,0.2,4,0.7,6
				c0.4,1.2,1.1,2.3,2.1,3.1c1.7,1.4,4.1,1.4,5.8,0c1-0.8,1.6-1.9,2-3.1c0.6-1.9,0.9-4,0.9-6c0.1-1.9-0.2-3.9-0.8-5.8
				C62,16,61.3,14.9,60.3,14c-1.7-1.4-4.1-1.4-5.8,0c-1,0.8-1.7,1.9-2.1,3.1C51.9,19,51.6,21,51.7,23z"/>
			<path class="st1" d="M20.1,72.2h4.1v0.6h-3.4v1.9h3.1v0.6h-3.1v2h3.5v0.6h-4.1V72.2z"/>
			<path class="st1" d="M27.8,75l-2.1-2.8h0.8l1.7,2.3l1.7-2.3h0.7L28.6,75l2.1,2.9H30l-1.8-2.4l-1.8,2.4h-0.7L27.8,75z"/>
			<path class="st1" d="M31.9,75L31.9,75c0-1.6,1.2-2.9,2.8-2.9c0,0,0.1,0,0.1,0c0.8,0,1.6,0.3,2.2,0.9l-0.4,0.5
				c-0.5-0.5-1.1-0.8-1.8-0.8c-1.2,0-2.2,1-2.2,2.2c0,0,0,0.1,0,0.1l0,0c-0.1,1.2,0.9,2.3,2.1,2.3c0,0,0,0,0.1,0
				c0.7,0,1.4-0.3,1.8-0.8l0.4,0.4c-0.6,0.6-1.4,1-2.3,1c-1.5,0-2.8-1.2-2.8-2.8C31.8,75.1,31.8,75,31.9,75z"/>
			<path class="st1" d="M38.6,72.2h4v0.6h-3.4v1.9h3.1v0.6h-3.1v2h3.5v0.6h-4.1V72.2z"/>
			<path class="st1" d="M44.6,72.2h0.6v5h3.2v0.6h-3.8V72.2z"/>
			<path class="st1" d="M50.2,72.2h0.6v5h3.2v0.6h-3.8V72.2z"/>
			<path class="st1" d="M55.7,72.2h4.1v0.6h-3.4v1.9h3.1v0.6h-3.1v2h3.5v0.6h-4.1V72.2z"/>
			<path class="st1" d="M61.7,72.2h0.6l3.5,4.5v-4.5h0.6v5.6h-0.5l-3.6-4.6v4.6h-0.6V72.2z"/>
			<path class="st1" d="M68.4,75L68.4,75c0-1.6,1.2-2.9,2.8-2.9c0,0,0.1,0,0.1,0c0.8,0,1.6,0.3,2.2,0.9L73,73.4
				c-0.5-0.5-1.1-0.8-1.8-0.8c-1.2,0-2.2,1-2.2,2.2c0,0,0,0.1,0,0.1l0,0c-0.1,1.2,0.9,2.3,2.1,2.3c0,0,0,0,0.1,0
				c0.7,0,1.4-0.3,1.8-0.8l0.4,0.4c-0.6,0.6-1.4,1-2.3,1c-1.6,0-2.8-1.3-2.8-2.8C68.4,75.1,68.4,75,68.4,75z"/>
			<path class="st1" d="M75.1,72.2h4v0.6h-3.4v1.9h3.1v0.6h-3.1v2h3.5v0.6h-4.1V72.2z"/>
			<path class="st1" d="M26.4,83L26,83.2l-0.1-0.2l0.6-0.2h0.2v2.5h-0.3V83z"/>
			<path class="st1" d="M27.6,85l0.2-0.2c0.2,0.2,0.4,0.3,0.6,0.3c0.5,0,0.8-0.4,0.7-1.1c-0.2,0.4-0.8,0.5-1.2,0.3
				c-0.2-0.1-0.4-0.4-0.4-0.6l0,0c0-0.5,0.4-0.8,0.9-0.8c0,0,0,0,0,0c0.2,0,0.5,0.1,0.6,0.3c0.2,0.3,0.4,0.6,0.3,1l0,0
				c0,0.8-0.4,1.3-1,1.3C28.1,85.3,27.8,85.2,27.6,85z M29.1,83.6L29.1,83.6c0-0.3-0.3-0.6-0.6-0.6c0,0,0,0,0,0
				c-0.3,0-0.6,0.2-0.6,0.5c0,0,0,0,0,0.1l0,0c0,0.3,0.3,0.6,0.6,0.6c0,0,0,0,0,0C28.8,84.1,29.1,83.9,29.1,83.6
				C29.1,83.6,29.1,83.5,29.1,83.6L29.1,83.6z"/>
			<path class="st1" d="M30.5,85c-0.3-0.3-0.4-0.6-0.3-1l0,0c0-0.8,0.4-1.3,1-1.3c0.3,0,0.5,0.1,0.7,0.3l-0.2,0.2
				c-0.2-0.2-0.4-0.2-0.6-0.3c-0.5,0-0.7,0.5-0.7,1.1c0.1-0.2,0.4-0.4,0.7-0.4c0.4,0,0.8,0.3,0.9,0.7c0,0,0,0,0,0l0,0
				c0,0.5-0.4,0.8-0.8,0.8c0,0,0,0,0,0C30.8,85.2,30.6,85.1,30.5,85z M31.7,84.4L31.7,84.4c0-0.3-0.3-0.5-0.6-0.5c0,0,0,0,0,0
				c-0.3,0-0.6,0.2-0.6,0.5c0,0,0,0,0,0l0,0c0,0.3,0.3,0.6,0.6,0.6c0,0,0,0,0,0C31.4,85,31.7,84.8,31.7,84.4
				C31.7,84.5,31.7,84.5,31.7,84.4L31.7,84.4z"/>
			<path class="st1" d="M32.7,84.6L32.7,84.6c0-0.3,0.2-0.5,0.5-0.6c-0.2-0.1-0.4-0.3-0.4-0.6l0,0c0.1-0.5,0.6-0.7,1.1-0.6
				c0.3,0.1,0.5,0.3,0.6,0.6l0,0c0,0.3-0.2,0.5-0.4,0.6c0.3,0.1,0.5,0.3,0.5,0.6l0,0c0,0.4-0.4,0.7-0.9,0.7S32.7,85,32.7,84.6z
				 M34.3,84.6L34.3,84.6c0-0.3-0.3-0.5-0.7-0.5S33,84.3,33,84.6l0,0c0,0.3,0.2,0.5,0.7,0.5S34.3,84.8,34.3,84.6L34.3,84.6z
				 M34.2,83.4L34.2,83.4c0-0.3-0.3-0.4-0.6-0.4S33,83.1,33,83.4l0,0c0,0.3,0.3,0.4,0.6,0.4S34.2,83.7,34.2,83.4L34.2,83.4z"/>
			
				<linearGradient id="SVGID_1_" gradientUnits="userSpaceOnUse" x1="37.09" y1="17.65" x2="42.87" y2="17.65" gradientTransform="matrix(1 0 0 -1 0 102)">
				<stop  offset="0" style="stop-color:#5CC3E0"/>
				<stop  offset="1" style="stop-color:#E2AED1"/>
			</linearGradient>
			<path class="st2" d="M42.4,84.8h-4.8c-0.3,0-0.5-0.2-0.5-0.5s0.2-0.5,0.5-0.5h4.8c0.3,0,0.5,0.2,0.5,0.5S42.6,84.8,42.4,84.8z"/>
			
				<linearGradient id="SVGID_2_" gradientUnits="userSpaceOnUse" x1="56.24" y1="17.65" x2="62.03" y2="17.65" gradientTransform="matrix(1 0 0 -1 0 102)">
				<stop  offset="0" style="stop-color:#5CC3E0"/>
				<stop  offset="1" style="stop-color:#E2AED1"/>
			</linearGradient>
			<path class="st3" d="M61.5,84.8h-4.8c-0.3,0-0.5-0.2-0.5-0.5s0.2-0.5,0.5-0.5h4.8c0.3,0,0.5,0.2,0.5,0.5
				C62,84.6,61.8,84.8,61.5,84.8z"/>
			
				<linearGradient id="SVGID_3_" gradientUnits="userSpaceOnUse" x1="57.65" y1="41.75" x2="87.1" y2="41.75" gradientTransform="matrix(1 0 0 -1 0 102)">
				<stop  offset="0" style="stop-color:#5CC3E0"/>
				<stop  offset="1" style="stop-color:#E2AED1"/>
			</linearGradient>
			<path class="st4" d="M86.6,60.8H58.2c-0.3,0-0.5-0.2-0.5-0.5s0.2-0.5,0.5-0.5h28.4c0.3,0,0.5,0.2,0.5,0.5S86.9,60.8,86.6,60.8z"
				/>
			<path class="st5" d="M56.5,60.8h-4c-0.3,0-0.5-0.2-0.5-0.5s0.2-0.5,0.5-0.5h4c0.3,0,0.5,0.2,0.5,0.5C57,60.5,56.7,60.8,56.5,60.8
				z"/>
			<path class="st1" d="M64.3,85l0.9-0.8c0.4-0.3,0.5-0.5,0.5-0.8c0-0.3-0.2-0.5-0.5-0.5c0,0,0,0,0,0c-0.3,0-0.5,0.2-0.7,0.4
				l-0.2-0.2c0.2-0.3,0.5-0.5,0.9-0.5c0.4,0,0.7,0.3,0.8,0.7c0,0,0,0,0,0l0,0c0,0.4-0.2,0.6-0.6,1L64.7,85H66v0.3h-1.7V85z"/>
			<path class="st1" d="M66.7,84L66.7,84c-0.1-0.6,0.3-1.1,0.8-1.3c0.6-0.1,1.1,0.3,1.3,0.8c0,0.1,0,0.3,0,0.4l0,0
				c0.1,0.6-0.4,1.2-1,1.3c-0.6,0-1.1-0.5-1.1-1.2C66.7,84.1,66.7,84,66.7,84z M68.5,84L68.5,84c0-0.5-0.3-1-0.8-1S67,83.5,67,84
				l0,0c0,0.6,0.3,1,0.8,1S68.5,84.5,68.5,84z"/>
			<path class="st1" d="M69.9,83l-0.5,0.2l-0.1-0.2l0.6-0.2h0.2v2.5h-0.3V83z"/>
			<path class="st1" d="M71,84.6L71,84.6c0-0.3,0.2-0.5,0.5-0.6c-0.2-0.1-0.4-0.3-0.4-0.6l0,0c0.1-0.5,0.6-0.8,1.1-0.6
				c0.3,0.1,0.6,0.3,0.6,0.6l0,0c0,0.3-0.2,0.5-0.4,0.6c0.3,0.1,0.5,0.3,0.5,0.6l0,0c0,0.4-0.4,0.7-0.9,0.7S71,85,71,84.6z
				 M72.6,84.6L72.6,84.6c0-0.3-0.3-0.5-0.7-0.5s-0.7,0.2-0.7,0.5l0,0c0,0.3,0.3,0.5,0.7,0.5S72.6,84.8,72.6,84.6L72.6,84.6z
				 M72.5,83.4L72.5,83.4c0-0.3-0.2-0.4-0.6-0.4s-0.6,0.2-0.6,0.4l0,0c0,0.3,0.3,0.4,0.6,0.4S72.5,83.7,72.5,83.4L72.5,83.4z"/>
			<path class="st1" d="M45.7,83l-0.5,0.2l-0.1-0.2l0.6-0.2h0.2v2.5h-0.3L45.7,83z"/>
			<path class="st1" d="M46.8,85l0.2-0.2c0.2,0.2,0.4,0.2,0.6,0.3c0.4,0,0.8-0.4,0.7-1.1c-0.1,0.3-0.4,0.4-0.7,0.4
				c-0.4,0-0.8-0.3-0.9-0.7c0,0,0,0,0-0.1l0,0c0-0.5,0.4-0.8,0.9-0.8c0,0,0,0,0,0c0.2,0,0.5,0.1,0.7,0.3c0.2,0.3,0.4,0.6,0.3,1l0,0
				c0,0.8-0.4,1.3-1,1.3C47.3,85.3,47,85.2,46.8,85z M48.3,83.6L48.3,83.6c0-0.3-0.4-0.6-0.7-0.5c-0.3,0-0.5,0.3-0.5,0.5l0,0
				c0,0.3,0.3,0.6,0.6,0.6c0,0,0,0,0,0C48,84.1,48.3,83.9,48.3,83.6C48.3,83.5,48.3,83.5,48.3,83.6L48.3,83.6z"/>
			<path class="st1" d="M49.3,84.6L49.3,84.6c0-0.3,0.2-0.5,0.5-0.6c-0.2-0.1-0.4-0.3-0.4-0.6l0,0c0.1-0.5,0.6-0.7,1.1-0.6
				c0.3,0.1,0.5,0.3,0.6,0.6l0,0c0,0.3-0.2,0.5-0.4,0.6c0.3,0.1,0.5,0.3,0.5,0.6l0,0c0,0.4-0.4,0.7-0.9,0.7S49.3,85,49.3,84.6z
				 M50.9,84.6L50.9,84.6c0-0.3-0.3-0.5-0.7-0.5s-0.7,0.2-0.7,0.5l0,0c0,0.3,0.2,0.5,0.7,0.5S50.9,84.8,50.9,84.6L50.9,84.6z
				 M50.8,83.4L50.8,83.4c0-0.3-0.3-0.4-0.6-0.4s-0.6,0.2-0.6,0.4l0,0c0,0.3,0.3,0.4,0.6,0.4S50.8,83.7,50.8,83.4L50.8,83.4z"/>
			<path class="st1" d="M51.8,84.8l0.2-0.2c0.2,0.2,0.4,0.4,0.7,0.4c0.3,0,0.5-0.2,0.5-0.5c0,0,0,0,0,0l0,0c0-0.3-0.3-0.5-0.7-0.5
				h-0.2l-0.1-0.2l0.8-0.9H52v-0.3h1.6v0.2l-0.8,0.9c0.4,0,0.8,0.3,0.8,0.7l0,0c0,0.4-0.4,0.8-0.8,0.8c0,0,0,0,0,0
				C52.4,85.3,52,85.1,51.8,84.8z"/>
			
				<linearGradient id="SVGID_4_" gradientUnits="userSpaceOnUse" x1="74.3483" y1="9.513" x2="24.7808" y2="95.366" gradientTransform="matrix(1 0 0 -1 0 102)">
				<stop  offset="0" style="stop-color:#E2AED1"/>
				<stop  offset="1" style="stop-color:#5CC3E0"/>
			</linearGradient>
			<path class="st6" d="M49.6,99.1C22.2,99.1,0,76.9,0,49.6S22.2,0,49.6,0s49.6,22.2,49.6,49.6C99.1,76.9,76.9,99.1,49.6,99.1z
				 M49.6,1C22.7,1,1,22.7,1,49.6s21.7,48.6,48.6,48.6s48.6-21.7,48.6-48.6l0,0C98.1,22.8,76.4,1,49.6,1z"/>
			
				<linearGradient id="SVGID_5_" gradientUnits="userSpaceOnUse" x1="21.4704" y1="31.7825" x2="41.2725" y2="51.5846" gradientTransform="matrix(1 0 0 -1 0 102)">
				<stop  offset="0" style="stop-color:#454D9C"/>
				<stop  offset="1" style="stop-color:#5CC3E0"/>
			</linearGradient>
			<path class="st7" d="M42.4,66.7c-1.7,0-3.4-0.6-4.8-1.5c-3.2-1.7-8-4.3-25.3-4.4c-0.3,0-0.5-0.2-0.5-0.5c0-0.3,0.2-0.5,0.5-0.5
				l0,0c17.6,0.1,22.5,2.8,25.8,4.5c1.3,0.9,2.8,1.3,4.3,1.4c2.9,0,5.3-2.4,5.3-5.3s-2.4-5.3-5.3-5.3c-1.3,0-2.6,0.6-3.4,1.7
				c-0.8,1-1.1,2.2-0.9,3.5c0.1,0.3-0.1,0.5-0.4,0.6c0,0,0,0,0,0c-0.3,0.1-0.5-0.1-0.6-0.4c-0.3-1.5,0.1-3.1,1.1-4.3
				c1-1.3,2.6-2,4.2-2.1c3.5,0,6.3,2.8,6.3,6.3S45.8,66.6,42.4,66.7z"/>
			<path class="st5" d="M49.6,67.3c-0.3,0-0.5-0.2-0.5-0.5s0.2-0.5,0.5-0.5c2.1,0,3.2-3,4.4-5.9c1.3-3.2,2.5-6.5,5.3-6.5
				c0.3,0,0.5,0.2,0.5,0.5c0,0.3-0.2,0.5-0.5,0.5c-2.1,0-3.2,3-4.4,5.9C53.7,64,52.4,67.3,49.6,67.3z"/>
		</g>
	</g>
</g>
</svg>
