<svg xmlns="http://www.w3.org/2000/svg" viewBox="0 0 262.72 266.72"><defs><style>.cls-1,.cls-6{fill:none;stroke:#231f20;stroke-miterlimit:10;}.cls-1{stroke-width:4px;}.cls-2,.cls-8{font-size:28px;}.cls-2,.cls-7,.cls-8,.cls-9{fill:#231f20;}.cls-2{font-family:GothamRounded-Bold, Gotham Rounded;font-weight:700;}.cls-3{letter-spacing:-0.03em;}.cls-4{letter-spacing:0em;}.cls-5{letter-spacing:-0.04em;}.cls-6{stroke-linecap:round;stroke-width:12px;}.cls-7{font-size:15px;font-family:GothamRounded-Medium, Gotham Rounded;font-weight:500;}.cls-8{font-family:Nickainley-Normal, Nickainley;}</style></defs><title>metodologia_black</title><g id="Layer_2" data-name="Layer 2"><g id="Layer_1-2" data-name="Layer 1"><circle class="cls-1" cx="131.36" cy="135.36" r="129.36"/><text class="cls-2" transform="translate(20.02 147.51)">ME<tspan class="cls-3" x="43.06" y="0">T</tspan><tspan class="cls-4" x="60.37" y="0">ODO</tspan><tspan class="cls-5" x="129.86" y="0">L</tspan><tspan x="146.08" y="0">OGÍA</tspan></text><path class="cls-6" d="M131.36,6a129.11,129.11,0,0,1,101.2,48.79"/><text class="cls-7" transform="matrix(1, 0.02, -0.02, 1, 129.48, 34.12)">1</text><text class="cls-7" transform="translate(135.25 34.13) rotate(4.78)">5</text><text class="cls-7" transform="translate(144.31 34.78) rotate(10.87)">%</text><text class="cls-7" transform="translate(156.56 37.3) rotate(15.65)"> </text><text class="cls-7" transform="translate(160.74 38.31) rotate(20.2)">N</text><text class="cls-7" transform="translate(171.61 42.35) rotate(26.23)">o</text><text class="cls-7" transform="translate(180.25 46.63) rotate(31.33)">c</text><text class="cls-7" transform="translate(187.39 51.05) rotate(34.87)">i</text><text class="cls-7" transform="translate(190.83 53.32) rotate(38.76)">o</text><text class="cls-7" transform="translate(198.33 59.35) rotate(44.02)">n</text><text class="cls-7" transform="translate(204.86 65.65) rotate(48.98)">a</text><text class="cls-7" transform="matrix(0.61, 0.79, -0.79, 0.61, 210.49, 72.23)">l</text><text class="cls-7" transform="matrix(0.59, 0.81, -0.81, 0.59, 37.22, 198.72)">8</text><text class="cls-7" transform="matrix(0.66, 0.75, -0.75, 0.66, 43.2, 206.78)">5</text><text class="cls-7" transform="matrix(0.73, 0.68, -0.68, 0.73, 49.79, 214.34)">%</text><text class="cls-7" transform="matrix(0.79, 0.62, -0.62, 0.79, 59.67, 223.21)"> </text><text class="cls-7" transform="matrix(0.83, 0.56, -0.56, 0.83, 63.49, 226.3)">F</text><text class="cls-7" transform="matrix(0.87, 0.49, -0.49, 0.87, 72.14, 232.16)">u</text><text class="cls-7" transform="matrix(0.91, 0.41, -0.41, 0.91, 80.78, 236.95)">n</text><text class="cls-7" transform="translate(89.81 240.96) rotate(19.31)">c</text><text class="cls-7" transform="matrix(0.96, 0.27, -0.27, 0.96, 98.29, 243.84)">i</text><text class="cls-7" transform="translate(102.81 245.21) rotate(12.03)">o</text><text class="cls-7" transform="translate(113.06 247.35) rotate(6.86)">n</text><text class="cls-7" transform="translate(122.85 248.49) rotate(2.04)">a</text><text class="cls-7" transform="matrix(1, -0.02, 0.02, 1, 132.03, 248.74)">l</text><text class="cls-8" transform="translate(58.48 184.71)">Learn by doing</text><path class="cls-9" d="M124.9,61.24a3.19,3.19,0,0,0-6.05,0l-12.78,39.34a.39.39,0,0,0,0,.15.45.45,0,0,0,.45.45h7.25A11.27,11.27,0,0,0,124,94.57h0a1,1,0,0,0,.08-.38.89.89,0,0,0-.38-.73h0q-4.39-3.18-8.36-6.52h0a.66.66,0,0,1-.23-.5.68.68,0,0,1,.68-.68h.06c3.42.36,6.94.6,10.53.71a.45.45,0,0,0,.43-.32l3.08-9.49-5-15.41Z"/><path class="cls-9" d="M142.51,60.52a4.5,4.5,0,0,0-4.27-3.06H124.39a.22.22,0,0,0-.23.22.23.23,0,0,0,.12.2h0a4.56,4.56,0,0,1,2.15,2.55l8.35,25.71h0a.45.45,0,0,0,.43.32c3.59-.11,7.11-.35,10.53-.7h.06a.68.68,0,0,1,.67.68.7.7,0,0,1-.23.51c-2.69,2.27-5.55,4.5-8.54,6.65a.68.68,0,0,0-.29.55.64.64,0,0,0,0,.2h0l1.06,3.25h0a17.58,17.58,0,0,0,16.73,12.16h2.66a.45.45,0,0,0,.45-.45.68.68,0,0,0,0-.14Z"/></g></g></svg>