<svg xmlns="http://www.w3.org/2000/svg" viewBox="0 0 56.69 56.69"><defs><style>.cls-1{fill:#fff;}</style></defs><title>Logo_blanco</title><g id="Layer_2" data-name="Layer 2"><g id="Layer_1-2" data-name="Layer 1"><path class="cls-1" d="M13.89,4.1a3.45,3.45,0,0,1,6.55,0h0l5.43,16.71L22.53,31.1h0a.47.47,0,0,1-.47.34q-5.83-.18-11.41-.76h-.06a.73.73,0,0,0-.74.73.75.75,0,0,0,.25.55h0C13,34.37,16,36.74,19.16,39h0a1,1,0,0,1,.41.79,1.07,1.07,0,0,1-.08.41h0A12.23,12.23,0,0,1,8.35,47.4H.49A.48.48,0,0,1,0,46.92a.51.51,0,0,1,0-.17L13.89,4.1Z"/><path class="cls-1" d="M56.67,56.05,39.54,3.33A4.88,4.88,0,0,0,34.91,0h-15a.25.25,0,0,0-.24.25.23.23,0,0,0,.13.21h0A4.92,4.92,0,0,1,22.1,3.23h0l9,27.87h0a.47.47,0,0,0,.47.34q5.83-.18,11.41-.76h.06a.73.73,0,0,1,.74.73.75.75,0,0,1-.25.55h0q-4.39,3.7-9.27,7.22a.73.73,0,0,0-.3.59A.66.66,0,0,0,34,40h0l1.14,3.53h0A19.08,19.08,0,0,0,53.32,56.69H56.2a.49.49,0,0,0,.49-.49A.77.77,0,0,0,56.67,56.05Z"/></g></g></svg>