<svg xmlns="http://www.w3.org/2000/svg" xmlns:xlink="http://www.w3.org/1999/xlink" viewBox="0 0 175.97 135.51"><defs><style>.cls-1,.cls-2{fill:none;stroke-linecap:round;stroke-miterlimit:10;}.cls-1{stroke:url(#Degradado_sin_nombre_14);}.cls-2{stroke:url(#Degradado_sin_nombre_14-2);}.cls-3{fill:#0d436e;}.cls-4{fill:#f05244;}.cls-5{fill:url(#Degradado_sin_nombre_62);}.cls-6{fill:url(#Degradado_sin_nombre_60);}.cls-7{fill:#fff;}</style><linearGradient id="Degradado_sin_nombre_14" x1="119.29" y1="104.92" x2="69.66" y2="18.97" gradientUnits="userSpaceOnUse"><stop offset="0" stop-color="#4cc6df"/><stop offset="1" stop-color="#dda5cb"/></linearGradient><linearGradient id="Degradado_sin_nombre_14-2" x1="99.23" y1="116.77" x2="49.61" y2="30.82" xlink:href="#Degradado_sin_nombre_14"/><linearGradient id="Degradado_sin_nombre_62" x1="108.45" y1="78.3" x2="64" y2="1.31" gradientUnits="userSpaceOnUse"><stop offset="0" stop-color="#4cc6df" stop-opacity="0"/><stop offset="1" stop-color="#dda5cb"/></linearGradient><linearGradient id="Degradado_sin_nombre_60" x1="104.41" y1="134.42" x2="60.8" y2="58.88" gradientUnits="userSpaceOnUse"><stop offset="0" stop-color="#4cc6df"/><stop offset="1" stop-color="#dda5cb" stop-opacity="0"/></linearGradient></defs><title>Asset 1</title><g id="Layer_2" data-name="Layer 2"><g id="Capa_1" data-name="Capa 1"><path class="cls-1" d="M132.78,57.44A49.23,49.23,0,0,0,41,45"/><path class="cls-2" d="M36.94,80a49.25,49.25,0,0,0,90.84,11.49"/><path class="cls-3" d="M29.82,46.94a8.88,8.88,0,0,1,1.18,0,4.53,4.53,0,0,1,1.29.22,2.88,2.88,0,0,1,1,.61,1.31,1.31,0,0,1,.44,1q0,.58-.81,1a8.49,8.49,0,0,1-1.93.69c-.74.19-1.52.35-2.32.49l-2,.36-9.23,1.88c.13.83.25,1.83.33,3s.15,2.36.21,3.56.09,2.37.1,3.48,0,2,0,2.71c0,.25,0,.69,0,1.3s0,1.33,0,2.14,0,1.64-.08,2.52-.11,1.68-.21,2.42a12.11,12.11,0,0,1-.37,1.84q-.23.75-.6.81a1,1,0,0,1-.6-.08,3.51,3.51,0,0,1-.6-.33,4,4,0,0,1-.87-.76A3.76,3.76,0,0,1,14.33,74c-.05-.82-.07-1.7,0-2.64s.08-1.88.17-2.81.12-1.7.12-2.34q0-3.27.12-5.43c.06-1.43.12-2.6.19-3.53a21.87,21.87,0,0,1,.25-2.19,14.45,14.45,0,0,1,.31-1.43q-3.31.68-6.61,1.44c-2.19.51-4.44,1-6.73,1.37a2.7,2.7,0,0,1-1.57-.07C.18,56.22,0,56,0,55.8a1.26,1.26,0,0,1,.66-1.09A5.77,5.77,0,0,1,2.28,54a18.57,18.57,0,0,1,2-.46,12.1,12.1,0,0,0,1.84-.45Q9,52.31,12,51.37t5.9-1.79q3-.86,5.95-1.56A51.34,51.34,0,0,1,29.82,46.94Z"/><path class="cls-3" d="M24.73,56.16a1.89,1.89,0,0,1,.54-1.48,2,2,0,0,1,1.16-.56,1.58,1.58,0,0,1,1.09.26.94.94,0,0,1,.36,1,10.41,10.41,0,0,0-.19,1.48c-.07.79-.16,1.74-.27,2.86s-.22,2.36-.31,3.7-.19,2.67-.27,4c.33-.77.7-1.53,1.1-2.28s.71-1.29.93-1.63a2.64,2.64,0,0,1,.95-.81,3.46,3.46,0,0,1,1.2-.42,1.37,1.37,0,0,1,.93.12c.24.14.29.42.15.83a12.05,12.05,0,0,0-.29,1.6c-.11.81-.2,1.63-.27,2.47a20.16,20.16,0,0,0-.08,2.25c0,.66.09,1,.23,1s.37-.26.64-.7a15.17,15.17,0,0,0,.8-1.53,18.77,18.77,0,0,0,.75-1.79c.22-.6.39-1.09.5-1.47a1,1,0,0,1,.39-.57,1,1,0,0,1,.52-.17.52.52,0,0,1,.41.19.7.7,0,0,1,.09.59,15.81,15.81,0,0,1-.54,1.73,23,23,0,0,1-1,2.33,12.48,12.48,0,0,1-1.36,2.19,3.81,3.81,0,0,1-1.56,1.29,1.9,1.9,0,0,1-1.41.08,1.6,1.6,0,0,1-.82-.8,4.08,4.08,0,0,1-.4-1.38,9.64,9.64,0,0,1-.08-1.6,11.23,11.23,0,0,1,.12-1.48,6.56,6.56,0,0,1,.23-1,2.66,2.66,0,0,0-.58,1c-.25.61-.5,1.29-.76,2s-.51,1.5-.73,2.22a9.11,9.11,0,0,0-.37,1.6.37.37,0,0,1,0,.18v.41a1.2,1.2,0,0,1-.48,1,2.34,2.34,0,0,1-1,.52,1.59,1.59,0,0,1-1-.08c-.29-.12-.41-.4-.35-.82.05-.7.12-1.61.21-2.71s.16-2.29.24-3.55.17-2.53.25-3.83.15-2.5.21-3.62.1-2.08.14-2.9S24.73,56.46,24.73,56.16Z"/><path class="cls-3" d="M41.25,63.85a3.51,3.51,0,0,1-.83.89,7.72,7.72,0,0,1-1.07.67,7.84,7.84,0,0,1-1.18.47c-.4.13-.76.23-1.06.31A15.1,15.1,0,0,0,37,67.92a7.49,7.49,0,0,0,.08,1.47,3.31,3.31,0,0,0,.33,1.06.82.82,0,0,0,.64.47,1.58,1.58,0,0,0,1.16-.39,6.12,6.12,0,0,0,1.2-1.19A13.41,13.41,0,0,0,41.5,67.7c.36-.62.68-1.2,1-1.76s.51-1.07.71-1.54.31-.79.37-1a1,1,0,0,1,.91-.74.49.49,0,0,1,.42.19.69.69,0,0,1,.08.59c-.06.17-.15.51-.29,1a16.58,16.58,0,0,1-.6,1.74,20.63,20.63,0,0,1-1,2.06,11.53,11.53,0,0,1-1.34,2A9.5,9.5,0,0,1,40,72a5.56,5.56,0,0,1-2.26.93,2.39,2.39,0,0,1-2.32-.62,4.83,4.83,0,0,1-1.12-2.42,11.88,11.88,0,0,1-.1-3.35A16.22,16.22,0,0,1,34.89,63a11.22,11.22,0,0,1,1.41-2.86,3,3,0,0,1,1.89-1.36,2.21,2.21,0,0,1,1.76.37,3.69,3.69,0,0,1,1.18,1.39,4.75,4.75,0,0,1,.47,1.78A2.35,2.35,0,0,1,41.25,63.85Zm-2.57-3.24a2.43,2.43,0,0,0-.62,1.17,21,21,0,0,0-.62,2.37,4.31,4.31,0,0,0,.91-.27,1.24,1.24,0,0,0,.67-.55,1.68,1.68,0,0,0,.2-.76,4.5,4.5,0,0,0,0-1,2.83,2.83,0,0,0-.2-.79C38.9,60.61,38.79,60.54,38.68,60.61Z"/><path class="cls-3" d="M51.48,51.44A1.9,1.9,0,0,1,52,50a2.07,2.07,0,0,1,1.16-.56,1.61,1.61,0,0,1,1.1.27.93.93,0,0,1,.35,1c0,.14-.07.46-.13,1s-.11,1.11-.16,1.86-.13,1.56-.21,2.47-.16,1.86-.25,2.84a3.94,3.94,0,0,1,.87-.81,2.92,2.92,0,0,1,1.2-.46A2.25,2.25,0,0,1,57.9,58,3.7,3.7,0,0,1,59,59.77a7.38,7.38,0,0,1,.23,2.53A9.09,9.09,0,0,1,58.6,65a6.69,6.69,0,0,1-1.4,2.24A3.92,3.92,0,0,1,55,68.38a1.93,1.93,0,0,1-1.74-.44v1.2a1.34,1.34,0,0,1-.51,1,2.47,2.47,0,0,1-1,.51,1.56,1.56,0,0,1-1-.07.75.75,0,0,1-.4-.82c.06-.7.13-1.6.21-2.71s.17-2.29.25-3.54.16-2.54.25-3.84.15-2.5.2-3.62.11-2.08.15-2.9S51.48,51.75,51.48,51.44Zm2.07,12.31a4.52,4.52,0,0,0-.06.53c0,.18,0,.37,0,.56a3.58,3.58,0,0,0,.35,1.33.86.86,0,0,0,.85.49c.25,0,.48-.17.7-.54a5.22,5.22,0,0,0,.56-1.38,14.31,14.31,0,0,0,.36-1.8,17.62,17.62,0,0,0,.14-1.83,6.36,6.36,0,0,0-.1-1.41c-.09-.37-.21-.57-.38-.6a1,1,0,0,0-.84.4,4.28,4.28,0,0,0-.71,1.14,9.9,9.9,0,0,0-.54,1.54A12,12,0,0,0,53.55,63.75Z"/><path class="cls-3" d="M67.76,59.17a3.39,3.39,0,0,1-.83.9,6.49,6.49,0,0,1-1.08.66,8.58,8.58,0,0,1-1.18.48c-.4.13-.75.23-1.05.31a13.19,13.19,0,0,0-.15,1.72,8.41,8.41,0,0,0,.08,1.48,3.4,3.4,0,0,0,.33,1.06.86.86,0,0,0,.65.47,1.69,1.69,0,0,0,1.16-.39,7.07,7.07,0,0,0,1.2-1.19A13.92,13.92,0,0,0,68,63c.35-.61.67-1.2.95-1.76s.51-1.07.7-1.53a8.72,8.72,0,0,0,.38-1,1,1,0,0,1,.39-.56A.93.93,0,0,1,71,58a.5.5,0,0,1,.41.2.64.64,0,0,1,.08.58c0,.18-.15.52-.29,1a16.58,16.58,0,0,1-.6,1.74c-.26.65-.58,1.34-1,2.05a10.78,10.78,0,0,1-1.35,2,8.88,8.88,0,0,1-1.8,1.66,5.4,5.4,0,0,1-2.25.94,2.37,2.37,0,0,1-2.32-.63,4.63,4.63,0,0,1-1.12-2.41,11.5,11.5,0,0,1-.11-3.35,16.58,16.58,0,0,1,.75-3.51,10.46,10.46,0,0,1,1.41-2.86,3,3,0,0,1,1.88-1.37,2.24,2.24,0,0,1,1.76.38,3.58,3.58,0,0,1,1.18,1.38,4.58,4.58,0,0,1,.48,1.78A2.44,2.44,0,0,1,67.76,59.17Zm-2.57-3.23a2.43,2.43,0,0,0-.62,1.17A21.35,21.35,0,0,0,64,59.47a4.63,4.63,0,0,0,.91-.26,1.3,1.3,0,0,0,.66-.55,1.86,1.86,0,0,0,.21-.76,5.24,5.24,0,0,0,0-1,2.43,2.43,0,0,0-.21-.79C65.4,55.93,65.3,55.87,65.19,55.94Z"/><path class="cls-3" d="M76.37,54.05a1.14,1.14,0,0,1,1.08-.19,1.6,1.6,0,0,1,.83.66,1.46,1.46,0,0,1,.18,1,1.27,1.27,0,0,1-.84.91l-1.39.58c-.48.2-.94.37-1.37.53l-1.1.42a5.19,5.19,0,0,1-.58.21,6.8,6.8,0,0,1,.89.07,6.71,6.71,0,0,1,1.72.44,5,5,0,0,1,1.66,1.1,2.76,2.76,0,0,1,.75,2.06,3.42,3.42,0,0,1-1,2.47,6.48,6.48,0,0,1-2.32,1.55,5.13,5.13,0,0,1-1.59.28,3,3,0,0,1-1.37-.27A2.29,2.29,0,0,1,71,65a3,3,0,0,1-.38-1.57,1.88,1.88,0,0,1,.52-1.33,3,3,0,0,1,1.12-.78,1.64,1.64,0,0,1,1.08-.07c.31.11.45.38.39.8a2.86,2.86,0,0,0,.12,1.85c.23.35.45.5.67.46a1.13,1.13,0,0,0,.68-.41,1.49,1.49,0,0,0,.31-.82,2.54,2.54,0,0,0-.16-1,3.7,3.7,0,0,0-.67-1.1,3.32,3.32,0,0,0-.93-.81,6.11,6.11,0,0,0-1.12-.55,5.94,5.94,0,0,0-1.09-.3,8.33,8.33,0,0,0-.87-.12.62.62,0,0,1-.56-.42,1.85,1.85,0,0,1-.17-.88,1.78,1.78,0,0,1,.33-.93,1.4,1.4,0,0,1,.93-.56,11.18,11.18,0,0,0,2.68-.86A12.36,12.36,0,0,0,76.37,54.05Z"/><path class="cls-3" d="M80.1,50.66c0-.19,0-.38,0-.56s0-.34,0-.48a1.89,1.89,0,0,1,.54-1.48,2.07,2.07,0,0,1,1.16-.56,1.56,1.56,0,0,1,1.1.26,1,1,0,0,1,.35,1L83.08,50l1-.18a1.72,1.72,0,0,1,1.13.07.6.6,0,0,1,.36.52.87.87,0,0,1-.38.63,2.13,2.13,0,0,1-1,.43l-1.24.22c-.11,1-.21,2.12-.29,3.34s-.14,2.36-.17,3.42,0,2,0,2.65.18,1,.38,1,.39-.32.68-.87.58-1.17.89-1.87.58-1.39.83-2,.41-1.12.49-1.35a.84.84,0,0,1,.38-.57,1,1,0,0,1,.56-.16.64.64,0,0,1,.45.21.54.54,0,0,1,.06.59c-.16.58-.38,1.34-.66,2.27a20.32,20.32,0,0,1-1,2.75A11.45,11.45,0,0,1,84,63.43,3.46,3.46,0,0,1,82,64.71a1.32,1.32,0,0,1-1.28-.4,3.51,3.51,0,0,1-.75-1.51,12.45,12.45,0,0,1-.31-2.28c0-.88,0-1.79,0-2.73s.09-1.9.17-2.87.15-1.85.21-2.66l-1,.17a1.54,1.54,0,0,1-1-.07.6.6,0,0,1-.38-.47.75.75,0,0,1,.32-.59A2.05,2.05,0,0,1,79,50.86Z"/><path class="cls-4" d="M50.56,80.34a1.44,1.44,0,0,1,.4-1.1,1.52,1.52,0,0,1,.88-.41,1.17,1.17,0,0,1,.83.19.69.69,0,0,1,.26.75c0,.25-.11.75-.2,1.48s-.18,1.57-.26,2.51-.16,1.93-.22,2.94-.09,2-.11,2.8a14.84,14.84,0,0,0,.1,2.07c.07.52.21.77.41.74s.29-.28.51-.77.43-1,.64-1.65.42-1.2.6-1.77.31-1,.37-1.13a.58.58,0,0,1,.27-.41.71.71,0,0,1,.42-.12.5.5,0,0,1,.34.15.43.43,0,0,1,0,.44c-.12.43-.28,1-.49,1.8a18.54,18.54,0,0,1-.77,2.32,9.36,9.36,0,0,1-1.1,2.06A2.37,2.37,0,0,1,52,94.3a1.09,1.09,0,0,1-1.25-.65,6.43,6.43,0,0,1-.56-2.13,20.08,20.08,0,0,1-.11-3c0-1.11.08-2.19.17-3.26s.16-2,.24-2.93S50.56,80.79,50.56,80.34Z"/><path class="cls-4" d="M59.86,86.16a2.73,2.73,0,0,1-.61.66,5.34,5.34,0,0,1-.8.49,6.33,6.33,0,0,1-.87.35c-.3.1-.56.17-.79.23a11.57,11.57,0,0,0-.1,1.28,5.26,5.26,0,0,0,.06,1.09,2.54,2.54,0,0,0,.24.79.61.61,0,0,0,.48.35,1.27,1.27,0,0,0,.86-.29,5.25,5.25,0,0,0,.89-.88A10.78,10.78,0,0,0,60,89c.27-.46.51-.89.71-1.31s.38-.79.52-1.13a6.21,6.21,0,0,0,.28-.74.71.71,0,0,1,.29-.42.67.67,0,0,1,.38-.13.41.41,0,0,1,.31.14.52.52,0,0,1,.06.44c0,.13-.11.38-.21.76a13.61,13.61,0,0,1-.45,1.29c-.19.48-.43,1-.7,1.52a8.26,8.26,0,0,1-1,1.49,6.88,6.88,0,0,1-1.34,1.24,4.17,4.17,0,0,1-1.67.69,1.76,1.76,0,0,1-1.72-.47,3.52,3.52,0,0,1-.83-1.78,8.85,8.85,0,0,1-.07-2.49,12.39,12.39,0,0,1,.55-2.6,8,8,0,0,1,1-2.11,2.26,2.26,0,0,1,1.4-1,1.67,1.67,0,0,1,1.3.28,2.74,2.74,0,0,1,.88,1A3.49,3.49,0,0,1,60.12,85,1.84,1.84,0,0,1,59.86,86.16ZM58,83.76a1.8,1.8,0,0,0-.46.86A14.25,14.25,0,0,0,57,86.38a3.41,3.41,0,0,0,.67-.2.88.88,0,0,0,.49-.41,1.16,1.16,0,0,0,.16-.56,3.47,3.47,0,0,0,0-.72,2,2,0,0,0-.15-.58C58.12,83.75,58,83.71,58,83.76Z"/><path class="cls-4" d="M65.17,82.21a1.25,1.25,0,0,1,.75.27,2.7,2.7,0,0,1,.54.58,1.1,1.1,0,0,1,.61-.41,1.43,1.43,0,0,1,.71,0,1,1,0,0,1,.55.33.81.81,0,0,1,.15.66c-.08.39-.16.86-.23,1.43s-.12,1.1-.14,1.62a7.53,7.53,0,0,0,0,1.31c0,.36.16.52.32.49s.27-.21.45-.55.34-.75.52-1.21.33-.92.47-1.38a7.63,7.63,0,0,0,.28-1,.75.75,0,0,1,.31-.46.64.64,0,0,1,.41-.14.47.47,0,0,1,.34.17.44.44,0,0,1,0,.45c0,.13-.1.37-.2.73s-.21.75-.35,1.18-.31.89-.5,1.36a7.47,7.47,0,0,1-.68,1.29,3.87,3.87,0,0,1-.86.93,1.46,1.46,0,0,1-1,.31,1.57,1.57,0,0,1-1.29-.85,5.8,5.8,0,0,1-.67,1.45,3.21,3.21,0,0,1-1.1,1.07,2.14,2.14,0,0,1-1.14.29,1.87,1.87,0,0,1-1.41-.85,4.74,4.74,0,0,1-.71-1.87,8.43,8.43,0,0,1,0-2.36A8.27,8.27,0,0,1,62,84.68a5,5,0,0,1,1.28-1.77A2.75,2.75,0,0,1,65.17,82.21Zm.8,3a5.08,5.08,0,0,0-.23-1c-.12-.31-.29-.46-.51-.46a1,1,0,0,0-.87.5,4.26,4.26,0,0,0-.63,1.3,8.5,8.5,0,0,0-.36,1.67,9.56,9.56,0,0,0-.06,1.67,4.16,4.16,0,0,0,.25,1.29q.19.51.6.51t.75-.57a5.76,5.76,0,0,0,.61-1.36,11.1,11.1,0,0,0,.4-1.78A7.32,7.32,0,0,0,66,85.17Z"/><path class="cls-4" d="M71.15,84.53a.63.63,0,0,1-.26.4.66.66,0,0,1-.41.14.44.44,0,0,1-.34-.16c-.08-.1-.08-.24,0-.44l.18-.56a.83.83,0,0,1-.3-.59,1.46,1.46,0,0,1,.12-.71,2.05,2.05,0,0,1,.44-.63,1.33,1.33,0,0,1,.66-.35c.43-.07.67.05.71.35a2.21,2.21,0,0,1-.19,1.1,1.09,1.09,0,0,0,.6-.08,7.7,7.7,0,0,1,.78-.21.91.91,0,0,1,.62,0c.16.07.2.3.12.68s-.17.84-.26,1.37-.16,1-.2,1.49a5.76,5.76,0,0,0,0,1.18c0,.32.15.46.34.43s.28-.23.47-.62.4-.84.6-1.35.39-1,.55-1.52a7.88,7.88,0,0,0,.31-1.14.75.75,0,0,1,.26-.48.78.78,0,0,1,.42-.18.38.38,0,0,1,.35.12.58.58,0,0,1,.11.46c0,.1-.08.33-.16.68a12.07,12.07,0,0,1-.34,1.2c-.14.44-.31.91-.52,1.41a8.44,8.44,0,0,1-.73,1.4,5.53,5.53,0,0,1-1,1.11,2.22,2.22,0,0,1-1.17.52,1,1,0,0,1-1.07-.47,3.4,3.4,0,0,1-.43-1.42,7.89,7.89,0,0,1,0-1.87A10,10,0,0,1,71.89,84l-.31.08-.31,0A1.27,1.27,0,0,0,71.15,84.53Z"/><path class="cls-4" d="M75.81,81.84a1.67,1.67,0,0,1,.52-1,2,2,0,0,1,.88-.49,1.14,1.14,0,0,1,.78,0,.54.54,0,0,1,.28.63c0,.29-.1.62-.17,1s-.14.74-.2,1.1-.11.72-.14,1a4.14,4.14,0,0,0,0,.78,11.63,11.63,0,0,1,.56-1.58A10.74,10.74,0,0,1,79,82.11a2.08,2.08,0,0,1,.68-.59,2,2,0,0,1,.83-.3.88.88,0,0,1,.64.11c.16.12.2.32.09.6a7.11,7.11,0,0,0-.17.89A9.61,9.61,0,0,0,81,84a7.78,7.78,0,0,0,.06,1c0,.29.11.42.21.4s.29-.16.49-.42a8.15,8.15,0,0,0,.62-.92c.2-.35.39-.73.57-1.11a8.47,8.47,0,0,0,.38-1,.61.61,0,0,1,.26-.41.67.67,0,0,1,.38-.13.4.4,0,0,1,.31.14.52.52,0,0,1,.06.44,6.59,6.59,0,0,1-.43,1.24,12.34,12.34,0,0,1-.8,1.58,8.4,8.4,0,0,1-1,1.42A1.92,1.92,0,0,1,81,87a1.36,1.36,0,0,1-1.27-.25,2,2,0,0,1-.51-1,4.39,4.39,0,0,1-.09-1.14,2.2,2.2,0,0,0,0-.72,1,1,0,0,0-.33.49,8.6,8.6,0,0,0-.32.91q-.15.53-.27,1.08a6,6,0,0,0-.16.93,1,1,0,0,1-.41.67,1.77,1.77,0,0,1-.77.34,1.18,1.18,0,0,1-.75-.09.56.56,0,0,1-.31-.62c0-.35,0-.77,0-1.25s0-1-.06-1.54,0-1.07,0-1.58A7.53,7.53,0,0,1,75.81,81.84Z"/><path class="cls-4" d="M86.83,76.19a1.1,1.1,0,0,1-.08.64,1.91,1.91,0,0,1-.41.59,3.29,3.29,0,0,1-.65.5,3.72,3.72,0,0,1-.76.35,3.4,3.4,0,0,1-1.51.11.86.86,0,0,1-.83-.74A1.38,1.38,0,0,1,83,76.41a3.54,3.54,0,0,1,1.42-.88,2.93,2.93,0,0,1,1.6-.14A.93.93,0,0,1,86.83,76.19ZM83.33,81a1.3,1.3,0,0,1,1.23-1.45,1.11,1.11,0,0,1,.79.26.76.76,0,0,1,.25.78c-.08.39-.16.86-.23,1.43s-.12,1.1-.14,1.62a7.53,7.53,0,0,0,0,1.31c0,.36.17.52.35.49s.27-.21.45-.56a10.35,10.35,0,0,0,.5-1.21c.17-.45.32-.91.46-1.37a8.94,8.94,0,0,0,.28-1,.75.75,0,0,1,.31-.46.64.64,0,0,1,.41-.14.51.51,0,0,1,.34.17.46.46,0,0,1,0,.45c0,.13-.1.38-.2.73s-.21.75-.35,1.18-.31.89-.51,1.36a6.52,6.52,0,0,1-.67,1.29,4.25,4.25,0,0,1-.84.93,1.37,1.37,0,0,1-1,.3,1.5,1.5,0,0,1-1.18-.7,3.3,3.3,0,0,1-.41-1.46,13.45,13.45,0,0,1,0-1.9C83.3,82.34,83.33,81.66,83.33,81Z"/><path class="cls-4" d="M87.44,79.79a1.62,1.62,0,0,1,.52-1,2,2,0,0,1,.88-.49,1.14,1.14,0,0,1,.78,0,.55.55,0,0,1,.28.63c-.05.29-.1.62-.17,1s-.14.74-.2,1.11-.11.72-.14,1a4.28,4.28,0,0,0,0,.78,12.54,12.54,0,0,1,.57-1.58,10.74,10.74,0,0,1,.66-1.24,2,2,0,0,1,.68-.59,2.06,2.06,0,0,1,.82-.3.91.91,0,0,1,.65.11q.24.18.09.6a5.64,5.64,0,0,0-.17.89A9.61,9.61,0,0,0,92.6,82a7.78,7.78,0,0,0,.06,1c0,.29.11.42.21.4s.29-.16.49-.42a8.15,8.15,0,0,0,.62-.92A11.51,11.51,0,0,0,94.54,81a8.74,8.74,0,0,0,.39-1,.57.57,0,0,1,.26-.41.67.67,0,0,1,.38-.13.39.39,0,0,1,.31.15.49.49,0,0,1,.06.43,7.41,7.41,0,0,1-.43,1.24,13.79,13.79,0,0,1-.8,1.58,8.4,8.4,0,0,1-1,1.42,2,2,0,0,1-1.07.73,1.38,1.38,0,0,1-1.28-.25,2,2,0,0,1-.5-1,4,4,0,0,1-.1-1.14,2.2,2.2,0,0,0,0-.72,1,1,0,0,0-.32.49,8.6,8.6,0,0,0-.32.91c-.1.35-.19.71-.28,1.08a7.3,7.3,0,0,0-.15.93,1,1,0,0,1-.41.67,1.77,1.77,0,0,1-.77.34,1.25,1.25,0,0,1-.75-.09.56.56,0,0,1-.31-.62q0-.53,0-1.26t-.06-1.53c0-.54,0-1.07,0-1.58A7.53,7.53,0,0,1,87.44,79.79Z"/><path class="cls-4" d="M101.74,77.64c-.11,1-.17,1.91-.19,2.67s0,1.46-.06,2.1a15.79,15.79,0,0,0,1.94-4,.77.77,0,0,1,.29-.46.51.51,0,0,1,.4-.12.41.41,0,0,1,.3.19.61.61,0,0,1,0,.49,14.22,14.22,0,0,1-3.07,5.67c0,.33-.1.67-.17,1s-.16.69-.26,1.06a5.72,5.72,0,0,1-1.4,2.5A4.78,4.78,0,0,1,97.7,90a3.18,3.18,0,0,1-1.74.11,1.51,1.51,0,0,1-1.09-.73,1.9,1.9,0,0,1-.11-1.71,3.91,3.91,0,0,1,1.12-1.47,7.89,7.89,0,0,1,1.68-1.11,8.67,8.67,0,0,1,1.6-.64l.09-.84a2.87,2.87,0,0,1-.66.7,2.45,2.45,0,0,1-1,.43,2.16,2.16,0,0,1-1.79-.33,2.73,2.73,0,0,1-.87-1.47,6,6,0,0,1-.09-2.1,8.17,8.17,0,0,1,.57-2.21,5.75,5.75,0,0,1,1.13-1.79,2.9,2.9,0,0,1,1.63-.92,1.68,1.68,0,0,1,1.07.18,2,2,0,0,1,.89.89,2.28,2.28,0,0,1,.57-.15,1.67,1.67,0,0,1,.55,0,.71.71,0,0,1,.41.26A.75.75,0,0,1,101.74,77.64ZM99,85.58a5.48,5.48,0,0,0-1.65.92,2.37,2.37,0,0,0-.9,1.49c-.06.34,0,.58.17.71a.6.6,0,0,0,.66,0,2.46,2.46,0,0,0,.86-.84A5.65,5.65,0,0,0,98.88,86ZM99,81.83a7.61,7.61,0,0,0,.37-1.6,7.23,7.23,0,0,0,0-1.54,3.2,3.2,0,0,0-.32-1.15c-.16-.31-.37-.47-.61-.46a.91.91,0,0,0-.73.51,5.45,5.45,0,0,0-.55,1.23,8.45,8.45,0,0,0-.32,1.56,6.46,6.46,0,0,0,0,1.52A2.75,2.75,0,0,0,97.21,83a.67.67,0,0,0,.75.34.7.7,0,0,0,.42-.21,1.46,1.46,0,0,0,.27-.38,3.45,3.45,0,0,0,.2-.48C98.92,82.11,99,82,99,81.83Z"/><path class="cls-4" d="M114,76.61a2.94,2.94,0,0,1-.61.66,5,5,0,0,1-.8.49,7.39,7.39,0,0,1-.88.36l-.78.23a11.47,11.47,0,0,0-.11,1.27,5.35,5.35,0,0,0,.07,1.1,2.4,2.4,0,0,0,.24.78.61.61,0,0,0,.48.35,1.19,1.19,0,0,0,.85-.29,5,5,0,0,0,.9-.88,10,10,0,0,0,.82-1.22c.27-.45.5-.89.71-1.31s.38-.79.52-1.13a7.62,7.62,0,0,0,.28-.74.73.73,0,0,1,.29-.42.75.75,0,0,1,.38-.13.39.39,0,0,1,.31.15.5.5,0,0,1,.06.43l-.22.76a11.66,11.66,0,0,1-.44,1.29c-.2.48-.43,1-.71,1.52a8.11,8.11,0,0,1-1,1.5A7.48,7.48,0,0,1,113,82.61a4.17,4.17,0,0,1-1.67.69,1.77,1.77,0,0,1-1.72-.46,3.6,3.6,0,0,1-.83-1.79,8.85,8.85,0,0,1-.07-2.49A11.58,11.58,0,0,1,109.3,76a8.06,8.06,0,0,1,1-2.12,2.24,2.24,0,0,1,1.4-1,1.64,1.64,0,0,1,1.3.27,2.82,2.82,0,0,1,.88,1,3.49,3.49,0,0,1,.35,1.32A1.83,1.83,0,0,1,114,76.61Zm-1.9-2.4a1.72,1.72,0,0,0-.46.87,14.06,14.06,0,0,0-.46,1.75,3.41,3.41,0,0,0,.67-.2.9.9,0,0,0,.49-.4,1.25,1.25,0,0,0,.15-.57,2.89,2.89,0,0,0,0-.72,2,2,0,0,0-.15-.58C112.26,74.21,112.19,74.16,112.11,74.21Z"/><path class="cls-4" d="M120.73,72.63a1.3,1.3,0,0,1,.7-.61,2.21,2.21,0,0,1,.88-.17A1.08,1.08,0,0,1,123,72c.16.12.16.26,0,.43s-.49.71-1,1.49l-1.69,2.69a7.59,7.59,0,0,0,.87,1.64c.32.45.65.64,1,.58.12,0,.28-.2.46-.54s.36-.73.54-1.17.33-.88.47-1.31.25-.77.31-1a.69.69,0,0,1,.27-.47.74.74,0,0,1,.43-.13.47.47,0,0,1,.36.16.45.45,0,0,1,0,.46c0,.12-.1.35-.18.66s-.19.67-.32,1.08-.29.84-.48,1.28a11.15,11.15,0,0,1-.61,1.25,5.13,5.13,0,0,1-.74,1,1.58,1.58,0,0,1-.89.5,2.17,2.17,0,0,1-1.59-.33A5.15,5.15,0,0,1,118.83,79c-.31.5-.61,1-.91,1.45s-.59.89-.87,1.29a1.19,1.19,0,0,1-.57.47.59.59,0,0,1-.48,0,.54.54,0,0,1-.21-.43A1.13,1.13,0,0,1,116,81c.66-1,1.32-2.1,2-3.3a10.8,10.8,0,0,1-1-2.41c-.06.18-.13.38-.19.59l-.18.65a.78.78,0,0,1-.31.4.7.7,0,0,1-.41.14.46.46,0,0,1-.33-.16.44.44,0,0,1,0-.45c.07-.17.16-.45.28-.84s.25-.78.37-1.17.3-1,.46-1.49v0a.94.94,0,0,1,.55-.59,2.39,2.39,0,0,1,.91-.22,1.77,1.77,0,0,1,.84.14.55.55,0,0,1,.37.53,2.76,2.76,0,0,0,0,.78c.05.31.11.65.19,1,.23-.45.43-.84.62-1.18S120.6,72.84,120.73,72.63Z"/><path class="cls-4" d="M124,71.32a1.44,1.44,0,0,1,.4-1,2.51,2.51,0,0,1,.86-.66,1.46,1.46,0,0,1,.81-.18c.24,0,.33.19.29.46a7.6,7.6,0,0,0-.1.91c0,.37-.07.8-.11,1.27a3.83,3.83,0,0,1,.78-.69,2.21,2.21,0,0,1,1-.39,1.7,1.7,0,0,1,1.49.44,3.21,3.21,0,0,1,.75,1.4,5.33,5.33,0,0,1,.09,1.89,7.18,7.18,0,0,1-.52,2,5.21,5.21,0,0,1-1,1.58,2.3,2.3,0,0,1-1.46.73,1.72,1.72,0,0,1-1.1-.17l-.19-.09a.94.94,0,0,1-.18-.12c0,.8-.07,1.55-.08,2.24s0,1.23,0,1.64a.71.71,0,0,1-.35.58,1.9,1.9,0,0,1-.76.33,1.38,1.38,0,0,1-.73,0,.39.39,0,0,1-.28-.49c0-.41.08-1,.12-1.64s.08-1.43.11-2.23.06-1.63.08-2.47,0-1.62,0-2.34,0-1.34,0-1.86S124,71.5,124,71.32Zm2.45,2.14a6.45,6.45,0,0,0-.38,1.45,5.49,5.49,0,0,0,0,1.39,2.6,2.6,0,0,0,.3,1,.7.7,0,0,0,.62.41c.2,0,.39-.13.56-.4a3.68,3.68,0,0,0,.43-1,7.86,7.86,0,0,0,.26-1.3,6.57,6.57,0,0,0,0-1.31,2.79,2.79,0,0,0-.22-1,.49.49,0,0,0-.5-.36.92.92,0,0,0-.62.36A3.28,3.28,0,0,0,126.46,73.46Z"/><path class="cls-4" d="M136.16,72.7a2.4,2.4,0,0,1-.61.66,5.26,5.26,0,0,1-1.68.85l-.78.23a11.65,11.65,0,0,0-.11,1.28,5.25,5.25,0,0,0,.07,1.09,2.54,2.54,0,0,0,.24.79.6.6,0,0,0,.48.34,1.18,1.18,0,0,0,.86-.29,5.25,5.25,0,0,0,.89-.88,9.24,9.24,0,0,0,.82-1.22c.27-.45.5-.89.71-1.3s.38-.79.52-1.14a7.71,7.71,0,0,0,.28-.73.71.71,0,0,1,.29-.42.67.67,0,0,1,.38-.13.38.38,0,0,1,.31.14.51.51,0,0,1,.06.44l-.22.75a11.66,11.66,0,0,1-.44,1.29,13.63,13.63,0,0,1-.71,1.52,7.79,7.79,0,0,1-1,1.5,6.81,6.81,0,0,1-1.34,1.23,4.05,4.05,0,0,1-1.67.7,1.78,1.78,0,0,1-1.72-.47,3.56,3.56,0,0,1-.83-1.78,8.87,8.87,0,0,1-.07-2.49,11.67,11.67,0,0,1,.55-2.6,8.21,8.21,0,0,1,1-2.12,2.27,2.27,0,0,1,1.4-1,1.64,1.64,0,0,1,1.3.28,2.79,2.79,0,0,1,.88,1,3.59,3.59,0,0,1,.35,1.32A1.81,1.81,0,0,1,136.16,72.7Zm-1.9-2.39c-.15.08-.3.37-.46.86a14.06,14.06,0,0,0-.46,1.75,3.37,3.37,0,0,0,.67-.19.92.92,0,0,0,.49-.41,1.33,1.33,0,0,0,.16-.56,3.47,3.47,0,0,0,0-.72,2,2,0,0,0-.15-.59C134.42,70.3,134.34,70.25,134.26,70.31Z"/><path class="cls-4" d="M138.8,72.61a.64.64,0,0,1-.26.39.68.68,0,0,1-.42.14.44.44,0,0,1-.33-.16c-.09-.09-.09-.24,0-.44L138,72a.86.86,0,0,1-.31-.6,1.38,1.38,0,0,1,.13-.71,2.05,2.05,0,0,1,.44-.63,1.17,1.17,0,0,1,.66-.34c.43-.08.66,0,.7.35a2.06,2.06,0,0,1-.18,1.09,1.1,1.1,0,0,0,.6-.08,7.7,7.7,0,0,1,.78-.21,1,1,0,0,1,.62,0c.16.07.2.3.12.68s-.17.84-.26,1.37a14.26,14.26,0,0,0-.2,1.49,5.76,5.76,0,0,0,0,1.18c0,.32.15.46.34.43s.28-.23.47-.62.39-.84.6-1.35.39-1,.55-1.52a7.88,7.88,0,0,0,.31-1.14.8.8,0,0,1,.26-.48.88.88,0,0,1,.41-.18.45.45,0,0,1,.36.12.58.58,0,0,1,.1.46l-.15.69a12,12,0,0,1-.34,1.19,14.52,14.52,0,0,1-.52,1.41,7.46,7.46,0,0,1-.74,1.4,5,5,0,0,1-.95,1.11,2.28,2.28,0,0,1-1.16.53,1,1,0,0,1-1.08-.47,3.77,3.77,0,0,1-.43-1.43,7.93,7.93,0,0,1,.05-1.87,11.05,11.05,0,0,1,.38-1.78,1.67,1.67,0,0,1-.3.08l-.31.06A1.09,1.09,0,0,0,138.8,72.61Z"/><path class="cls-4" d="M146.87,65.6a1.09,1.09,0,0,1-.08.64,1.93,1.93,0,0,1-.42.6,2.93,2.93,0,0,1-.64.49,3.41,3.41,0,0,1-2.27.47.87.87,0,0,1-.83-.75,1.36,1.36,0,0,1,.42-1.22,3.48,3.48,0,0,1,1.42-.88,2.85,2.85,0,0,1,1.6-.15A1,1,0,0,1,146.87,65.6Zm-3.5,4.82a1.4,1.4,0,0,1,.38-1.08,1.32,1.32,0,0,1,.84-.36,1.12,1.12,0,0,1,.8.25.77.77,0,0,1,.25.79c-.08.38-.16.86-.23,1.42s-.12,1.11-.14,1.62a6.62,6.62,0,0,0,0,1.31c.05.36.16.52.35.49s.27-.21.44-.55a9.38,9.38,0,0,0,.51-1.21c.16-.46.32-.92.46-1.37s.23-.8.28-1a.81.81,0,0,1,.3-.47.73.73,0,0,1,.42-.14.53.53,0,0,1,.34.17.48.48,0,0,1,0,.46c0,.13-.11.37-.2.72s-.21.75-.35,1.19-.31.88-.51,1.36a7.34,7.34,0,0,1-.67,1.28,4,4,0,0,1-.85.93,1.39,1.39,0,0,1-1,.31,1.48,1.48,0,0,1-1.18-.7,3.25,3.25,0,0,1-.41-1.46,13.59,13.59,0,0,1,0-1.91C143.34,71.75,143.37,71.07,143.37,70.42Z"/><path class="cls-4" d="M152.45,69.83a2.55,2.55,0,0,1-.61.66,5,5,0,0,1-.8.49,6,6,0,0,1-.88.36l-.78.23a11.47,11.47,0,0,0-.11,1.27,5.31,5.31,0,0,0,.07,1.1,2.4,2.4,0,0,0,.24.78.61.61,0,0,0,.48.35,1.22,1.22,0,0,0,.86-.29,5.25,5.25,0,0,0,.89-.88,9.24,9.24,0,0,0,.82-1.22c.27-.45.5-.89.71-1.3s.38-.8.52-1.14.23-.59.28-.74a.73.73,0,0,1,.29-.42.86.86,0,0,1,.38-.13.39.39,0,0,1,.31.15.5.5,0,0,1,.06.43l-.22.76a11.66,11.66,0,0,1-.44,1.29,14.52,14.52,0,0,1-.71,1.52,8.11,8.11,0,0,1-1,1.5,6.81,6.81,0,0,1-1.34,1.23,4,4,0,0,1-1.67.69,1.77,1.77,0,0,1-1.72-.46,3.6,3.6,0,0,1-.83-1.79,8.79,8.79,0,0,1-.07-2.48,11.55,11.55,0,0,1,.55-2.6,8.06,8.06,0,0,1,1-2.12,2.27,2.27,0,0,1,1.4-1,1.6,1.6,0,0,1,1.3.28,2.79,2.79,0,0,1,.88,1,3.59,3.59,0,0,1,.35,1.32A1.83,1.83,0,0,1,152.45,69.83Zm-1.9-2.4a1.72,1.72,0,0,0-.46.87,14.06,14.06,0,0,0-.46,1.75,3.37,3.37,0,0,0,.67-.19.92.92,0,0,0,.49-.41,1.55,1.55,0,0,0,.16-.57,3.39,3.39,0,0,0,0-.71,2,2,0,0,0-.15-.59C150.71,67.43,150.63,67.38,150.55,67.43Z"/><path class="cls-4" d="M154.26,68a1.58,1.58,0,0,1,.52-1,2.14,2.14,0,0,1,.88-.5,1.2,1.2,0,0,1,.78,0q.33.15.27.63c0,.29-.09.62-.17,1s-.13.74-.19,1.11-.11.72-.14,1a4.28,4.28,0,0,0,0,.78,11.15,11.15,0,0,1,.57-1.58,8.34,8.34,0,0,1,.66-1.24,2.18,2.18,0,0,1,.67-.6,2.54,2.54,0,0,1,.83-.3,1,1,0,0,1,.65.12q.24.18.09.6a5.41,5.41,0,0,0-.17.89,9.51,9.51,0,0,0-.08,1.19,7.52,7.52,0,0,0,.06,1c.05.29.12.43.22.41s.29-.16.49-.42a8.15,8.15,0,0,0,.61-.92,10.7,10.7,0,0,0,.57-1.12,8,8,0,0,0,.39-1,.57.57,0,0,1,.26-.41.67.67,0,0,1,.38-.13.43.43,0,0,1,.31.14.52.52,0,0,1,.06.44,7.73,7.73,0,0,1-.43,1.24,13.79,13.79,0,0,1-.8,1.58,9,9,0,0,1-1,1.42,2,2,0,0,1-1.08.73,1.36,1.36,0,0,1-1.27-.25,2,2,0,0,1-.5-1,4,4,0,0,1-.1-1.15,2.13,2.13,0,0,0,0-.71,1,1,0,0,0-.32.48,8.83,8.83,0,0,0-.32.92,10.62,10.62,0,0,0-.28,1.08,7.3,7.3,0,0,0-.15.93,1,1,0,0,1-.42.67,1.72,1.72,0,0,1-.76.33,1.18,1.18,0,0,1-.75-.08.56.56,0,0,1-.31-.62q0-.52,0-1.26c0-.48,0-1-.06-1.54s0-1.06,0-1.57A7.53,7.53,0,0,1,154.26,68Z"/><path class="cls-4" d="M166.68,67.41a2.09,2.09,0,0,1-.38,1.07,2.35,2.35,0,0,1-.67.64,1,1,0,0,1-.62.15c-.17,0-.24-.17-.2-.42s.06-.44.13-.82.1-.76.13-1.15a8.69,8.69,0,0,0,0-1c0-.28-.07-.39-.19-.35s-.27.22-.42.53a6.89,6.89,0,0,0-.41,1.15c-.13.45-.23.93-.33,1.45a8.47,8.47,0,0,0-.13,1.45,3.44,3.44,0,0,0,.16,1.14.71.71,0,0,0,.6.51,1.64,1.64,0,0,0,1.37-.54,7.09,7.09,0,0,0,1.12-1.44,13.92,13.92,0,0,0,.83-1.63c.22-.54.37-.92.43-1.13a.73.73,0,0,1,.67-.55.38.38,0,0,1,.31.14.52.52,0,0,1,.06.44c0,.13-.11.36-.21.71a11.92,11.92,0,0,1-.44,1.16,11.35,11.35,0,0,1-.67,1.36,7.86,7.86,0,0,1-.94,1.34,5.64,5.64,0,0,1-1.22,1.06,3.9,3.9,0,0,1-1.55.56,2,2,0,0,1-1.72-.43,2.9,2.9,0,0,1-.83-1.51,6,6,0,0,1-.06-2.09A8.82,8.82,0,0,1,162.1,67a6.61,6.61,0,0,1,1-1.79,2.26,2.26,0,0,1,1.38-.89,1.53,1.53,0,0,1,1.73.72A3.69,3.69,0,0,1,166.68,67.41Z"/><path class="cls-4" d="M173.22,66.17a2.94,2.94,0,0,1-.61.66,5.9,5.9,0,0,1-.8.49,7.39,7.39,0,0,1-.88.36l-.78.23a11.47,11.47,0,0,0-.11,1.27,5.35,5.35,0,0,0,.07,1.1,2.48,2.48,0,0,0,.24.78.61.61,0,0,0,.48.35,1.23,1.23,0,0,0,.85-.29,4.61,4.61,0,0,0,.89-.88A9,9,0,0,0,173.4,69c.27-.46.5-.89.71-1.31s.38-.79.52-1.13.23-.59.28-.74a.7.7,0,0,1,.29-.42.75.75,0,0,1,.38-.13.39.39,0,0,1,.31.15.5.5,0,0,1,.06.43l-.22.76a11.66,11.66,0,0,1-.44,1.29c-.2.48-.43,1-.71,1.52a8.21,8.21,0,0,1-1,1.49,7.18,7.18,0,0,1-1.34,1.24,4.17,4.17,0,0,1-1.67.69,1.77,1.77,0,0,1-1.72-.46,3.6,3.6,0,0,1-.83-1.79,8.85,8.85,0,0,1-.07-2.49,11.58,11.58,0,0,1,.55-2.59,8.06,8.06,0,0,1,1-2.12,2.24,2.24,0,0,1,1.4-1,1.64,1.64,0,0,1,1.3.27,2.82,2.82,0,0,1,.88,1,3.49,3.49,0,0,1,.35,1.32A1.83,1.83,0,0,1,173.22,66.17Zm-1.9-2.4a1.72,1.72,0,0,0-.46.87,14.06,14.06,0,0,0-.46,1.75,3.41,3.41,0,0,0,.67-.2.9.9,0,0,0,.49-.4,1.39,1.39,0,0,0,.15-.57,2.89,2.89,0,0,0,0-.72,2,2,0,0,0-.15-.58C171.47,63.77,171.4,63.72,171.32,63.77Z"/><path class="cls-5" d="M84.38,19a48.77,48.77,0,0,1,47.79,39l18.54-4.13A67.74,67.74,0,0,0,24.19,36.7L41,45.53A48.75,48.75,0,0,1,84.38,19Z"/><path class="cls-6" d="M84.38,116.51A48.76,48.76,0,0,1,37,79.21L18.45,83.33A67.74,67.74,0,0,0,144.11,99.71l-16.8-8.83A48.73,48.73,0,0,1,84.38,116.51Z"/><path class="cls-7" d="M38,37.3,35.17,32a.74.74,0,0,1,.06-.85l0,0a.73.73,0,0,1,.8-.27L42,32.17a.53.53,0,0,1,.24.1.55.55,0,0,1,.1.78.61.61,0,0,1-.68.21l-1.31-.32-2,2.59L39,36.76a.57.57,0,0,1,0,.66.53.53,0,0,1-.76.1A.52.52,0,0,1,38,37.3Zm1.2-4.63L36.35,32l1.41,2.57Z"/><path class="cls-7" d="M38.72,27.92a.59.59,0,0,1,0-.84l1.43-1.47c1.1-1.14,2.41-1.22,3.37-.29h0c1.06,1,.77,2.45-.26,3.51l-.93,1,1.15,1.12a.57.57,0,0,1,0,.82.57.57,0,0,1-.82,0Zm3.84.16a1.27,1.27,0,0,0,.16-1.87h0c-.56-.54-1.25-.42-1.87.22l-1,1,1.71,1.67Z"/><path class="cls-7" d="M43.25,23.38a.57.57,0,0,1,.08-.83L45.18,21a2.74,2.74,0,0,1,1.93-.72,2,2,0,0,1,1.34.74v0a2,2,0,0,1,.08,2.5l2,.41a.62.62,0,0,1,.43.22.54.54,0,0,1-.09.77.67.67,0,0,1-.64.14l-2.57-.54-1.15.95,1.13,1.37a.58.58,0,0,1-.08.82.59.59,0,0,1-.83-.07Zm4,.22c.66-.54.79-1.22.37-1.74h0c-.45-.55-1.1-.52-1.77,0L44.46,23l1.42,1.71Z"/><path class="cls-7" d="M51.67,23.59l-3-4.56a.59.59,0,0,1,.18-.82l3.26-2.15a.53.53,0,0,1,.73.14.52.52,0,0,1-.15.73L49.9,18.76l1,1.44,2.42-1.59a.52.52,0,0,1,.73.15.51.51,0,0,1-.16.71l-2.41,1.6,1,1.48,2.81-1.85a.52.52,0,1,1,.58.87l-3.31,2.18A.59.59,0,0,1,51.67,23.59Z"/><path class="cls-7" d="M54.12,15.47a.58.58,0,0,1,.27-.79l.11,0a.75.75,0,0,1,.7,0L60.14,17l-1.83-3.63a.57.57,0,0,1,.26-.77.59.59,0,0,1,.78.24l2.51,5a.57.57,0,0,1-.26.77l0,0a.75.75,0,0,1-.71,0l-5.08-2.38,1.9,3.75a.58.58,0,0,1-1,.53Z"/><path class="cls-7" d="M61,12.15a.58.58,0,0,1,.36-.75l1.81-.65a3.34,3.34,0,0,1,4.48,1.9v0A3.35,3.35,0,0,1,65.42,17l-1.81.65a.59.59,0,0,1-.76-.35Zm4,3.85a2.19,2.19,0,0,0,1.45-2.9h0a2.19,2.19,0,0,0-3-1.34l-1.25.45,1.52,4.25Z"/><path class="cls-7" d="M68.11,9.74A.58.58,0,0,1,68.54,9a.57.57,0,0,1,.71.4l1.43,5.39a.59.59,0,0,1-1.14.3Z"/><path class="cls-7" d="M71.6,14.54v0a.77.77,0,0,1,.12-.58l2.91-5.13-3.32.61a.51.51,0,0,1-.19-1l4.35-.8a.52.52,0,0,1,.62.4V8a.83.83,0,0,1-.11.57l-2.92,5.14,3.44-.64a.53.53,0,0,1,.62.42.53.53,0,0,1-.43.6L72.21,15A.54.54,0,0,1,71.6,14.54Z"/><path class="cls-7" d="M77.5,13.21l2.13-5.64a.74.74,0,0,1,.67-.52h.06a.72.72,0,0,1,.73.42L84,12.78A.43.43,0,0,1,84,13a.54.54,0,0,1-.51.6.61.61,0,0,1-.61-.37l-.63-1.2L79,12.27l-.48,1.31A.58.58,0,0,1,78,14a.54.54,0,0,1-.59-.51A.74.74,0,0,1,77.5,13.21Zm4.27-2.16L80.41,8.46l-1,2.75Z"/><path class="cls-7" d="M84.39,13a.59.59,0,0,1-.18-.44.55.55,0,0,1,.58-.54.49.49,0,0,1,.36.14,1.42,1.42,0,0,0,1.08.55c.66,0,1.1-.38,1.13-1.27l.13-3.81a.6.6,0,0,1,1.19,0l-.13,3.84a2.33,2.33,0,0,1-.69,1.74,2.21,2.21,0,0,1-1.65.53A2.56,2.56,0,0,1,84.39,13Z"/><path class="cls-7" d="M89.55,13.2l.7-5.41a.59.59,0,0,1,.67-.51l3.88.51a.52.52,0,1,1-.14,1l-3.3-.43-.22,1.71,2.87.38a.52.52,0,1,1-.13,1L91,11.14l-.23,1.77,3.35.43a.52.52,0,0,1,.45.58.52.52,0,0,1-.59.45l-3.93-.51A.57.57,0,0,1,89.55,13.2Z"/><path class="cls-7" d="M82,123.63a.57.57,0,0,1,.59-.57l2.34,0a2.68,2.68,0,0,1,1.88.68,1.93,1.93,0,0,1,.52,1.4v0a1.92,1.92,0,0,1-1.52,1.9l1.23,1.59a.66.66,0,0,1,.18.43.54.54,0,0,1-.56.52.69.69,0,0,1-.56-.3l-1.56-2-1.45,0,0,1.74A.58.58,0,0,1,82,129Zm2.79,2.67c.83,0,1.36-.4,1.37-1v0c0-.7-.49-1.08-1.34-1.1l-1.68,0,0,2.17Z"/><path class="cls-7" d="M88.64,128.93l-.5-5.3a.57.57,0,0,1,.52-.62l3.8-.36a.51.51,0,1,1,.1,1l-3.23.31.16,1.67,2.81-.27a.52.52,0,0,1,.56.47.5.5,0,0,1-.47.54l-2.81.27.17,1.73,3.27-.31a.51.51,0,1,1,.1,1l-3.85.36A.57.57,0,0,1,88.64,128.93Z"/><path class="cls-7" d="M94.56,128.15a.53.53,0,0,1,.13-1,.55.55,0,0,1,.35,0,2.86,2.86,0,0,0,1.93.3c.7-.14,1.08-.55,1-1v0c-.09-.45-.39-.65-1.64-.69-1.44,0-2.29-.3-2.52-1.47v0A2,2,0,0,1,95.63,122a3.63,3.63,0,0,1,2.16.19.51.51,0,0,1,.33.4.53.53,0,0,1-.43.62.54.54,0,0,1-.31,0A2.76,2.76,0,0,0,95.8,123c-.66.13-1,.54-.9,1v0c.09.49.43.65,1.73.69s2.21.41,2.42,1.46v0c.24,1.18-.57,2.08-1.93,2.34A4.15,4.15,0,0,1,94.56,128.15Z"/><path class="cls-7" d="M99.78,125,98.84,122a.57.57,0,0,1,.39-.71.56.56,0,0,1,.71.37l.93,3a1.6,1.6,0,0,0,2.13,1.27,1.56,1.56,0,0,0,1-2.2l-1-3.06a.58.58,0,0,1,1.11-.34l.92,3a2.6,2.6,0,0,1-1.84,3.6A2.57,2.57,0,0,1,99.78,125Z"/><path class="cls-7" d="M105.07,120a.58.58,0,0,1,1.06-.45l1.92,4.52,2.74-1.16a.51.51,0,0,1,.68.27.52.52,0,0,1-.28.68l-3.26,1.39a.57.57,0,0,1-.76-.3Z"/><path class="cls-7" d="M110.66,118l-1.41.74a.53.53,0,1,1-.49-.93l3.86-2a.53.53,0,0,1,.71.22.54.54,0,0,1-.22.71l-1.42.74,2.27,4.34a.57.57,0,0,1-.25.77.58.58,0,0,1-.78-.23Z"/><path class="cls-7" d="M115.67,120.7l-.87-5.81a.73.73,0,0,1,.33-.77l0,0a.74.74,0,0,1,.83,0l5,3.16a.53.53,0,0,1,0,.92.6.6,0,0,1-.69,0l-1.11-.73-2.67,1.74.22,1.35a.55.55,0,0,1-.25.59.53.53,0,0,1-.74-.15A.8.8,0,0,1,115.67,120.7Zm2.61-3.87-2.4-1.56.46,2.82Z"/><path class="cls-7" d="M118.64,112.56a.56.56,0,0,1,.08-.81l1.43-1.2a3.26,3.26,0,0,1,4.74.24v0a3.26,3.26,0,0,1-.61,4.71l-1.44,1.19a.57.57,0,0,1-.81-.06Zm5,2.17a2.14,2.14,0,0,0,.35-3.14h0a2.14,2.14,0,0,0-3.16-.23l-1,.83,2.81,3.37Z"/><path class="cls-7" d="M125.47,110.31h0a3.43,3.43,0,0,1,4.67-5h0a3.43,3.43,0,0,1-4.67,5Zm3.86-4.13h0a2.24,2.24,0,0,0-3.21.06,2.2,2.2,0,0,0,.16,3.17v0a2.23,2.23,0,0,0,3.2-.07A2.19,2.19,0,0,0,129.33,106.18Z"/><path class="cls-7" d="M132.64,106.11a.53.53,0,0,1-.59-.83.64.64,0,0,1,.29-.21A2.85,2.85,0,0,0,134,104c.42-.57.42-1.13,0-1.41h0c-.37-.28-.73-.21-1.67.6-1.1.92-1.9,1.31-2.86.6h0a2,2,0,0,1-.17-2.91A3.64,3.64,0,0,1,131,99.54a.48.48,0,0,1,.51.06.53.53,0,0,1,.1.75.5.5,0,0,1-.24.19,2.79,2.79,0,0,0-1.29.92c-.41.54-.37,1.06,0,1.32h0c.4.29.76.18,1.75-.66s1.91-1.19,2.77-.55h0c1,.72,1,1.92.16,3A4.17,4.17,0,0,1,132.64,106.11Z"/></g></g></svg>