<svg xmlns="http://www.w3.org/2000/svg" viewBox="0 0 396.85 567.71"><defs><style>.cls-1{fill:#00457d;}.cls-2{fill:#7ab2dc;}</style></defs><title>Asset 1</title><g id="Layer_2" data-name="Layer 2"><g id="Diseño"><path class="cls-1" d="M0,504.57H30.38v-4H4.4V459.21H0v45.36Zm69.89-12.21,5.41,12.21H80L59.33,458.88H55L34.31,504.57h4.45l5.47-12.21Zm-24-3.86,11.18-24.95L68.21,488.5Zm79.74,16.07h3.55V459.21h-4.26V497L95.25,459.21H91v45.36h4.26V465.94l30.41,38.63ZM145.5,482c0,13,8.78,23.32,23.07,23.34h0a27.52,27.52,0,0,0,18.12-6.84h0V480.71H168.45v3.87H182.5v12.08l-.15.12a22.16,22.16,0,0,1-13.58,4.71h0a18.06,18.06,0,0,1-13.64-5.6h0a20.29,20.29,0,0,1-5-14h0v-.13a20.27,20.27,0,0,1,5-13.6h0a17.16,17.16,0,0,1,12.9-5.74h0a20,20,0,0,1,14,5.11h0l2.83-3.33c-4.48-3.68-9.11-5.77-16.64-5.78h0c-13.61,0-22.73,11-22.74,23.47h0V482Zm58.3,3.63c0,12.88,7.55,19.6,18.79,19.64h0c11.36,0,18.81-6.75,18.85-20h0v-26H237v26.44c0,5.11-1.37,9-3.88,11.68h0c-2.5,2.64-6.11,4-10.44,4h0c-4.5,0-8.16-1.43-10.67-4.18h0c-2.51-2.74-3.85-6.74-3.85-11.79h0V459.21h-4.4v26.44Zm81.11,6.71,5.41,12.21H295l-20.67-45.69H270l-20.68,45.69h4.45l5.48-12.21Zm-24-3.86,11.19-24.95,11.11,24.95ZM304.4,482c0,13,8.78,23.32,23.07,23.34h0a27.59,27.59,0,0,0,18.13-6.84h0V480.71H327.35v3.87h14v12.08l-.14.12a22.16,22.16,0,0,1-13.58,4.71h0a18.06,18.06,0,0,1-13.64-5.6h0a20.29,20.29,0,0,1-5-14h0v-.13a20.27,20.27,0,0,1,5-13.6h0a17.18,17.18,0,0,1,12.91-5.74h0a19.94,19.94,0,0,1,14,5.11h0l2.83-3.33c-4.47-3.68-9.1-5.77-16.63-5.78h0c-13.61,0-22.73,11-22.74,23.47h0V482ZM364,504.57h32.88v-3.94H368.36v-17h25.2v-3.94h-25.2V463.15h28.17v-3.94H364v45.36ZM34.53,431.05l4.69,11.14h7.69L27,396.51H20L0,442.19H7.43l4.75-11.14Zm-19.72-6.39,8.51-19.87,8.59,19.87ZM133.52,442.2h33.75v-6.45H140.83v-13.2H164v-6.46H140.83V403.3h26.11v-6.46H133.52V442.2Zm75.14-17.3.54-.16c6.35-1.83,10.71-6.19,10.73-13.59V411a13.58,13.58,0,0,0-3.71-9.67c-2.87-2.81-7.31-4.5-13-4.5H183V442.2h7.31V426.11h10.76l11.34,16.09H221Zm-18.34-5.18V403.43h12.2a11.6,11.6,0,0,1,7.28,2.05,7.28,7.28,0,0,1,2.68,6v.13a7.35,7.35,0,0,1-2.72,5.92,11.15,11.15,0,0,1-7.17,2.19Zm42.82,22.48h7.31V396.84h-7.31V442.2Zm20.4-22.58c0,13.05,9.84,23.33,23.07,23.34h0c8.38,0,13.46-3,18.17-7.78h0l-4.67-4.72c-3.86,3.57-7.59,5.85-13.23,5.85h0a15,15,0,0,1-11.23-5h0a17.57,17.57,0,0,1-4.41-11.86h0v-.13a17.36,17.36,0,0,1,4.41-11.8h0a15.06,15.06,0,0,1,11.23-4.89h0c5.25,0,9.25,2.25,12.89,5.57h0l4.68-5.41c-4.31-4-9.27-6.8-17.51-6.81h0c-13.76,0-23.39,10.55-23.4,23.47h0v.13Zm81,11.44,4.68,11.14H347l-20-45.69h-7L300.05,442.2h7.43l4.75-11.14Zm-19.73-6.39,8.52-19.87L332,424.67Zm75.8,17.53h6.2V396.84h-7.18v32.69l-25.32-32.69h-6.92V442.2h7.18V408.59l26,33.61Zm-266.67,0h-7.9L102,406,87.78,442.19H86.57L72.45,406,58.27,442.19h-8.1L69,396.5h6.59l11.47,28.65L98.54,396.5h6.58ZM61.12,555.78l4.68,11.14h7.7l-20-45.68h-7l-20,45.68H34l4.74-11.14Zm-19.73-6.39,8.52-19.87,8.58,19.87Zm118.88,6.38L165,566.92h7.69l-20-45.69h-7l-20,45.69h7.43l4.75-11.15Zm-19.73-6.38,8.51-19.88,8.59,19.88Zm58.94-27.83H182.67v45.36h16.81c14.32,0,24.12-9.91,24.13-22.68v-.13C223.6,531.34,213.8,521.58,199.48,521.56Zm16.43,22.81a15.77,15.77,0,0,1-4.5,11.45,16.59,16.59,0,0,1-11.92,4.51H190V528.15h9.5a16.5,16.5,0,0,1,11.93,4.57,16,16,0,0,1,4.5,11.52ZM371.49,549v17.92h7.38V548.8l18-27.24h-8.33l-13.28,20.79L362.1,521.56h-8.6l18,27.44ZM237.24,566.92H271v-6.46H244.55V547.27h23.14v-6.45H244.55V528h26.11v-6.45H237.24v45.36Zm79.5,0H318l2.14-5.45,12.05-30.72,14.12,36.17h7.89L335.3,521.23h-6.59l-11.46,28.65-11.47-28.65H299.2l-18.86,45.69h8.1l14.19-36.17,14.11,36.17ZM79.24,544.37c0,13,9.84,23.33,23.08,23.34h0c8.37,0,13.46-3,18.16-7.78h0l-4.66-4.72c-3.87,3.57-7.59,5.85-13.24,5.85h0a14.94,14.94,0,0,1-11.22-5h0A17.52,17.52,0,0,1,87,544.24h0v-.13a17.31,17.31,0,0,1,4.41-11.8h0a15,15,0,0,1,11.22-4.89h0c5.25,0,9.25,2.25,12.89,5.57h0l4.69-5.41c-4.31-4-9.28-6.8-17.51-6.81h0c-13.76,0-23.39,10.55-23.41,23.47h0v.13Z"/><path class="cls-2" d="M114.33,27.06a22.81,22.81,0,0,1,43.27,0h0l35.83,110.27-22.07,67.92h0a3.17,3.17,0,0,1-3.07,2.25c-25.69-.77-50.85-2.47-75.33-5h0a3,3,0,0,0-.42,0,4.84,4.84,0,0,0-3.21,8.46h0q28.36,23.9,59.81,46.65h0a6.44,6.44,0,0,1,2.72,5.27,6.51,6.51,0,0,1-.58,2.68h0a80.64,80.64,0,0,1-73.47,47.34H25.9a3.22,3.22,0,0,1-3.22-3.22,3.37,3.37,0,0,1,.18-1.06L114.33,27.06Z"/><path class="cls-2" d="M396.7,370,283.63,22A32.29,32.29,0,0,0,253.05,0H153.91a1.61,1.61,0,0,0-1.61,1.61A1.64,1.64,0,0,0,153.13,3h0A32.35,32.35,0,0,1,168.51,21.3h0l59.77,184h0a3.15,3.15,0,0,0,3.07,2.24c25.69-.76,50.85-2.47,75.33-5h0a3,3,0,0,1,.42,0,4.84,4.84,0,0,1,3.21,8.46h0q-29,24.42-61.18,47.64a4.85,4.85,0,0,0-2,3.93,4.92,4.92,0,0,0,.2,1.39h0l7.56,23.25h0a125.84,125.84,0,0,0,119.71,87h19a3.23,3.23,0,0,0,3.22-3.23A3.12,3.12,0,0,0,396.7,370Z"/></g></g></svg>