<svg xmlns="http://www.w3.org/2000/svg" viewBox="0 0 110.3 71.78"><defs><style>.cls-1{fill:#4caf4e;}</style></defs><title>card</title><g id="Layer_2" data-name="Layer 2"><g id="Layer_1-2" data-name="Layer 1"><path class="cls-1" d="M98.7,0H11.59A11.6,11.6,0,0,0,0,11.59V60.18a11.61,11.61,0,0,0,11.59,11.6H98.7a11.61,11.61,0,0,0,11.6-11.6V11.59A11.61,11.61,0,0,0,98.7,0Zm5.6,60.18a5.6,5.6,0,0,1-5.6,5.6H11.59A5.6,5.6,0,0,1,6,60.18V11.59A5.6,5.6,0,0,1,11.59,6H98.7a5.6,5.6,0,0,1,5.6,5.59Z"/><path class="cls-1" d="M40.63,54.67H16.19a3,3,0,0,0,0,6H40.63a3,3,0,1,0,0-6Z"/><path class="cls-1" d="M61.67,54.67H49.52a3,3,0,1,0,0,6H61.67a3,3,0,0,0,0-6Z"/></g></g></svg>