<svg xmlns="http://www.w3.org/2000/svg" viewBox="0 0 88.04 80.25"><defs><style>.cls-1{fill:#4caf4e;}</style></defs><title>continuous</title><g id="Layer_2" data-name="Layer 2"><g id="Layer_1-2" data-name="Layer 1"><circle class="cls-1" cx="18.97" cy="37.54" r="5.04" transform="matrix(0.99, -0.16, 0.16, 0.99, -5.77, 3.52)"/><circle class="cls-1" cx="35.26" cy="37.54" r="5.04"/><circle class="cls-1" cx="51.86" cy="37.54" r="5.04"/><path class="cls-1" d="M88,3a3,3,0,0,0-3-3H61.8l-.27,0a1.66,1.66,0,0,0-.22,0h0l-.08,0L61,.17l-.24.08-.08,0a1.39,1.39,0,0,0-.21.11l-.22.13-.07,0C60.09.64,60,.7,60,.75l-.19.16L59.73,1a1.15,1.15,0,0,0-.14.17l-.16.2-.06.1a.21.21,0,0,1,0,.06,1.47,1.47,0,0,1-.06.14l-.1.21s0,.09-.05.13,0,.15-.07.23,0,.13,0,.2,0,.09,0,.13a2.64,2.64,0,0,0,0,.28c0,.05,0,.1,0,.16v.14a2.89,2.89,0,0,0,0,.29c0,.07,0,.14,0,.21v0l5,22.39a3,3,0,1,0,5.85-1.31L66.58,10A36.69,36.69,0,1,1,6,42.2,3,3,0,0,0,0,43,42.7,42.7,0,1,0,71.11,6H85A3,3,0,0,0,88,3Z"/></g></g></svg>