<svg xmlns="http://www.w3.org/2000/svg" viewBox="0 0 63.03 63.03"><defs><style>.cls-1{fill:#617d8b;}</style></defs><title>Nuevo símbolo (8)</title><g id="Layer_2" data-name="Layer 2"><g id="Capa_1" data-name="Capa 1"><g id="Nuevo_símbolo" data-name="Nuevo símbolo"><path class="cls-1" d="M15.44,4.56a3.84,3.84,0,0,1,7.29,0h0l6,18.57L25.05,34.58h0a.53.53,0,0,1-.52.37c-4.33-.12-8.57-.41-12.69-.84h-.07a.82.82,0,0,0-.54,1.43h0c3.18,2.68,6.54,5.31,10.07,7.86h0a1.07,1.07,0,0,1,.46.88,1,1,0,0,1-.1.46h0a13.58,13.58,0,0,1-12.37,8H.54A.54.54,0,0,1,0,52.16.57.57,0,0,1,0,52L15.44,4.56Z"/><path class="cls-1" d="M63,62.32,44,3.7A5.43,5.43,0,0,0,38.8,0H22.11a.28.28,0,0,0-.28.27A.27.27,0,0,0,22,.51h0a5.41,5.41,0,0,1,2.59,3.08h0l10.07,31h0a.53.53,0,0,0,.52.37c4.33-.12,8.56-.41,12.69-.84h.07a.82.82,0,0,1,.54,1.43h0c-3.25,2.74-6.69,5.43-10.31,8a.83.83,0,0,0-.33.67.85.85,0,0,0,0,.23h0l1.27,3.92h0A21.21,21.21,0,0,0,59.28,63h3.2a.55.55,0,0,0,.55-.55A.45.45,0,0,0,63,62.32Z"/></g></g></g></svg>