<svg xmlns="http://www.w3.org/2000/svg" viewBox="0 0 69.18 39.38"><defs><style>.cls-1{fill:#fff;}</style></defs><title>Asset 4</title><g id="Layer_2" data-name="Layer 2"><g id="Layer_1-2" data-name="Layer 1"><path class="cls-1" d="M34.48,0c.49,1.36,1,2.72,1.48,4.09.72,2,1.43,4,2.15,6q1.24,3.47,2.47,6.91.86,2.37,1.7,4.74a.33.33,0,0,0,.37.27c.35,0,.7,0,1.07,0v.51H35.09V22h2.3c-1.64-5-3.27-10-4.89-14.91h-.06a2.48,2.48,0,0,0-.13.35q-1.58,4.75-3.14,9.5c-.35,1-.7,2.07-1,3.1a4.37,4.37,0,0,0-.12.49A1.07,1.07,0,0,0,29,22c.37,0,.74,0,1.14,0v.52H24.94V22c.32-.07.65-.12,1-.22A1.63,1.63,0,0,0,27,20.77c.51-1.39,1-2.77,1.49-4.17Q30.4,11,32.27,5.39c.61-1.79,1.2-3.59,1.8-5.39Z"/><path class="cls-1" d="M69.18,13.88c-.17.39-.35.77-.51,1.16-.38.92-.74,1.84-1.11,2.76,0,.07-.07.13-.08.16-3.49-.07-7-.08-10.47,0,.07-.05.12-.13.19-.15s.41-.07.6-.12a1.23,1.23,0,0,0,1-1.08,19.39,19.39,0,0,0,.13-2c0-1.43,0-2.86,0-4.28l0-3.67a4.77,4.77,0,0,0-.07-.76,1.33,1.33,0,0,0-1.06-1.21c-.21,0-.42-.08-.63-.14S57,4.43,57,4.33H67.32a.65.65,0,0,1,0,.16c0,1.07.06,2.15.1,3.22,0,.12,0,.29-.17.28-.16-.41-.3-.83-.48-1.22a3,3,0,0,0-2.57-1.88,27.64,27.64,0,0,0-2.88,0c-.26,0-.53,0-.8.06v5.22a8.08,8.08,0,0,0,2.78-.19,2.17,2.17,0,0,0,1.43-1.52c.07-.23.11-.47.16-.7s.07-.17.1-.26l.1,0v6a1.46,1.46,0,0,1-.18-.22c-.08-.29-.15-.58-.23-.87a2.13,2.13,0,0,0-2-1.69c-.71,0-1.42,0-2.16,0v6.42c3.32.79,6.06.24,8.38-3.4l.23.1Z"/><path class="cls-1" d="M26.84,13.52l.44.37c-1.14,1.82-2.39,3.48-4.46,4.1a6.28,6.28,0,0,1-5-.48,6.78,6.78,0,0,1-3.35-5A7.84,7.84,0,0,1,15,7.83a6.21,6.21,0,0,1,5.07-3.9,10.25,10.25,0,0,1,3.17.24l2.18.4.37,4.33c-.18.08-.22,0-.28-.18a17.19,17.19,0,0,0-.7-1.64A4.35,4.35,0,0,0,19.12,5,3.93,3.93,0,0,0,17,7.35a9.28,9.28,0,0,0,0,6.72,4.55,4.55,0,0,0,5.1,3,5.79,5.79,0,0,0,3.8-2.31C26.23,14.39,26.51,14,26.84,13.52Z"/><path class="cls-1" d="M30.15,10.52,29.67,12c-.08.24-.16.47-.25.71s-.12.3-.39.19a20.83,20.83,0,0,0-3.74-1.26,24,24,0,0,0-3.37-.57A28.43,28.43,0,0,0,18.23,11c-.17,0-.39.07-.43-.22a.4.4,0,0,1,.36-.47c1.05-.2,2.1-.42,3.16-.58a18.74,18.74,0,0,1,4.3-.09,24.6,24.6,0,0,1,4.42.83S30.1,10.48,30.15,10.52Z"/><path class="cls-1" d="M34.4,39.38l-3.58-3.79H38Z"/><path class="cls-1" d="M35.52,17.41a26.15,26.15,0,0,0-4.93-3.72c.13-.42.26-.81.39-1.21s.31-.88.45-1.32c.07-.22.15-.26.35-.18.58.26,1.18.49,1.76.76a.53.53,0,0,1,.23.32C34.36,13.84,34.94,15.63,35.52,17.41Z"/><path class="cls-1" d="M23.27,22.27H.05v0H23.27Z"/><path class="cls-1" d="M68.78,22.26H45.54v-.05H68.79Z"/><path class="cls-1" d="M27.34,25.58v2.06a.7.7,0,0,0,.35.73h-.91c.51-.19.46-.59.46-1s0-1,0-1.56,0-.79-.39-1h.67l1.14,2.52s.07-.05.07-.07c0-.65,0-1.3-.06-1.95,0-.18-.17-.34-.27-.51h.74c-.47.29-.32.76-.34,1.16,0,.75,0,1.51,0,2.26,0,.06,0,.13,0,.2l-.09,0L28.1,27c-.22-.5-.44-1-.67-1.47Z"/><path class="cls-1" d="M31.76,26.52c0,.51,0,1,0,1.47a.21.21,0,0,0,.21.23.67.67,0,0,0,.72-.29,5.78,5.78,0,0,0,.37-.64l-.24,1.1H31a.68.68,0,0,0,.35-.7c0-.72,0-1.43,0-2.15,0-.41,0-.42-.3-.71h1.69l0,.88c-.36-.73-.46-.81-1-.7V26.3c.32.09.43,0,.64-.52v1.3C32.22,26.54,32.17,26.49,31.76,26.52Z"/><path class="cls-1" d="M40.5,28.17c.66.17,1.11-.15,1.37-.9,0,.17-.06.35-.1.53s-.08.37-.13.58H40c.42-1.16.94-2.23,1.37-3.35-.64-.2-.95,0-1.19.81l.07-1H41.9Z"/><path class="cls-1" d="M34,28.38H33.1c.52-.27.42-.74.43-1.17s0-.94,0-1.41,0-.77-.46-.91l.07-.06h.68L35,27.35h.09c0-.7,0-1.39-.1-2.08,0-.14-.16-.27-.24-.42h.7c-.32.2-.32.53-.32.85,0,.79,0,1.58,0,2.36v.4l-.07,0c0-.09-.1-.17-.14-.26-.38-.85-.76-1.71-1.13-2.56l-.11-.16a2.75,2.75,0,0,0,0,.34v1.63C33.6,27.82,33.61,28.17,34,28.38Z"/><path class="cls-1" d="M26.77,27.44l-.25.95H24.79c.37-.23.32-.57.32-.9V25.6a.85.85,0,0,0-.28-.78h1.68v.78a2.86,2.86,0,0,0-.36-.52.68.68,0,0,0-.67-.07V26.3c.35.07.44,0,.66-.53v1.28c-.13-.29-.21-.67-.67-.51,0,.49,0,1,0,1.5,0,.06.12.16.2.18a.78.78,0,0,0,.83-.43c.08-.12.17-.23.26-.34l0,0Z"/><path class="cls-1" d="M29.42,28.3l-.1-1a5.92,5.92,0,0,0,.38.71.45.45,0,0,0,.59.22.57.57,0,0,0,.24-.62,2.73,2.73,0,0,0-.39-.66,1.66,1.66,0,0,0-.34-.3,1.39,1.39,0,0,1-.39-1.41.59.59,0,0,1,.85-.49c.14,0,.28.1.44.16v.84a1.83,1.83,0,0,0-.1-.28,1.37,1.37,0,0,0-.16-.32c-.18-.26-.37-.34-.54-.25a.58.58,0,0,0-.19.64,1.67,1.67,0,0,0,.33.5c.11.13.26.23.38.35A1.49,1.49,0,0,1,30.75,28a.6.6,0,0,1-.85.45Z"/><path class="cls-1" d="M34.74,23.79c-.05.65-.14.69-.71.34l-.17.23,0,0a1.57,1.57,0,0,1,.13-.45c.25-.35.39.11.62.11Z"/><path class="cls-1" d="M26.77,27.45l0-.16h0v.16Z"/><path class="cls-1" d="M54.76,7.55A6.78,6.78,0,0,0,50.3,4.29a11.07,11.07,0,0,0-3.85-.09,21,21,0,0,1-4.27.1h-.31l-.07.13A1.11,1.11,0,0,0,42,4.5l.44.08a1.37,1.37,0,0,1,1.29,1.49c0,.11,0,.22,0,.33,0,3.29,0,6.58,0,9.88a1.21,1.21,0,0,1-.83,1.26c-.25.1-.53.15-.78.23a1.16,1.16,0,0,0-.24.14l0,.08.19,0c.95,0,1.9-.06,2.85-.07,1.47,0,2.94,0,4.41,0a7.41,7.41,0,0,0,3.17-.68,5.34,5.34,0,0,0,2.6-2.54,6.58,6.58,0,0,0,.64-2.39A8,8,0,0,0,54.76,7.55Zm-1,4.46a9.35,9.35,0,0,1-.42,2.23,4.3,4.3,0,0,1-2.9,3,5.65,5.65,0,0,1-3.74,0,6.7,6.7,0,0,1-1.1-.62.56.56,0,0,1-.26-.54c0-1.76,0-3.51,0-5.27h-.06c0-1.71,0-3.41.1-5.12,0-.6-.09-.51.53-.75a5.39,5.39,0,0,1,4.54.23,5.82,5.82,0,0,1,2.93,3.5A8.13,8.13,0,0,1,53.79,12Z"/><path class="cls-1" d="M13.54,17.69a2.29,2.29,0,0,1-1.79-1.48c-.22-.56-.42-1.12-.61-1.69Q9.55,9.89,8,5.27c-.15-.45-.31-.9-.47-1.35l-1.64.64a1.23,1.23,0,0,1,0,1.23C5.41,7,5,8.23,4.49,9.45c-.78,2.06-1.55,4.12-2.34,6.18a3,3,0,0,1-1.95,2c-.08,0-.13.11-.2.17l0,.06h4.6c0-.23-.13-.2-.23-.24a10.79,10.79,0,0,1-1.13-.56,1.09,1.09,0,0,1-.38-1.28c.42-1.25.86-2.49,1.27-3.74.07-.21.16-.28.36-.28H8.09a.32.32,0,0,1,.37.27c.43,1.31.87,2.62,1.31,3.93a1,1,0,0,1-.3,1.1,2.17,2.17,0,0,1-.62.37c-.22.1-.48.14-.71.22a.65.65,0,0,0-.23.15l0,.06H13.8C13.84,17.68,13.67,17.71,13.54,17.69ZM4.45,11.2,6.32,6H6.4C7,7.69,7.56,9.43,8.16,11.2Z"/><path class="cls-1" d="M34.22,30.7a.62.62,0,0,1,.23.76c-.11.52-.22,1-.34,1.55,0,.13-.06.27-.1.4-.2-.63-.34-1.26-.49-1.88-.07-.31-.15-.61.23-.84h-2l-.08.06c.33.07.32.32.33.54,0,.81,0,1.63,0,2.44a.31.31,0,0,1,0,.17c-.05.1-.12.22-.21.24a.33.33,0,0,1-.29-.1,4.59,4.59,0,0,1-.63-1.41,1.3,1.3,0,0,0,.29-1.56.59.59,0,0,0-.59-.4h-1l-.06.07c.34.12.31.4.31.66,0,.7,0,1.4,0,2.11,0,.28,0,.56-.31.72h.87a1.58,1.58,0,0,1-.18-.43c0-.38,0-.77,0-1.15.24-.06.26.12.32.26.14.38.28.76.44,1.14,0,.08.13.2.2.2.49,0,1,0,1.48,0l0-.06c-.33-.08-.33-.34-.33-.6V32.37c0-.43,0-.85,0-1.28,0-.18.11-.31.27-.31A.43.43,0,0,1,33,31a1.6,1.6,0,0,1,.16.48l.6,2.6a2.77,2.77,0,0,0,.1.26c.24-.76.4-1.5.59-2.23a3.5,3.5,0,0,1,.48-1.38Zm-3.89,1.75c-.19-.05-.13-.22-.13-.36s0-.31,0-.47,0-.36,0-.54.14-.32.33-.22a.44.44,0,0,1,.2.18,1.32,1.32,0,0,1,0,1.21A.33.33,0,0,1,30.33,32.45Z"/><path class="cls-1" d="M39.12,24.84a.71.71,0,0,1,.33.65c0,.22,0,.43,0,.65v1.21h-.07l-.57-1.25-.56-1.27H37.6a.87.87,0,0,1,.41.94c0,.29,0,.58,0,.87s0,.85,0,1.27a.37.37,0,0,1-.36.37c-.2,0-.27-.15-.32-.32s-.05-.25-.08-.38l-.54-2.73a.24.24,0,0,0-.06-.09l-.25.15,0,.52h0s.1,0,.1,0c.08.38.15.75.22,1.16h-.52c.07-.42.13-.81.2-1.21h0c-.07.25-.13.5-.2.74a8.06,8.06,0,0,1-.64,2.18h.59c-.08-.17-.21-.33-.2-.47a8.36,8.36,0,0,1,.19-1c.58-.13.61-.11.72.46,0,.1,0,.19,0,.29a.56.56,0,0,1-.25.75h1.87a.73.73,0,0,1-.37-.77c0-.6,0-1.21,0-1.81a1.66,1.66,0,0,1,0-.22h.08l1.28,2.9h.08c0-.12,0-.25,0-.37V25.65c0-.31,0-.64.34-.81Z"/><path class="cls-1" d="M38.94,31.56a1.08,1.08,0,0,0-1.25-.9,5.89,5.89,0,0,1-.84,0l-.06,0c.29.1.3.33.3.56v2.35c0,.24,0,.47-.3.56l0,.1h1A1,1,0,0,0,39,33.38,3.31,3.31,0,0,0,38.94,31.56Zm-.42,2.1a.68.68,0,0,1-.72.48c-.25,0-.33-.13-.34-.41v-1.3c0-.44,0-.87,0-1.31a.25.25,0,0,1,.25-.3.65.65,0,0,1,.72.42A3.22,3.22,0,0,1,38.52,33.66Z"/><path class="cls-1" d="M29.21,31.11a.59.59,0,0,0-.62-.46l-.93.06c.26.14.26.4.26.65,0,.77,0,1.53,0,2.29a.56.56,0,0,1-.32.6h.89a1.13,1.13,0,0,1-.19-.38c0-.42,0-.84,0-1.27l.16,0c.44.1.73,0,.8-.52A2.76,2.76,0,0,0,29.21,31.11Zm-.32,1a.78.78,0,0,1-.32.33c-.14.06-.28,0-.28-.24,0-.37,0-.74,0-1.12a.37.37,0,0,1,.13-.28.25.25,0,0,1,.38.13,5.08,5.08,0,0,1,.18.62A1.94,1.94,0,0,1,28.89,32.15Z"/><path class="cls-1" d="M35.69,34.23h.92a3.16,3.16,0,0,1-.22-.55c-.14-.62-.25-1.25-.38-1.87-.07-.39-.16-.77-.24-1.18l-.28.14c0,.23,0,.43-.07.63-.15.66-.31,1.33-.47,2a1.28,1.28,0,0,1-.4.85h.65c-.07-.16-.2-.31-.18-.45,0-.36.12-.72.18-1.07h.62c.06.3.09.6.17.89A.44.44,0,0,1,35.69,34.23Zm-.45-1.72c.09-.4.17-.79.24-1.18h.08c.07.38.14.76.22,1.17Z"/><path class="cls-1" d="M40.4,34.24h.84a4.8,4.8,0,0,1-.24-.63c-.2-1-.38-1.89-.58-2.84a.43.43,0,0,0-.05-.13l-.24.12c0,.24,0,.43-.08.62-.12.51-.24,1-.37,1.54a2.63,2.63,0,0,1-.47,1.32h.61c-.07-.16-.19-.31-.18-.45a9.58,9.58,0,0,1,.19-1.07h.61c.06.29.1.57.17.85S40.67,34.09,40.4,34.24Zm-.53-1.73.24-1.19h.08l.22,1.18Z"/><path class="cls-1" d="M43.18,28.39H44a3.58,3.58,0,0,1-.25-.63c-.16-.69-.28-1.39-.42-2.09-.06-.29-.12-.58-.19-.9l-.28.14a3.66,3.66,0,0,1-.07.6c-.15.7-.32,1.4-.5,2.1a5.7,5.7,0,0,1-.29.76h.68a.59.59,0,0,1-.28-.73c0-.19.09-.38.12-.57s.13-.26.3-.24.36-.07.4.21.08.42.13.63A.57.57,0,0,1,43.18,28.39Zm-.53-1.74.23-1.18H43l.22,1.19Z"/><path class="cls-1" d="M36.6,28.39h.86a4.58,4.58,0,0,1-.25-.63c-.15-.69-.28-1.39-.41-2.09-.06-.29-.13-.58-.19-.9l-.28.14a5.21,5.21,0,0,1-.07.6c-.16.7-.32,1.4-.5,2.1a7.51,7.51,0,0,1-.29.76h.68a.58.58,0,0,1-.28-.73,5.72,5.72,0,0,0,.11-.57.25.25,0,0,1,.31-.24c.16,0,.36-.07.4.21a4.7,4.7,0,0,0,.13.63A.57.57,0,0,1,36.6,28.39Zm-.52-1.74.23-1.18h.08l.23,1.19Z"/></g></g></svg>