<svg xmlns="http://www.w3.org/2000/svg" viewBox="0 0 67.5 29.88"><defs><style>.cls-1,.cls-2{fill:#fff;}.cls-2{font-size:43.34px;font-family:Arial-ItalicMT, Arial;font-style:italic;letter-spacing:-0.06em;}</style></defs><title>Asset 5</title><g id="Layer_2" data-name="Layer 2"><g id="Layer_1-2" data-name="Layer 1"><polygon class="cls-1" points="64.86 21.83 60.79 21.83 63.42 3.36 67.5 3.36 64.86 21.83"/><polygon class="cls-1" points="19.02 21.83 12.56 21.83 16.13 3.36 22.58 3.36 19.02 21.83"/><text class="cls-2" transform="translate(20.24 21.68) scale(0.31 0.58)">Acedim</text><path class="cls-1" d="M3.23,3.36,0,21.83H11.72L14.94,3.36Zm2.94,3.8L5.85,7l-.32.17.06-.36-.25-.26.35,0,.16-.33L6,6.49l.36,0-.26.26ZM7.36,9.32,7,9.15l-.32.17L6.78,9,6.52,8.7l.36,0L7,8.32l.16.33.36,0L7.3,9ZM8.55,7.16,8.23,7l-.32.17L8,6.8l-.26-.26.36,0,.16-.33.16.33.35,0-.25.26Zm1.1,2.16-.32-.17L9,9.32,9.07,9,8.82,8.7l.35,0,.16-.33.16.33.36,0L9.59,9Zm1.28-2.16L10.61,7l-.32.17.06-.36-.26-.26.36,0,.16-.33.16.33.35,0-.26.26Z"/></g></g></svg>