<svg xmlns="http://www.w3.org/2000/svg" viewBox="0 0 464.88 302.08"><defs><style>.cls-1,.cls-3{fill:#00457d;}.cls-2{fill:#7ab2dc;}.cls-3{font-size:44px;font-family:Gotham-Light, Gotham;font-weight:300;}</style></defs><title>American-Academy-English-Madrid</title><g id="Layer_2" data-name="Layer 2"><g id="Diseño"><path class="cls-1" d="M34.53,170.26l4.68,11.14h7.7L27,135.72H20L0,181.4H7.43l4.75-11.14Zm-19.72-6.39L23.32,144l8.59,19.87Zm118.71,17.54h33.75V175H140.83v-13.2H164v-6.45H140.83v-12.8h26.11v-6.45H133.52v45.35Zm75.14-17.3.54-.16c6.35-1.83,10.71-6.18,10.72-13.59v-.13a13.52,13.52,0,0,0-3.7-9.67c-2.87-2.81-7.31-4.5-13-4.5H183v45.35h7.31V165.32h10.76l11.34,16.09H221Zm-18.34-5.17v-16.3h12.2a11.6,11.6,0,0,1,7.28,2.06,7.26,7.26,0,0,1,2.68,6v.13a7.36,7.36,0,0,1-2.72,5.92,11.17,11.17,0,0,1-7.17,2.2Zm42.82,22.47h7.31V136.06h-7.31v45.35Zm20.4-22.58c0,13,9.84,23.34,23.07,23.34h0c8.38,0,13.46-3,18.17-7.77h0l-4.66-4.72c-3.87,3.56-7.6,5.85-13.25,5.84h0a15,15,0,0,1-11.22-5h0a17.6,17.6,0,0,1-4.41-11.87h0v-.13a17.36,17.36,0,0,1,4.41-11.8h0a15,15,0,0,1,11.22-4.89h0c5.26,0,9.25,2.26,12.9,5.57h0l4.68-5.4c-4.31-4-9.28-6.81-17.51-6.82h0c-13.76,0-23.39,10.55-23.4,23.47h0v.13Zm81,11.44,4.68,11.14H347l-20-45.68h-7l-19.95,45.68h7.43l4.75-11.14Zm-19.73-6.39L323.37,144,332,163.88Zm75.8,17.53h6.2V136.06h-7.18v32.68l-25.32-32.68h-6.92v45.35h7.18v-33.6l26,33.6ZM124,181.4h-7.9L102,145.23,87.78,181.4H86.57L72.45,145.23,58.26,181.4H50.17L69,135.72h6.59l11.47,28.64,11.46-28.64h6.58ZM61.12,232l4.68,11.14h7.69L53.54,197.45h-7l-20,45.68H34L38.76,232ZM41.39,225.6l8.51-19.87,8.59,19.87ZM160.27,232,165,243.13h7.69l-20-45.69h-7l-20,45.69h7.43L137.91,232Zm-19.73-6.39,8.51-19.87,8.59,19.87Zm58.94-27.83H182.67v45.36h16.81c14.32,0,24.12-9.9,24.13-22.68v-.13C223.6,207.55,213.8,197.79,199.48,197.77Zm16.43,22.81a15.81,15.81,0,0,1-4.5,11.46,16.58,16.58,0,0,1-11.92,4.5H190V204.36h9.5a16.47,16.47,0,0,1,11.93,4.58,16,16,0,0,1,4.5,11.51Zm155.58,4.63v17.92h7.38V225l18-27.24h-8.33l-13.28,20.79L362.1,197.77h-8.6l18,27.44ZM237.24,243.13H271v-6.45H244.55v-13.2h23.14V217H244.55v-12.8h26.11v-6.46H237.24v45.36Zm79.5,0H318l2.14-5.44L332.14,207l14.11,36.17h7.9L335.3,197.45h-6.59l-11.46,28.64-11.47-28.64H299.2l-18.86,45.68h8.1L302.62,207l14.12,36.17ZM79.24,220.59c0,13,9.84,23.33,23.08,23.33h0c8.37,0,13.46-3,18.16-7.77h0l-4.66-4.72c-3.87,3.56-7.59,5.85-13.24,5.84h0a15,15,0,0,1-11.22-5h0A17.55,17.55,0,0,1,87,220.45h0v-.13a17.31,17.31,0,0,1,4.41-11.8h0a15,15,0,0,1,11.22-4.89h0c5.25,0,9.25,2.26,12.89,5.57h0l4.69-5.4c-4.32-4-9.28-6.81-17.51-6.82h0c-13.76,0-23.4,10.55-23.41,23.47h0v.14Z"/><path class="cls-2" d="M370.71,9a7.6,7.6,0,0,1,14.42,0h0l11.94,36.76-7.36,22.64h0a1,1,0,0,1-1,.75c-8.56-.26-16.95-.82-25.11-1.68h-.14a1.61,1.61,0,0,0-1.61,1.61,1.63,1.63,0,0,0,.54,1.21h0q9.45,8,19.93,15.55h0a2.16,2.16,0,0,1,.9,1.75,2.23,2.23,0,0,1-.19.9h0a26.87,26.87,0,0,1-24.49,15.78H341.23a1.07,1.07,0,0,1-1.07-1.07,1,1,0,0,1,.06-.36L370.71,9Z"/><path class="cls-2" d="M464.83,123.32l-37.69-116A10.74,10.74,0,0,0,417,0H383.9a.54.54,0,0,0-.53.54.54.54,0,0,0,.27.47h0a10.81,10.81,0,0,1,5.13,6.09h0l19.92,61.32h0a1.05,1.05,0,0,0,1,.75c8.56-.25,16.95-.82,25.11-1.68H435a1.61,1.61,0,0,1,1.61,1.61,1.63,1.63,0,0,1-.54,1.21h0q-9.66,8.14-20.4,15.88A1.61,1.61,0,0,0,415,87.5,1.7,1.7,0,0,0,415,88h0l2.52,7.75h0a42,42,0,0,0,39.91,29h6.34a1.07,1.07,0,0,0,1.07-1.07A.91.91,0,0,0,464.83,123.32Z"/><text class="cls-3" transform="translate(1.22 292.18)">ENGLISH MADRID</text></g></g></svg>