<svg xmlns="http://www.w3.org/2000/svg" viewBox="0 0 228 228"><defs><style>.cls-1{fill:#fff;}</style></defs><title>FECEI_white</title><g id="Layer_2" data-name="Layer 2"><g id="Layer_1-2" data-name="Layer 1"><path class="cls-1" d="M114,228A114,114,0,1,1,228,114,114.13,114.13,0,0,1,114,228ZM114,4A110,110,0,1,0,224,114,110.13,110.13,0,0,0,114,4Z"/><path class="cls-1" d="M114,199a85,85,0,1,1,85-85A85.07,85.07,0,0,1,114,199ZM114,33a81,81,0,1,0,81,81A81.06,81.06,0,0,0,114,33Z"/><path class="cls-1" d="M54.51,101.28H76.36V107H60.82v6.11h13.7v5.74H60.82V130H54.51Z"/><path class="cls-1" d="M81.4,101.28h21.65v5.62H87.68v5.82h13.53v5.62H87.68v6h15.58V130H81.4Z"/><path class="cls-1" d="M107.6,115.71v-.08a14.59,14.59,0,0,1,15-14.84c5.41,0,8.65,1.8,11.32,4.43l-4,4.63c-2.22-2-4.47-3.24-7.34-3.24-4.84,0-8.32,4-8.32,8.94v.08c0,4.92,3.4,9,8.32,9,3.28,0,5.29-1.31,7.54-3.36l4,4.06a14.68,14.68,0,0,1-11.77,5.12A14.49,14.49,0,0,1,107.6,115.71Z"/><path class="cls-1" d="M139.13,101.28h21.65v5.62H145.41v5.82h13.53v5.62H145.41v6H161V130H139.13Z"/><path class="cls-1" d="M166.89,101.28h6.31V130h-6.31Z"/><polygon class="cls-1" points="114 46.34 110.71 48.07 111.34 44.41 108.68 41.82 112.36 41.29 114 37.96 115.64 41.29 119.32 41.82 116.66 44.41 117.29 48.07 114 46.34"/><polygon class="cls-1" points="88.41 50.64 85.99 53.46 85.22 49.83 81.8 48.4 85.02 46.55 85.32 42.84 88.07 45.34 91.68 44.48 90.17 47.87 92.1 51.04 88.41 50.64"/><polygon class="cls-1" points="66.11 63.97 64.85 67.46 62.84 64.34 59.13 64.22 61.48 61.34 60.45 57.78 63.91 59.13 66.98 57.04 66.77 60.75 69.7 63.03 66.11 63.97"/><polygon class="cls-1" points="50.61 84.88 50.67 88.59 47.69 86.38 44.17 87.58 45.36 84.06 43.13 81.09 46.84 81.13 48.98 78.09 50.09 81.63 53.64 82.73 50.61 84.88"/><polygon class="cls-1" points="43.98 109.88 45.39 113.31 41.8 112.34 38.97 114.74 38.79 111.03 35.63 109.08 39.1 107.76 39.98 104.16 42.31 107.05 46.01 106.77 43.98 109.88"/><polygon class="cls-1" points="46.16 135.9 48.74 138.57 45.05 138.99 43.31 142.27 41.76 138.89 38.11 138.25 40.84 135.74 40.33 132.06 43.56 133.89 46.9 132.26 46.16 135.9"/><polygon class="cls-1" points="57.19 159.36 60.56 160.93 57.27 162.64 56.81 166.33 54.16 163.73 50.52 164.44 52.17 161.11 50.37 157.87 54.05 158.41 56.58 155.69 57.19 159.36"/><polygon class="cls-1" points="76.6 176.91 80.3 177.19 77.82 179.95 78.7 183.56 75.3 182.06 72.14 184.01 72.52 180.32 69.69 177.91 73.32 177.13 74.73 173.69 76.6 176.91"/><polygon class="cls-1" points="100.89 185.76 104.44 184.68 103.13 188.16 105.25 191.21 101.54 191.03 99.3 193.99 98.32 190.41 94.81 189.2 97.91 187.15 97.98 183.44 100.89 185.76"/><polygon class="cls-1" points="127.11 185.76 130.02 183.44 130.09 187.15 133.19 189.2 129.68 190.41 128.7 193.99 126.46 191.03 122.75 191.21 124.87 188.16 123.56 184.68 127.11 185.76"/><polygon class="cls-1" points="151.4 176.91 153.27 173.69 154.68 177.13 158.31 177.91 155.48 180.32 155.86 184.01 152.7 182.06 149.3 183.56 150.18 179.95 147.7 177.19 151.4 176.91"/><polygon class="cls-1" points="170.81 159.36 171.42 155.69 173.95 158.41 177.63 157.87 175.83 161.11 177.48 164.44 173.84 163.73 171.19 166.33 170.73 162.64 167.44 160.93 170.81 159.36"/><polygon class="cls-1" points="181.84 135.9 181.1 132.26 184.44 133.89 187.68 132.06 187.16 135.74 189.89 138.25 186.24 138.89 184.69 142.27 182.95 138.99 179.26 138.57 181.84 135.9"/><polygon class="cls-1" points="184.02 109.88 181.99 106.77 185.69 107.05 188.02 104.16 188.9 107.76 192.37 109.08 189.21 111.03 189.03 114.74 186.19 112.34 182.61 113.31 184.02 109.88"/><polygon class="cls-1" points="177.39 84.88 174.36 82.73 177.91 81.63 179.02 78.09 181.16 81.13 184.87 81.09 182.64 84.06 183.83 87.58 180.31 86.38 177.33 88.59 177.39 84.88"/><polygon class="cls-1" points="161.89 63.97 158.3 63.03 161.23 60.75 161.02 57.04 164.09 59.13 167.55 57.78 166.51 61.34 168.87 64.22 165.16 64.34 163.15 67.46 161.89 63.97"/><polygon class="cls-1" points="139.59 50.64 135.9 51.04 137.83 47.87 136.32 44.48 139.93 45.34 142.68 42.84 142.99 46.55 146.21 48.4 142.78 49.83 142.01 53.46 139.59 50.64"/><polygon class="cls-1" points="114 46.34 110.71 48.07 111.34 44.41 108.68 41.82 112.36 41.29 114 37.96 115.64 41.29 119.32 41.82 116.66 44.41 117.29 48.07 114 46.34"/><path class="cls-1" d="M31,172.72l-4.15-6.3.92-.6,3.5,5.31,3.13-2.06-3.13-4.75.9-.6,3.13,4.75L39.13,166l.65,1Z"/><path class="cls-1" d="M26.48,165.74l-3.64-6.66.95-.52,3.07,5.62L30,162.46l-2.75-5,.95-.51L31,162l3.22-1.77-3.1-5.68L32,154l3.68,6.73Z"/><path class="cls-1" d="M22.38,158.18l-1.44-3.35a5.24,5.24,0,0,1,2.59-7.19h0a5.26,5.26,0,0,1,7,3L32,154Zm7.2-7.07a4.07,4.07,0,0,0-5.51-2.37h0A4.09,4.09,0,0,0,22,154.39l1,2.26,7.63-3.28Z"/><path class="cls-1" d="M18.42,148.69l-2.34-7.22,1-.33,2,6.09,3.41-1.1-1.76-5.45,1-.34,1.76,5.45,3.5-1.13-2-6.16,1-.33,2.36,7.29Z"/><path class="cls-1" d="M15.83,140.54l-1-4.4a4.11,4.11,0,0,1,.36-3.14A2.87,2.87,0,0,1,17,131.75h0a3.07,3.07,0,0,1,3.62,2.1l3.46-4.1.33,1.42L21.16,135l.67,2.93,4-.91.27,1.15Zm4.24-5.49c-.35-1.53-1.39-2.45-2.71-2.15h0c-1.26.29-1.8,1.42-1.42,3.08l.72,3.15,4.15-.94Z"/><path class="cls-1" d="M13.22,127.49l-.14-1.1L23,120.31l.17,1.26-2.6,1.57.72,5.67,2.91.88.15,1.21Zm6.31-3.75-5,3,5.61,1.7Z"/><path class="cls-1" d="M17.9,121.9h0a5.27,5.27,0,0,1-5.6-5.11,5.41,5.41,0,0,1,1.52-4.15l.9.78a4.54,4.54,0,0,0-1.33,3.34,4.12,4.12,0,0,0,4.44,3.92h0A4.15,4.15,0,0,0,22,116.46a4.57,4.57,0,0,0-1.63-3.33l.74-.8a5.48,5.48,0,0,1,2,4.13A5.24,5.24,0,0,1,17.9,121.9Z"/><path class="cls-1" d="M12.42,112.18l0-1.19,10.5.25,0,1.18Z"/><path class="cls-1" d="M9.92,103.42l.64-1.13,1.24,1.84-.09,1Zm7.68,7.1h0a5.36,5.36,0,1,1,.94-10.67h0a5.36,5.36,0,1,1-.94,10.67Zm.86-9.44h0a4.13,4.13,0,1,0-.78,8.22h0a4.17,4.17,0,0,0,4.69-3.73A4.12,4.12,0,0,0,18.46,101.08Z"/><path class="cls-1" d="M13.53,98.2l.22-1.09,9.55-4.83-8.25-1.66.23-1.13,10.3,2.07-.19.93-9.78,5,8.44,1.7-.23,1.13Z"/><path class="cls-1" d="M16.36,85.63l2.37-7.21,1,.33-2,6.09L21.16,86,23,80.52l1,.33L22.19,86.3l3.49,1.15,2-6.16,1,.34-2.4,7.28Z"/><path class="cls-1" d="M27.08,81.67l-.51-1a5,5,0,0,0,2.77-2.74c.55-1.3.22-2.45-.73-2.85h0c-.9-.38-1.62-.12-2.9,1.74-1.43,2-2.58,2.74-4.17,2.06h0c-1.52-.64-2.07-2.46-1.29-4.29a5.47,5.47,0,0,1,2.62-2.9l.58,1A4.57,4.57,0,0,0,21.16,75c-.54,1.26-.18,2.35.69,2.72h0c.92.39,1.64.11,3-1.83s2.59-2.62,4.07-2l0,0c1.66.7,2.16,2.54,1.34,4.46A6.18,6.18,0,0,1,27.08,81.67Z"/><path class="cls-1" d="M22.27,70.15l1.82-3.48c1.1-2.1,2.93-2.9,4.77-1.94h0C30.89,65.79,31.05,68,30,70l-1.18,2.26L32.12,74,31.57,75Zm6.81-.7c.81-1.54.51-3-.71-3.62l0,0C27,65.12,25.8,65.75,25,67.25l-1.23,2.36,4.09,2.14Z"/><path class="cls-1" d="M27.71,60.21l.59-.93,11.49,1.6L39.11,62l-3-.45-3,4.83,1.68,2.54-.65,1ZM35,61.34l-5.8-.85,3.25,4.89Z"/><path class="cls-1" d="M31.84,52.55c-.62-.87-.76-1.5-.33-2s1.4-.83,1.71-1.22.18-.57-.08-1.05l.62-.45c.63.88.76,1.49.32,2s-1.39.83-1.7,1.22-.18.56.08,1.06Zm-.48,2.18.68-.87H42.75l-6.62-5.21.72-.9,8.25,6.49-.58.74h-11l6.77,5.32-.72.91Z"/><path class="cls-1" d="M41.37,50.52l0,0a5.35,5.35,0,1,1,7.46-7.68l0,0A5.33,5.33,0,0,1,49,50.48,5.27,5.27,0,0,1,41.37,50.52ZM48,43.74l0,0a4.17,4.17,0,0,0-6-.07,4.13,4.13,0,0,0,.2,6l0,0a4.16,4.16,0,0,0,6,.07A4.12,4.12,0,0,0,48,43.74Z"/><path class="cls-1" d="M45.91,38.53l.91-.77,6.08,7.18,4.51-3.83.71.84-5.41,4.59Z"/><path class="cls-1" d="M55,31.19l.91-.64,10,5.88-1,.74-2.61-1.56-4.67,3.3.59,3-1,.7ZM61.27,35l-5-3,1.13,5.76Z"/><path class="cls-1" d="M62.62,26.23l3.22-1.7a5.22,5.22,0,0,1,7.37,2l0,0a5.26,5.26,0,0,1-2.48,7.25l-3.22,1.7Zm7.62,6.61a4.06,4.06,0,0,0,1.91-5.68v0a4.09,4.09,0,0,0-5.79-1.64l-2.17,1.15L68.06,34Z"/><path class="cls-1" d="M71.76,21.51l7-2.91.41,1-5.91,2.45,1.37,3.32,5.3-2.2.41,1-5.29,2.19,1.41,3.4,6-2.49.42,1-7.08,2.94Z"/><path class="cls-1" d="M83.08,22.64v0a5.29,5.29,0,0,1,3.61-6.69,5.51,5.51,0,0,1,4.4.47l-.54,1.06A4.6,4.6,0,0,0,87,17a4.11,4.11,0,0,0-2.72,5.26v0a4.15,4.15,0,0,0,5.11,3,4.54,4.54,0,0,0,2.84-2.39l1,.52a5.46,5.46,0,0,1-3.53,2.93A5.23,5.23,0,0,1,83.08,22.64Z"/><path class="cls-1" d="M91.3,14.89l7.45-1.42L99,14.53l-6.29,1.2.67,3.52L99,18.17l.2,1.06-5.62,1.08.69,3.61,6.36-1.22.2,1.06L93.28,25.2Z"/><path class="cls-1" d="M99.77,13.29l1.1-.1,7.39,7.75-.8-8.38,1.15-.11,1,10.45-.94.09-7.57-7.92.82,8.57-1.15.11Z"/><path class="cls-1" d="M112.77,13.51l-3.53.06v-1.1l8.25-.13v1.1l-3.52.05.15,9.41-1.2,0Z"/><path class="cls-1" d="M118.33,12.42l4.5.36a4.19,4.19,0,0,1,2.89,1.29,2.88,2.88,0,0,1,.64,2.13v0a3.08,3.08,0,0,1-3.09,2.82l2.87,4.53-1.45-.11L122,19.16l-3-.24L118.66,23l-1.18-.09Zm4,5.69c1.57.13,2.76-.59,2.87-1.93v0c.1-1.29-.82-2.15-2.51-2.28l-3.23-.26-.34,4.24Z"/><path class="cls-1" d="M126.34,18.32v0a5.33,5.33,0,0,1,6.27-4.37,5.27,5.27,0,0,1,4.27,6.29v0a5.32,5.32,0,0,1-6.27,4.36A5.26,5.26,0,0,1,126.34,18.32ZM135.66,20v0a4.18,4.18,0,0,0-3.29-5,4.12,4.12,0,0,0-4.82,3.48v0a4.18,4.18,0,0,0,3.28,5A4.12,4.12,0,0,0,135.66,20Z"/><path class="cls-1" d="M135.64,23.83l1-.64a5,5,0,0,0,3,2.42c1.36.39,2.46-.08,2.74-1.07v0c.27-.94-.09-1.62-2.08-2.67-2.17-1.17-3-2.22-2.55-3.88v0c.46-1.59,2.19-2.35,4.11-1.81a5.46,5.46,0,0,1,3.19,2.26l-.91.69a4.67,4.67,0,0,0-2.6-1.93c-1.32-.38-2.36.11-2.62,1v0c-.27,1,.1,1.64,2.18,2.75s2.92,2.25,2.48,3.79v0c-.5,1.73-2.26,2.44-4.26,1.87A6.18,6.18,0,0,1,135.64,23.83Z"/><path class="cls-1" d="M149,18.48l3.37,1.4a5.24,5.24,0,0,1,3.15,7l0,0a5.25,5.25,0,0,1-7.17,2.7l-3.36-1.4Zm-.25,10.09a4.07,4.07,0,0,0,5.61-2.14v0a4.11,4.11,0,0,0-2.42-5.52L149.65,20l-3.2,7.67Z"/><path class="cls-1" d="M158.41,22.54l6.7,3.56-.5.95-5.66-3-1.68,3.16,5.06,2.69-.51,1-5-2.69L155,31.41l5.72,3-.5,1-6.77-3.6Z"/><path class="cls-1" d="M168,27.88l6.29,4.26-.61.89-5.3-3.59-2,3,4.75,3.21-.61.9L165.8,33.3l-2.07,3L169.1,40l-.61.9-6.34-4.31Z"/><path class="cls-1" d="M175.14,32.73l.86.71-.24,10.7,5.35-6.5.89.74-6.68,8.11-.73-.61.24-11-5.47,6.64-.89-.73Z"/><path class="cls-1" d="M176.28,45.32l1.13-.1a5,5,0,0,0,1.52,3.59c1,1,2.19,1.11,2.92.37l0,0c.68-.69.7-1.46-.54-3.34-1.35-2.07-1.59-3.4-.38-4.63l0,0c1.16-1.17,3.05-1,4.47.39a5.47,5.47,0,0,1,1.72,3.51l-1.14.16a4.58,4.58,0,0,0-1.35-2.94c-1-1-2.12-1-2.78-.36l0,0c-.7.7-.7,1.48.59,3.45s1.47,3.38.35,4.52l0,0c-1.26,1.28-3.15,1.06-4.63-.41A6.09,6.09,0,0,1,176.28,45.32Z"/><path class="cls-1" d="M188.79,45.14l5,5.76-.82.7-4.18-4.86L186,49.08l3.74,4.35-.82.7-3.74-4.35-2.79,2.4,4.23,4.92-.82.7-5-5.81Z"/><path class="cls-1" d="M194.37,51.68l.64.9-3,10.27L198.84,58l.67.94L190.94,65l-.55-.77,3.1-10.52-7,5-.67-.94Zm1.94,1.08c1-.35,1.66-.31,2.07.27s.4,1.57.68,2,.5.33,1,.22l.25.73c-1,.35-1.64.3-2.05-.28s-.4-1.57-.68-2-.5-.33-1-.22Z"/><path class="cls-1" d="M202.32,63.6l.54,1L196,73.93l-.62-1.11,1.81-2.43-2.81-5-3,.28-.59-1.06Zm-4.43,5.86,3.49-4.71-5.84.54Z"/><path class="cls-1" d="M205.43,69.44l.44,1-5.08,9.41,7.72-3.35.46,1.06-9.63,4.18L199,80.9l5.18-9.65-7.89,3.43-.46-1.05Z"/><path class="cls-1" d="M200.11,81.58l10.32,3.79-2-6.25,1-.33,2.53,7.79-.75.25L200.86,83,203,89.5l-1,.33-2.6-8Z"/><path class="cls-1" d="M213.14,91.35l.24,1.09-9.29,7-.28-1.24,2.45-1.81L205,90.77l-3-.61L201.78,89Zm-5.94,4.32,4.71-3.49L206.16,91Z"/><path class="cls-1" d="M214.77,100.31l.33,3.63a5.24,5.24,0,0,1-4.69,6h0a5.25,5.25,0,0,1-5.73-5.08l-.33-3.63Zm-9,4.48a4.06,4.06,0,0,0,4.5,4h0A4.1,4.1,0,0,0,214,104l-.22-2.45-8.28.75Z"/><path class="cls-1" d="M215.65,110.67l-.12,7.59-1.08,0,.1-6.41-3.58,0-.1,5.73-1.08,0,.1-5.73-3.68-.06-.1,6.48-1.08,0,.12-7.66Z"/><path class="cls-1" d="M215.33,121.42l-.1,1.18-10.46-.82.09-1.18Z"/><path class="cls-1" d="M215.2,124l-.51,3.61a5.22,5.22,0,0,1-5.94,4.79h0a5.25,5.25,0,0,1-4.42-6.25l.51-3.61Zm-9.82,2.3a4.07,4.07,0,0,0,3.48,4.88h0a4.08,4.08,0,0,0,4.72-3.72L214,125l-8.22-1.16Z"/><path class="cls-1" d="M213.63,134l-.24,1.16L203.1,133l.24-1.16Z"/><path class="cls-1" d="M208.24,134.7h0A5.36,5.36,0,1,1,205.43,145h0a5.36,5.36,0,1,1,2.84-10.33Zm-2.54,9.13h0A4.13,4.13,0,1,0,208,135.9h0a4.19,4.19,0,0,0-5.29,2.83A4.12,4.12,0,0,0,205.7,143.83Z"/><path class="cls-1" d="M210,147.6l-.45,1.11-6.75,1.39,3.87,5.7-.45,1.12-9.74-4,.45-1.1,7.88,3.21-3.77-5.67,0-.05,6.64-1.43-7.87-3.2.44-1.07Z"/><path class="cls-1" d="M203.73,161.85l-.52,1L191.62,162l.61-1.12,3,.24,2.72-5-1.85-2.42.58-1.07Zm-7.31-.64,5.84.46L198.69,157Z"/><path class="cls-1" d="M193.48,161.75l.32,1.1a5,5,0,0,0-3.23,2.17c-.78,1.18-.66,2.37.2,2.94l0,0c.82.54,1.57.4,3.17-1.18,1.77-1.72,3-2.21,4.47-1.26l0,0c1.37.91,1.58,2.79.48,4.45a5.47,5.47,0,0,1-3.11,2.37l-.38-1.08a4.65,4.65,0,0,0,2.62-1.9c.75-1.14.61-2.27-.18-2.8h0c-.83-.55-1.59-.41-3.28,1.24s-3,2.1-4.36,1.21h0c-1.5-1-1.65-2.89-.5-4.63A6.15,6.15,0,0,1,193.48,161.75Z"/><path class="cls-1" d="M54.41,191.9l4.12,3-1.2,1.65-4.12-3Z"/><path class="cls-1" d="M68.38,202.93l0,0c1.24-2.74,3.81-3.44,5.78-2.55a3.78,3.78,0,0,1,2.16,2.73l2-4.44,1.9.86-5.18,11.43-1.9-.86.63-1.38a3.65,3.65,0,0,1-3.52.27C68.33,208.08,67.14,205.67,68.38,202.93Zm6.69,3v0a2.72,2.72,0,0,0-1.19-3.73,2.66,2.66,0,0,0-3.58,1.57l0,0a2.69,2.69,0,0,0,1.19,3.72A2.73,2.73,0,0,0,75.07,206Z"/><path class="cls-1" d="M79.21,207.7v0a4.5,4.5,0,0,1,5.67-3.14c2.75.88,3.44,3.49,2.64,6a4.13,4.13,0,0,1-.21.55L81,209a2.53,2.53,0,0,0,1.78,3,3.3,3.3,0,0,0,2.67-.28l.83,1.41a4.6,4.6,0,0,1-4.06.48A4.53,4.53,0,0,1,79.21,207.7Zm6.6,1.42a2.35,2.35,0,0,0-1.46-3,2.45,2.45,0,0,0-3,1.55Z"/><path class="cls-1" d="M88.49,214l1.2-1.18a5.11,5.11,0,0,0,2.67,1.72c.88.19,1.46-.07,1.59-.66v0c.15-.69-.74-1.13-1.72-1.67C91,211.55,89.67,210.7,90,209v0c.36-1.68,2-2.4,3.74-2a6.29,6.29,0,0,1,3,1.71l-1.12,1.27a5.3,5.3,0,0,0-2.32-1.38c-.79-.17-1.33.1-1.44.62v0c-.14.64.76,1.12,1.73,1.68,1.21.68,2.54,1.59,2.2,3.18v0c-.4,1.86-2,2.47-3.89,2.07A6.33,6.33,0,0,1,88.49,214Z"/><path class="cls-1" d="M98.18,212.69v0c.33-3,2.55-4.45,4.7-4.22a3.78,3.78,0,0,1,2.9,1.92l.53-4.85,2.06.23L107,218.19,105,218l.16-1.5a3.65,3.65,0,0,1-3.26,1.35A4.35,4.35,0,0,1,98.18,212.69Zm7.29.79v0a2.72,2.72,0,0,0-2.29-3.17,2.65,2.65,0,0,0-2.91,2.6v0a2.69,2.69,0,0,0,2.28,3.17A2.73,2.73,0,0,0,105.47,213.48Z"/><path class="cls-1" d="M110,213.9v0a4.5,4.5,0,0,1,4.36-4.79c2.88,0,4.38,2.19,4.42,4.81,0,.18,0,.37,0,.58l-6.67.11a2.54,2.54,0,0,0,2.65,2.26,3.33,3.33,0,0,0,2.44-1.12l1.24,1.06a4.63,4.63,0,0,1-3.69,1.76A4.53,4.53,0,0,1,110,213.9Zm6.71-.78a2.36,2.36,0,0,0-2.34-2.35,2.46,2.46,0,0,0-2.32,2.42Z"/><path class="cls-1" d="M127.34,207.43l-2,.91-.69-1.64,3.05-1.48,1.46-.22,1.74,12-2.07.3Z"/><path class="cls-1" d="M134.17,215.21l.74-1.84a4,4,0,0,0,2.93.46c1.72-.42,2.39-2.19,1.94-4.36a3.54,3.54,0,0,1-2.44,1.9c-2.49.6-4.49-.45-5-2.7v0a4.18,4.18,0,0,1,3.38-5.09,4.3,4.3,0,0,1,3.54.45c1.08.66,1.94,1.81,2.5,4.11v0c.91,3.75-.32,6.81-3.46,7.57A5.71,5.71,0,0,1,134.17,215.21Zm4.91-8.31v0a2.27,2.27,0,0,0-2.95-1.57,2.21,2.21,0,0,0-1.8,2.74v0a2.47,2.47,0,0,0,4.75-1.17Z"/><path class="cls-1" d="M144.65,210.45l0,0a3,3,0,0,1,1-3.5,2.88,2.88,0,0,1-2.57-1.91v0c-.64-1.72.53-3.66,2.79-4.49s4.4-.13,5,1.61v0a2.89,2.89,0,0,1-.72,3.12,3.09,3.09,0,0,1,3,2v0c.74,2-.63,4-3.1,4.85S145.36,212.38,144.65,210.45Zm4.43-7.44v0a1.91,1.91,0,0,0-2.6-.84c-1.21.45-1.75,1.45-1.44,2.31l0,0a2.18,2.18,0,0,0,4-1.47Zm2.19,4.85v0c-.38-1-1.66-1.33-3-.84s-2.12,1.55-1.74,2.58v0c.34.91,1.51,1.36,3,.81S151.61,208.79,151.27,207.86Z"/><path class="cls-1" d="M154.17,204v0c-1.57-3.06-1-6.49,1.84-7.94s5.9.07,7.47,3.12l0,0c1.56,3.06,1,6.5-1.84,7.94S155.74,207,154.17,204Zm7.39-3.79,0,0c-1.08-2.11-3-3.28-4.7-2.43s-1.84,3.07-.76,5.19l0,0c1.08,2.11,3,3.29,4.71,2.44S162.64,202.27,161.56,200.16Z"/><path class="cls-1" d="M169.47,194.89l4.12-3,1.2,1.65-4.12,3Z"/></g></g></svg>