<svg xmlns="http://www.w3.org/2000/svg" viewBox="0 0 161.64 127.85"><defs><style>.cls-1{fill:#fff;}</style></defs><title>ALG_white</title><g id="Layer_2" data-name="Layer 2"><g id="Layer_1-2" data-name="Layer 1"><path class="cls-1" d="M105.11,53c-.47-1-21.23-50.93-21.55-51.46A2.94,2.94,0,0,0,80.9,0l-.37,0a2.73,2.73,0,0,0-2.29,1.42c-.54,1-20.14,50-20.93,51.92a1.54,1.54,0,0,1-.78.9,3.45,3.45,0,0,1-1.35.68c-.56.09-50.6,4.62-52,4.77a2.68,2.68,0,0,0-1.36.49,3.62,3.62,0,0,0-1.5,2.11A3.07,3.07,0,0,0,.72,65c.6.77,25.14,22.65,25.79,23.27a.42.42,0,0,0,.27.14.27.27,0,0,0,.22-.15c.73-1.1,1.31-2.28,2.06-3.37.52-.76,1-1.55,1.53-2.3.69-1,1.33-2,2.08-2.87s1.32-1.69,2-2.51c1.14-1.36,2.34-2.67,3.55-4,.78-.82,1.6-1.61,2.44-2.36s1.6-1.53,2.48-2.22,2-1.57,2.93-2.34c.71-.57,1.47-1.07,2.2-1.6,1.09-.78,2.28-1.42,3.43-2.12,1.62-1,3.29-1.84,5-2.65.77-.37,1.56-.69,2.35-1,1-.4,2-.8,3-1.14.58-.2,1.15-.44,1.74-.62.92-.28,1.86-.52,2.79-.78,1.49-.41,3-.75,4.52-1s3.06-.47,4.61-.59,2.94-.24,4.42-.25a3.36,3.36,0,0,1,.77-.08,8.24,8.24,0,0,1,1,.07l2.22.08c1.18,0,2.36.16,3.53.29a47.64,47.64,0,0,1,5.42,1c1.18.27,2.35.59,3.51.94,1.79.54,3.55,1.13,5.28,1.83q1.58.65,3.12,1.38a71.09,71.09,0,0,1,7.2,4l2.3,1.52a41.85,41.85,0,0,1,3.45,2.63c1.3,1.06,2.54,2.18,3.81,3.28s2.4,2.38,3.58,3.6,2.18,2.38,3.2,3.63c.55.66,1.1,1.31,1.6,2,.82,1.15,1.71,2.25,2.47,3.44s1.52,2.21,2.18,3.38c.16.27.23.4.33.4s.19-.1.38-.29C136.7,86.42,158.24,65,160.35,63a3.45,3.45,0,0,0,1.21-2.76,3.08,3.08,0,0,0-3.31-3h0c-.69,0-49.19-2.68-50.44-2.71a2.72,2.72,0,0,1-2-.83C105.35,53.69,105.24,53.32,105.11,53Z"/><path class="cls-1" d="M21.19,57.05l6.41-.58L43,55.06C33.13,52.54,1.2,44.38.18,44.2l-.06.06.48.3C6.36,48.05,17.34,54.66,21.19,57.05Z"/><path class="cls-1" d="M22.56,58C23,58,44.1,56.08,45.22,56c.29,0,.62,0,.89-.16H46L22.55,57.93Z"/><path class="cls-1" d="M141.2,56.38h0l-22.63-1.23C120.63,55.49,140.32,56.45,141.2,56.38Z"/><path class="cls-1" d="M133.2,54.94l9.48.52c4.56-2.77,18.22-10.88,19-11.32h-.28c-1.26.32-29.79,7.71-39.65,10.18Z"/><path class="cls-1" d="M97.57,35.11c.65,1.55,7.07,16.91,7.54,17.94.13.28.24.66.66.71h0c-.42-.06-.53-.43-.66-.71s-3.56-8.49-7.58-18.12A.28.28,0,0,0,97.57,35.11Z"/><path class="cls-1" d="M106,52.62l.06.12h0c2-5.55,17.88-48.25,18.52-50a.71.71,0,0,0-.33.31c-.9,1.06-21.84,26.09-26,31C102.21,43.52,105.83,52.21,106,52.62Z"/><path class="cls-1" d="M56.53,54.26h0v0a1.56,1.56,0,0,0,.78-.91c.75-1.8,6.42-15.7,7.12-17.74-3.72,9.27-6.81,17-7.12,17.73A1.54,1.54,0,0,1,56.53,54.26Z"/><path class="cls-1" d="M37,2.83Z"/><path class="cls-1" d="M37.11,3.25c.7,1.86,13.36,35,19,49.68.05.12.09.23.14.34a1,1,0,0,0,.17-.3c.23-.55,2-5,4.5-11.2l2.87-7.14C59.29,29.31,37.83,3.78,37,2.83,36.94,3,37.06,3.12,37.11,3.25Z"/><path class="cls-1" d="M70.44,65.4l-6,1.24-1.14.24c-.16,0-.21.1-.19.29.1,1,.32,2.06.47,3.08s.3,2.11.5,3.15.31,2,.5,3c.12.65.2,1.31.3,2,0,.34-.13.37-.32.42l-2.46.61-1.59.38c-.48.13-.58.09-.68-.36-.22-.94-.43-1.87-.64-2.81s-.36-1.67-.55-2.51l-.84-3.77c-.12-.54-.14-.6-.62-.38-.78.37-1.61.61-2.39,1a18.94,18.94,0,0,0-2.26,1.31c-.42.26-.16.64-.07.89.48,1.36.77,2.76,1.19,4.13s.83,2.83,1.24,4.24c.06.21.08.37-.16.46-1,.39-2,.89-3,1.36-.3.14-.45,0-.52-.21-.24-1.06-.72-2-1-3.12-.18-.73-.5-1.43-.74-2.15s-.44-1.35-.64-2c-.08-.29-.29-.53-.27-.9a23.47,23.47,0,0,1-2.4,1.92c-.58.4-1.05.92-1.63,1.33a.59.59,0,0,0-.19.88,15.63,15.63,0,0,1,.85,2.12,11,11,0,0,0,.57,1.44,1.84,1.84,0,0,1,.29.89.34.34,0,0,0,.07.24,6.72,6.72,0,0,1,.76,1.71c.12.24,0,.39-.25.58-.73.52-1.57.84-2.3,1.35-.23.17-.33.1-.47-.15-.49-.84-.93-1.7-1.38-2.56s-1-1.9-1.48-2.85c-.12-.23-.19-.33-.41-.09-.86.94-1.71,1.88-2.62,2.78-.34.33-.32.53-.11.93.63,1.14,1.4,2.19,2,3.38a2.47,2.47,0,0,0,.28.38c.46.69.45.86-.23,1.35s-1.42,1.09-2.09,1.67a.18.18,0,0,1-.3,0,2.74,2.74,0,0,1-.4-.5c-.53-1-1.3-1.94-1.83-3-.12-.22-.27-.25-.46,0-.5.59-.77,1.32-1.24,1.93a.3.3,0,0,0,0,.33c.38.74.83,1.45,1.28,2.16.19.3.36.61.57.91.1.15,0,.18-.09.26-.24.25-.56.41-.8.66a.41.41,0,0,1-.67,0,12.72,12.72,0,0,0-1.16-1c-1.51-1.39-3-2.73-4.58-4.1a6.4,6.4,0,0,0-.6-.56c-.19-.12-.1-.27,0-.41.7-1.12,1.36-2.27,2.11-3.35s1.33-2,2.09-3,1.63-2.22,2.55-3.25c.53-.59,1.06-1.18,1.54-1.8a46.49,46.49,0,0,1,3.3-3.57A53.77,53.77,0,0,1,43.27,70c1.15-1,2.32-1.88,3.53-2.75a59.94,59.94,0,0,1,6.45-4.15c1.35-.72,2.72-1.39,4.11-2,1.62-.76,3.29-1.38,5-2a42.7,42.7,0,0,1,5.32-1.57,49.76,49.76,0,0,1,5.55-1c1.54-.2,3.1-.31,4.65-.44,1.07-.09,2.14,0,3.21,0,.8,0,1.62,0,2.42.05,1.14,0,2.28.14,3.41.27s2.22.33,3.33.5,1.94.37,2.91.58c1.55.35,3.09.77,4.61,1.26,1.19.39,2.37.82,3.55,1.26.87.33,1.71.72,2.57,1a14.62,14.62,0,0,1,1.51.69c.92.48,1.88.91,2.8,1.39,1.52.8,3,1.7,4.42,2.64,1.15.77,2.3,1.54,3.4,2.38.55.43,1.14.81,1.67,1.27s1.24,1.06,1.87,1.57c2,1.66,3.85,3.58,5.72,5.42.48.47.88,1,1.35,1.51a14.55,14.55,0,0,1,1.21,1.41c.68.89,1.46,1.7,2.1,2.62.37.54.81,1,1.21,1.58s1,1.38,1.42,2.08,1,1.53,1.55,2.31l.07.11c.42.58.41.57-.06,1.08-2,2.14-4.09,4.16-6.14,6.23-.28.29-.5.41-.76,0a2.22,2.22,0,0,0-.31-.3c-.49-.43-.51-.44-.18-1,.56-1,1.07-2.11,1.58-3.18a.44.44,0,0,0-.05-.57c-.55-.6-1.08-1.21-1.61-1.82-.17-.21-.24-.12-.37.06-.71,1-1.22,2.14-1.88,3.19-.53.85-.51.85-1.26.2a10.56,10.56,0,0,0-1.25-1c-.34-.21-.42-.36-.26-.78.3-.77.73-1.46,1-2.22.34-.92.77-1.8,1.16-2.69.21-.48-.11-.73-.34-.91-1-.74-1.77-1.67-2.69-2.46-.21-.18-.29-.21-.43.05-.56,1-1.13,2-1.67,3.07-.4.76-.87,1.48-1.2,2.28-.09.23-.24.39-.56.19-.65-.43-1.33-.8-2-1.19-.2-.11-.28-.22-.19-.47.66-1.75,1.3-3.51,2-5.27.19-.53.39-1.05.6-1.57.07-.16,0-.21-.12-.28l-2.45-2c-.37-.3-.74-.59-1.1-.91s-.31,0-.36.13c-.27,1-.7,1.91-1,2.88-.26.8-.58,1.57-.87,2.36s-.58,1.56-.84,2.35c-.09.25-.22.33-.49.19-1-.54-2.08-1.06-3.13-1.58-.15-.07-.17-.14-.12-.32.36-1.36.67-2.74,1-4.1s.75-2.89,1.15-4.32c.08-.29,0-.39-.21-.5L104,70.19c-.26-.14-.35,0-.4.18-.41,1.72-.81,3.45-1.22,5.17-.34,1.39-.71,2.77-1,4.17-.06.25-.18.17-.31.13-1-.3-2-.62-3-.93-.38-.12-.75-.26-1.14-.35s-.38-.17-.32-.45c.18-.87.2-1.76.38-2.64.13-.65.16-1.34.24-2s.19-1.51.29-2.26c.15-1.11.24-2.23.48-3.33a.43.43,0,0,0-.34-.54l-6-1.94c-.57-.18-.6-.18-.67.41-.12,1-.19,2-.29,3s-.22,2.12-.32,3.18c-.07.7-.13,1.4-.19,2.11-.09,1-.17,2-.26,3,0,.17-.09.21-.25.2L85.08,77c-.41,0-.41-.34-.39-.6,0-.75.08-1.51.09-2.26s.13-1.63.13-2.44S85,70.15,85,69.4s.08-1.77.06-2.66a21.26,21.26,0,0,1,.15-2.51c0-.41-.13-.53-.53-.51-1.93.1-3.87.18-5.81.26-.7,0-1.4,0-2.09,0-.35,0-.61,0-.48.54a3.18,3.18,0,0,1,0,.82c.06,2.17.08,4.35.19,6.52.07,1.52.07,3,.16,4.56,0,.34-.08.42-.43.45-1,.06-1.95.2-2.92.3L72,77.32c-.21,0-.29,0-.31-.28-.11-1.1-.27-2.18-.38-3.27S71.1,71.4,71,70.22c-.08-.75-.17-1.51-.24-2.27S70.54,66.27,70.44,65.4Z"/><path class="cls-1" d="M.12,44.26,0,44.16a.12.12,0,0,1,.18,0Z"/><path class="cls-1" d="M37,2.82H37l0-.06,0,.07Z"/><path class="cls-1" d="M40.37,104.1h1l2.18,5.12H42.41L42,108.08H39.8l-.47,1.14H38.19Zm1.18,3-.68-1.65-.67,1.65Z"/><path class="cls-1" d="M44.36,104.14h1.21l1.33,2.15,1.34-2.15h1.21v5.08H48.34V105.9l-1.44,2.17h0l-1.41-2.15v3.3h-1.1Z"/><path class="cls-1" d="M50.66,104.14H54.5v1H51.78v1h2.39v1H51.78v1.07h2.76v1H50.66Z"/><path class="cls-1" d="M55.53,104.14h2.32a2.07,2.07,0,0,1,1.49.51,1.64,1.64,0,0,1,.43,1.17h0a1.58,1.58,0,0,1-1.09,1.58l1.24,1.81h-1.3l-1.09-1.63h-.88v1.63H55.53Zm2.25,2.47c.55,0,.86-.29.86-.72v0c0-.48-.34-.72-.88-.72H56.65v1.46Z"/><path class="cls-1" d="M60.83,104.14H62v5.08H60.83Z"/><path class="cls-1" d="M63,106.69h0a2.58,2.58,0,0,1,2.65-2.63,2.65,2.65,0,0,1,2,.78l-.71.83a1.88,1.88,0,0,0-1.3-.58,1.51,1.51,0,0,0-1.48,1.59h0a1.52,1.52,0,0,0,1.48,1.6,1.84,1.84,0,0,0,1.33-.6l.72.72a2.62,2.62,0,0,1-2.09.91A2.58,2.58,0,0,1,63,106.69Z"/><path class="cls-1" d="M70.32,104.1h1l2.18,5.12H72.36l-.46-1.14H69.75l-.47,1.14H68.14Zm1.18,3-.68-1.65-.67,1.65Z"/><path class="cls-1" d="M74.31,104.14h1l2.38,3.13v-3.13h1.1v5.08h-1L75.42,106v3.23H74.31Z"/><path class="cls-1" d="M82.34,104.14h.57v4.55h2.86v.53H82.34Z"/><path class="cls-1" d="M88.71,104.1h.54l2.32,5.12H91l-.6-1.34H87.59L87,109.22H86.4Zm1.42,3.26L89,104.77l-1.16,2.59Z"/><path class="cls-1" d="M92.57,104.14h.54l3.2,4.07v-4.07h.56v5.08h-.46l-3.28-4.17v4.17h-.56Z"/><path class="cls-1" d="M98.08,106.69h0a2.55,2.55,0,0,1,2.55-2.63,2.66,2.66,0,0,1,1.89.68l-.37.43a2.16,2.16,0,0,0-1.54-.58,2,2,0,0,0-1.94,2.09h0a2,2,0,0,0,2,2.11,2.39,2.39,0,0,0,1.46-.5V107h-1.54v-.52h2.09v2a3.08,3.08,0,0,1-2,.78A2.49,2.49,0,0,1,98.08,106.69Z"/><path class="cls-1" d="M103.92,107.09v-3h.57v2.92a1.49,1.49,0,0,0,1.55,1.71c.94,0,1.54-.56,1.54-1.68v-3h.57v2.91a2.12,2.12,0,1,1-4.23,0Z"/><path class="cls-1" d="M111.21,104.1h.53l2.32,5.12h-.62l-.59-1.34h-2.77l-.6,1.34h-.59Zm1.41,3.26-1.15-2.59-1.16,2.59Z"/><path class="cls-1" d="M114.54,106.69h0a2.55,2.55,0,0,1,2.55-2.63,2.64,2.64,0,0,1,1.89.68l-.37.43a2.16,2.16,0,0,0-1.54-.58,2,2,0,0,0-1.94,2.09h0a2,2,0,0,0,2,2.11,2.39,2.39,0,0,0,1.46-.5V107h-1.54v-.52h2.1v2a3.12,3.12,0,0,1-2,.78A2.49,2.49,0,0,1,114.54,106.69Z"/><path class="cls-1" d="M120.46,104.14h3.67v.52H121v1.74h2.77v.52H121v1.78h3.14v.52h-3.71Z"/><path class="cls-1" d="M64.9,116.21h0A3.11,3.11,0,0,1,68,113a3.31,3.31,0,0,1,2.35.83l-.68.81A2.39,2.39,0,0,0,68,114a2.06,2.06,0,0,0-2,2.15v0a2,2,0,0,0,2.08,2.17,2.5,2.5,0,0,0,1.47-.46v-1.14H68v-.93h2.6v2.56a4,4,0,0,1-2.55.95A3,3,0,0,1,64.9,116.21Z"/><path class="cls-1" d="M72,113.15h2.72a2.44,2.44,0,0,1,1.76.61,1.84,1.84,0,0,1,.5,1.31v0a1.84,1.84,0,0,1-1.45,1.85l1.64,2.31H75.91l-1.5-2.13H73.07v2.13H72Zm2.64,3c.77,0,1.25-.4,1.25-1v0c0-.65-.47-1-1.26-1H73.07v2Z"/><path class="cls-1" d="M78,116.21h0a3.19,3.19,0,0,1,6.38,0v0a3.13,3.13,0,0,1-3.2,3.15A3.1,3.1,0,0,1,78,116.21Zm5.25,0h0A2.08,2.08,0,0,0,81.21,114a2.06,2.06,0,0,0-2.06,2.15v0a2.1,2.1,0,0,0,2.08,2.17A2.06,2.06,0,0,0,83.28,116.21Z"/><path class="cls-1" d="M85.61,116.66v-3.51h1.07v3.46c0,1.14.58,1.75,1.54,1.75s1.54-.58,1.54-1.7v-3.51h1.07v3.46a2.43,2.43,0,0,1-2.63,2.73A2.4,2.4,0,0,1,85.61,116.66Z"/><path class="cls-1" d="M92.3,113.15h2.4a2.05,2.05,0,0,1,2.32,2v0c0,1.37-1.09,2.09-2.44,2.09H93.37v2H92.3Zm2.32,3.17c.81,0,1.31-.46,1.31-1.09v0c0-.71-.51-1.09-1.31-1.09H93.37v2.2Z"/><path class="cls-1" d="M75.9,122.91h.51l2.2,4.86H78l-.57-1.28H74.83l-.57,1.28H73.7ZM77.25,126l-1.1-2.46L75.05,126Z"/><path class="cls-1" d="M79.57,122.94h.54v4.33h2.72v.5H79.57Z"/><path class="cls-1" d="M83.35,125.37h0a2.42,2.42,0,0,1,2.42-2.5,2.55,2.55,0,0,1,1.8.64l-.35.42a2.05,2.05,0,0,0-1.47-.56,1.89,1.89,0,0,0-1.84,2v0a1.86,1.86,0,0,0,1.91,2,2.31,2.31,0,0,0,1.4-.48v-1.2H85.75v-.49h2v1.93a2.92,2.92,0,0,1-1.94.73A2.36,2.36,0,0,1,83.35,125.37Z"/><rect class="cls-1" x="37.71" y="115.84" width="21.12" height="1"/><rect class="cls-1" x="103.66" y="115.84" width="21.12" height="1"/></g></g></svg>