<?xml version="1.0" encoding="utf-8"?>
<!-- Generator: Adobe Illustrator 22.0.1, SVG Export Plug-In . SVG Version: 6.00 Build 0)  -->
<svg version="1.1" id="Capa_1" xmlns="http://www.w3.org/2000/svg" xmlns:xlink="http://www.w3.org/1999/xlink" x="0px" y="0px"
	 viewBox="0 0 4401.3 354.3" style="enable-background:new 0 0 4401.3 354.3;" xml:space="preserve">
<style type="text/css">
	.st0{fill:#FFFFFF;}
</style>
<path class="st0" d="M80.5,23.8c2.7-8,10.2-13.7,19-13.7c8.8,0,16.4,5.7,19,13.7l0,0l31.5,96.9l-19.4,59.7v0c-0.4,1.1-1.4,2-2.7,2
	c-22.6-0.7-44.7-2.2-66.2-4.4v0c-0.1,0-0.2,0-0.4,0c-2.3,0-4.3,1.9-4.3,4.3c0,1.3,0.6,2.4,1.4,3.2l0,0c16.6,14,34.2,27.7,52.6,41
	l0,0c1.4,1,2.4,2.7,2.4,4.6c0,0.8-0.2,1.6-0.5,2.4l0,0c-11.1,24.5-35.9,41.6-64.6,41.6h0H2.8c-1.6,0-2.8-1.3-2.8-2.8
	c0-0.3,0.1-0.6,0.2-0.9L80.5,23.8L80.5,23.8z M328.7,325.1L229.3,19.3C225.5,8.1,214.9,0,202.5,0h-87.1c0,0,0,0,0,0
	c-0.8,0-1.4,0.6-1.4,1.4c0,0.5,0.3,1,0.7,1.2c0,0,0,0,0,0c6.3,3.4,11.2,9.1,13.5,16.1l0,0l52.5,161.7v0c0.4,1.1,1.4,2,2.7,2
	c22.6-0.7,44.7-2.2,66.2-4.4v0c0.1,0,0.2,0,0.4,0c2.3,0,4.3,1.9,4.3,4.3c0,1.3-0.6,2.4-1.4,3.2l0,0c-17,14.3-34.9,28.3-53.8,41.9
	c-1.1,0.8-1.8,2-1.8,3.4c0,0.4,0.1,0.8,0.2,1.2l0,0l6.6,20.4h0c14.4,44.4,56,76.5,105.2,76.5v0H326c1.6,0,2.8-1.3,2.8-2.8
	C328.8,325.7,328.8,325.4,328.7,325.1z"/>
<path class="st0" d="M1770.3,270.3h98.2v-12.9h-84l0-133.7h-14.2V270.3L1770.3,270.3z M1996.2,230.8l17.5,39.5h15.2l-66.8-147.7
	H1948l-66.8,147.7h14.4l17.7-39.5H1996.2L1996.2,230.8z M1918.7,218.3l36.1-80.7l35.9,80.7H1918.7L1918.7,218.3z M2176.5,270.3h11.5
	V123.7h-13.8v122.1l-96-122.1h-13.8v146.6h13.8V145.4L2176.5,270.3L2176.5,270.3z M2240.6,197.4c0.1,42,28.4,75.4,74.6,75.4l0,0
	c24.5,0,44.9-10.1,58.6-22.1l0,0v-57.6h-59v12.5h45.4v39l-0.5,0.4c-10.5,8.5-26.5,15.2-43.9,15.2l0,0c-18.4,0-33.6-6.8-44.1-18.1
	l0,0c-10.5-11.3-16.3-27.2-16.3-45.3l0,0v-0.4c0-16.9,6-32.5,16.3-43.9l0,0c10.3-11.4,24.8-18.6,41.7-18.6l0,0
	c20.8,0,33.9,6.8,45.3,16.5l0,0l9.2-10.8c-14.5-11.9-29.4-18.6-53.8-18.7l0,0c-44,0-73.5,35.6-73.5,75.9l0,0V197.4L2240.6,197.4z
	 M2429.1,209.1c0.1,41.6,24.4,63.4,60.7,63.5l0,0c36.7-0.1,60.8-21.8,60.9-64.8l0,0v-84.2h-14.2v85.5c0,16.5-4.4,29.2-12.5,37.8l0,0
	c-8.1,8.5-19.8,12.8-33.8,12.8l0,0c-14.5,0-26.4-4.6-34.5-13.5l0,0c-8.1-8.9-12.5-21.8-12.5-38.1l0,0v-84.4h-14.2V209.1
	L2429.1,209.1z M2691.3,230.8l17.5,39.5h15.2l-66.8-147.7h-14.1l-66.8,147.7h14.4l17.7-39.5H2691.3L2691.3,230.8z M2613.8,218.3
	l36.1-80.7l35.9,80.7H2613.8L2613.8,218.3z M2754.3,197.4c0.1,42,28.4,75.4,74.6,75.4l0,0c24.5,0,44.9-10.1,58.6-22.1l0,0v-57.6h-59
	v12.5h45.4v39l-0.5,0.4c-10.5,8.5-26.5,15.2-43.9,15.2l0,0c-18.4,0-33.6-6.8-44.1-18.1l0,0c-10.5-11.3-16.3-27.2-16.3-45.3l0,0v-0.4
	c0-16.9,6-32.5,16.3-43.9l0,0c10.3-11.4,24.8-18.6,41.7-18.6l0,0c20.8,0,33.9,6.8,45.3,16.5l0,0l9.2-10.8
	c-14.5-11.9-29.4-18.6-53.8-18.7l0,0c-44,0-73.5,35.6-73.5,75.9l0,0V197.4L2754.3,197.4z M2946.8,270.3h106.3v-12.7h-92.1v-54.9
	h81.4V190h-81.4v-53.6h91v-12.7h-105.2L2946.8,270.3L2946.8,270.3z M476.9,234.6l15.1,36h24.9L452.4,123h-22.6l-64.5,147.7h24
	l15.3-36H476.9L476.9,234.6z M413.2,214l27.5-64.2l27.8,64.2H413.2L413.2,214z M796.9,270.7H906v-20.9h-85.5v-42.7h74.8v-20.9h-74.8
	v-41.4h84.4V124h-108V270.7L796.9,270.7z M1039.8,214.7l1.8-0.5c20.5-5.9,34.6-20,34.7-43.9v-0.4c0-12.7-4.4-23.4-12-31.3
	c-9.3-9.1-23.6-14.6-42.1-14.6h-65.2v146.6h23.6v-52h33.7h1.1l36.7,52h27.7L1039.8,214.7z M980.5,198v-52.7h39.5
	c9.9,0,17.9,2.2,23.5,6.6c5.6,4.4,8.7,11.1,8.7,19.4v0.4c0,7.9-3.2,14.6-8.8,19.1c-5.6,4.6-13.6,7.1-23.2,7.1H980.5z M1118.9,270.7
	h23.6V124h-23.6V270.7L1118.9,270.7z M1184.9,197.7c0,42.2,31.8,75.4,74.6,75.4l0,0c27.1,0,43.5-9.6,58.7-25.1l0,0l-15.1-15.3
	c-12.5,11.5-24.5,18.9-42.8,18.9l0,0c-14.7,0-27.3-6.1-36.3-16l0,0c-9-9.9-14.2-23.4-14.2-38.4l0,0v-0.4c0-14.9,5.3-28.4,14.2-38.1
	l0,0c9-9.8,21.6-15.8,36.3-15.8l0,0c17,0,29.9,7.3,41.7,18l0,0l15.2-17.5c-13.9-13-30-22-56.6-22l0,0c-44.5,0-75.6,34.1-75.7,75.9
	l0,0V197.7L1184.9,197.7z M1446.9,234.6l15.1,36h24.9L1422.3,123h-22.6l-64.5,147.7h24l15.3-36H1446.9L1446.9,234.6z M1383.1,214
	l27.5-64.2l27.8,64.2H1383.1L1383.1,214z M1628.1,270.7h20V124h-23.2v105.7L1543.1,124h-22.4v146.6h23.2V162L1628.1,270.7
	L1628.1,270.7z M766.1,270.6h-25.5l-45.6-116.9l-45.9,116.9h-3.9l-45.6-116.9l-45.9,116.9h-26.2l61-147.7h21.3l37.1,92.6l37.1-92.6
	l21.3,0L766.1,270.6z M3289.9,233.8l15.1,36h24.9l-64.5-147.7h-22.6l-64.5,147.7h24l15.3-36H3289.9L3289.9,233.8z M3226.1,213.2
	l27.5-64.2l27.8,64.2H3226.1L3226.1,213.2z M3610.4,233.8l15.1,36h24.9l-64.5-147.7h-22.6l-64.5,147.7h24l15.3-36H3610.4
	L3610.4,233.8z M3546.6,213.2l27.5-64.2l27.8,64.2H3546.6L3546.6,213.2z M3737.1,123.2h-54.3l0,146.6h54.3c46.3-0.1,78-32,78-73.3
	v-0.4C3815.1,154.8,3783.4,123.3,3737.1,123.2z M3790.2,196.9c0,14.9-5.2,27.8-14.5,37c-9.3,9.2-22.6,14.6-38.5,14.6c0,0,0,0,0,0
	h-30.7v-104h30.7c16,0,29.3,5.5,38.6,14.8c9.3,9.3,14.5,22.3,14.5,37.2V196.9z M4293.2,211.9v57.9h23.9v-58.6l58.1-88.1h-26.9
	l-42.9,67.2l-42.5-67.2H4235L4293.2,211.9L4293.2,211.9z M3859.2,269.8h109.1V249h-85.5v-42.6h74.8v-20.9h-74.8v-41.4h84.4v-20.9
	h-108L3859.2,269.8L3859.2,269.8z M4116.2,269.8h3.9l6.9-17.6l38.9-99.3l45.6,116.9h25.5l-61-147.7h-21.3l-37.1,92.6l-37.1-92.6
	h-21.3l-61,147.7h26.2l45.9-116.9L4116.2,269.8L4116.2,269.8z M3348.5,196.9c0,42.2,31.8,75.4,74.6,75.4l0,0
	c27.1,0,43.5-9.6,58.7-25.1l0,0l-15.1-15.3c-12.5,11.5-24.5,18.9-42.8,18.9l0,0c-14.6,0-27.3-6.1-36.3-16l0,0
	c-9-9.9-14.2-23.4-14.2-38.4l0,0v-0.4c0-14.9,5.3-28.4,14.2-38.1l0,0c9-9.8,21.6-15.8,36.3-15.8l0,0c17,0,29.9,7.3,41.7,18l0,0
	l15.2-17.5c-13.9-13-30-22-56.6-22l0,0c-44.5,0-75.6,34.1-75.7,75.9l0,0V196.9L3348.5,196.9z"/>
</svg>
