<svg xmlns="http://www.w3.org/2000/svg" viewBox="0 0 225.74 69.84"><defs><style>.cls-1{fill:#fff;}</style></defs><title>ATG</title><g id="Layer_2" data-name="Layer 2"><g id="Layer_1-2" data-name="Layer 1"><path class="cls-1" d="M188.06,30.89a1.61,1.61,0,0,1-1.89-1.34c-2.75-8.25-5.57-16.48-8.37-24.71A6.5,6.5,0,0,0,175,1c-.28-.17-.65-.31-.48-.74s.48-.23.74-.23c2.84,0,5.69-.14,8.51.05a6.56,6.56,0,0,1,5.56,3.76c3.44,6.39,32.53,58.15,35.78,64,1,1.76.83,2-1.23,2-4.72,0-9.45.29-14-1.3-7.56-2.61-12.84-7.53-15.51-15.11-1.57-4.44-3-8.93-4.59-13.36a1.37,1.37,0,0,1,.59-1.92c2.37-1.65,4.67-3.39,7-5.07.53-.38,1-.75.83-1.47s-.89-.72-1.49-.72C195.24,30.85,189.44,30.79,188.06,30.89Z"/><path class="cls-1" d="M155.94,32.82h11.74c2.74,0,2.69,0,3.5-2.6C172.3,26.6,173.51,23,175,19.35c.93,2.83,2,5.64,2.79,8.5,1.41,4.95,1.36,5,6.42,5a85.76,85.76,0,0,1,9.55.36c-2.92,2.11-5.83,4.25-8.76,6.34-2.62,1.87-2.7,1.87-1.82,4.85,1,3.43,2.16,6.82,3.25,10.26a1.29,1.29,0,0,1-1.42-.26c-2.94-2.24-6-4.34-8.95-6.55a1.77,1.77,0,0,0-2.49,0c-3.06,2.25-6.2,4.4-9.29,6.6-.34.24-.63.53-1,.22s0-.59.13-.87c1.21-3.61,2.44-7.22,3.63-10.83a1.76,1.76,0,0,0-.74-2.29c-3.07-2.14-6.07-4.4-9.09-6.6A3.17,3.17,0,0,1,155.94,32.82Z"/><path class="cls-1" d="M8.14.7h3L19.3,19.35H15.87L14,14.88H5.24L3.33,19.35H0ZM12.8,12,9.6,4.59,6.43,12Z"/><path class="cls-1" d="M22.48.84H26l5.63,8.75L37.21.84h3.46V19.35H37.42V6.07L31.58,14.8h-.11L25.68,6.12V19.35h-3.2Z"/><path class="cls-1" d="M45.44.84H59.16v2.9H48.69V8.56H58v2.91H48.69v5h10.6v2.91H45.44Z"/><path class="cls-1" d="M63.16.84h8.25a7.42,7.42,0,0,1,5.34,1.85,5.58,5.58,0,0,1,1.54,4v.05a5.56,5.56,0,0,1-4.42,5.61l5,7H75l-4.55-6.46H66.41v6.46H63.16Zm8,9.17C73.5,10,75,8.8,75,6.92v0c0-2-1.43-3.07-3.83-3.07H66.41V10Z"/><path class="cls-1" d="M82.47.84h3.25V19.35H82.47Z"/><path class="cls-1" d="M89.85,10.14v-.05A9.36,9.36,0,0,1,99.39.52a9.67,9.67,0,0,1,7.25,2.88l-2.09,2.41a7.34,7.34,0,0,0-5.18-2.3A6.21,6.21,0,0,0,93.26,10v.05c0,3.62,2.56,6.59,6.11,6.59a7.26,7.26,0,0,0,5.31-2.41l2.09,2.11a9.56,9.56,0,0,1-7.51,3.28A9.3,9.3,0,0,1,89.85,10.14Z"/><path class="cls-1" d="M116.74.7h3l8.14,18.65h-3.44l-1.87-4.47h-8.76l-1.9,4.47H108.6ZM121.4,12l-3.2-7.4L115,12Z"/><path class="cls-1" d="M131.08.84h3L144,13.63V.84h3.2V19.35h-2.72L134.28,6.18V19.35h-3.2Z"/><path class="cls-1" d="M13.49,27.82H7.27V25.89H21.82v1.93H15.6V44.4H13.49Z"/><path class="cls-1" d="M25.73,25.89H39.11V27.8H27.82v6.32h10.1V36H27.82V42.5H39.25v1.9H25.73Z"/><path class="cls-1" d="M50.3,25.76h2L60.7,44.4H58.45l-2.17-4.89H46.21L44,44.4H41.87Zm5.16,11.87-4.2-9.44L47,37.63Z"/><path class="cls-1" d="M62.44,35.2v-.05a9.33,9.33,0,0,1,9.37-9.57A9.64,9.64,0,0,1,79,28.51L77.6,30a8.05,8.05,0,0,0-5.82-2.53,7.26,7.26,0,0,0-7.17,7.58v.06c0,4.28,3.1,7.64,7.17,7.64a8.06,8.06,0,0,0,6-2.67l1.37,1.35a9.66,9.66,0,0,1-7.4,3.25A9.23,9.23,0,0,1,62.44,35.2Z"/><path class="cls-1" d="M82.78,25.89h2.09v8.23H95.56V25.89h2.09V44.4H95.56V36.07H84.87V44.4H82.78Z"/><path class="cls-1" d="M103.07,25.89h2.09V44.4h-2.09Z"/><path class="cls-1" d="M110.58,25.89h2L124.2,40.73V25.89h2V44.4h-1.67L112.62,29.22V44.4h-2Z"/><path class="cls-1" d="M130.65,35.2v-.05a9.29,9.29,0,0,1,9.29-9.57,9.74,9.74,0,0,1,6.9,2.45l-1.35,1.59a7.9,7.9,0,0,0-5.63-2.11c-4.1,0-7,3.46-7,7.58v.06c0,4.41,2.83,7.69,7.33,7.69A8.73,8.73,0,0,0,145.49,41v-4.6h-5.63V34.51h7.64v7.38a11.24,11.24,0,0,1-7.43,2.83C134.25,44.72,130.65,40.49,130.65,35.2Z"/><path class="cls-1" d="M51.13,60.26V60.2a9.42,9.42,0,0,1,9.54-9.57,10,10,0,0,1,7.12,2.51L65.72,55.6a7.28,7.28,0,0,0-5.18-2,6.26,6.26,0,0,0-6,6.53v.05c0,3.81,2.51,6.61,6.29,6.61a7.53,7.53,0,0,0,4.47-1.4V62H60.57V59.12h7.88v7.77a11.84,11.84,0,0,1-7.73,2.89A9.18,9.18,0,0,1,51.13,60.26Z"/><path class="cls-1" d="M72.68,51h8.25a7.46,7.46,0,0,1,5.34,1.85,5.58,5.58,0,0,1,1.54,4v.06a5.55,5.55,0,0,1-4.42,5.6l5,7H84.55L80,63H75.93v6.45H72.68Zm8,9.17c2.33,0,3.81-1.21,3.81-3.09V57c0-2-1.43-3.07-3.83-3.07H75.93v6.21Z"/><path class="cls-1" d="M91,60.26V60.2a9.68,9.68,0,0,1,19.36-.05v.05A9.68,9.68,0,0,1,91,60.26Zm16,0V60.2a6.34,6.34,0,0,0-6.3-6.58,6.25,6.25,0,0,0-6.24,6.53v.05a6.35,6.35,0,0,0,6.3,6.59A6.26,6.26,0,0,0,106.93,60.26Z"/><path class="cls-1" d="M114,61.61V51h3.26V61.47c0,3.44,1.77,5.29,4.68,5.29s4.65-1.74,4.65-5.15V51h3.25v10.5c0,5.52-3.12,8.3-8,8.3S114,67,114,61.61Z"/><path class="cls-1" d="M134.31,51h7.29c4.31,0,7,2.46,7,6.19v0c0,4.15-3.33,6.32-7.41,6.32h-3.67v5.95h-3.25Zm7,9.62c2.46,0,4-1.37,4-3.3v-.05c0-2.17-1.56-3.31-4-3.31h-3.78v6.66Z"/></g></g></svg>