<svg xmlns="http://www.w3.org/2000/svg" xmlns:xlink="http://www.w3.org/1999/xlink" viewBox="0 0 120.36 67.3"><defs><style>.cls-1,.cls-2{fill:#fff;}.cls-2{stroke:#fff;}.cls-2,.cls-5,.cls-6{stroke-miterlimit:10;}.cls-3{font-size:23.04px;fill:#0d436e;}.cls-3,.cls-4{font-family:RemachineScriptPersonalUse, Remachine Script Personal Use;}.cls-4{font-size:17.07px;fill:#ef4438;}.cls-5,.cls-6{fill:none;stroke-linecap:round;}.cls-5{stroke:url(#New_Gradient_Swatch_1);}.cls-6{stroke:url(#New_Gradient_Swatch_1-2);}</style><linearGradient id="New_Gradient_Swatch_1" x1="36.24" y1="16.86" x2="88.13" y2="16.86" gradientTransform="matrix(1, 0, 0, 1, 1.52, 2.57)" gradientUnits="userSpaceOnUse"><stop offset="0" stop-color="#dda6cb"/><stop offset="1" stop-color="#4dc6df"/></linearGradient><linearGradient id="New_Gradient_Swatch_1-2" x1="32.86" y1="47.51" x2="86.88" y2="47.51" xlink:href="#New_Gradient_Swatch_1"/></defs><title>Your best learning experience</title><g id="Layer_2" data-name="Layer 2"><g id="Layer_1-2" data-name="Layer 1"><path class="cls-1" d="M34.93,40.4l-22.48,4A10.61,10.61,0,0,1,0,33.91H0A10.62,10.62,0,0,1,8.77,23.46l22.48-4A10.61,10.61,0,0,1,43.7,30h0A10.62,10.62,0,0,1,34.93,40.4Z"/><path class="cls-1" d="M111.6,43.83l-22.48,4A10.6,10.6,0,0,1,76.67,37.35h0A10.6,10.6,0,0,1,85.43,26.9l22.48-4a10.61,10.61,0,0,1,12.45,10.45h0A10.6,10.6,0,0,1,111.6,43.83Z"/><circle class="cls-2" cx="62" cy="33.65" r="33.15"/><text class="cls-3" transform="matrix(1, -0.18, 0, 1, 10.29, 40.62)">Your best</text><text class="cls-4" transform="matrix(1, -0.18, 0, 1, 42.65, 47.96)">learning experience</text><path class="cls-5" d="M38.34,19.79A27.38,27.38,0,0,1,89.28,31.93"/><path class="cls-6" d="M88.07,41.89a27.39,27.39,0,0,1-53-3.17"/></g></g></svg>