<?xml version="1.0" encoding="utf-8"?>
<!-- Generator: Adobe Illustrator 23.0.1, SVG Export Plug-In . SVG Version: 6.00 Build 0)  -->
<svg version="1.1" id="nav-shape" xmlns="http://www.w3.org/2000/svg" xmlns:xlink="http://www.w3.org/1999/xlink" x="0px" y="0px"
	 viewBox="0 0 1038 209" style="enable-background:new 0 0 1038 209;" xml:space="preserve">
<style type="text/css">
	.st0{clip-path:url(#SVGID_5_);}
	.st1{clip-path:url(#SVGID_6_);}
	.st2{fill:none;}
	.st3{opacity:0.2;fill:url(#SVGID_7_);enable-background:new    ;}
</style>
<g>
	<g>
		<defs>
			<path id="SVGID_1_" d="M1038,56.2L191.6,205.9c-23.3,4.1-47,4.1-70.2,0.1L0,184.8V0h1038V56.2z"/>
		</defs>
		<clipPath id="SVGID_2_">
			<use xlink:href="#SVGID_1_"  style="overflow:visible;"/>
		</clipPath>
	</g>
	<g>
		<defs>
			<path id="SVGID_3_" d="M1038,56.2L191.6,205.9c-23.3,4.1-47,4.1-70.2,0.1L0,184.8V0h1038V56.2z"/>
		</defs>
		<defs>
			<path id="SVGID_4_" d="M1038,56.2L191.6,205.9c-23.3,4.1-47,4.1-70.2,0.1L0,184.8V0h1038V56.2z"/>
		</defs>
		<clipPath id="SVGID_5_">
			<use xlink:href="#SVGID_3_"  style="overflow:visible;"/>
		</clipPath>
		<clipPath id="SVGID_6_" class="st0">
			<use xlink:href="#SVGID_4_"  style="overflow:visible;"/>
		</clipPath>
		<g class="st1">
			
				<image style="overflow:visible;enable-background:new    ;" width="5760" height="3840" xlink:href="nav-background.jpg"  transform="matrix(0.1818 0 0 0.1818 0 -124.88)">
			</image>
		</g>
	</g>
</g>
<g>
	<path class="st2" d="M1038,56.2L191.6,205.9c-23.3,4.1-47,4.1-70.2,0.1L0,184.8V0h1038V56.2z"/>
	
		<linearGradient id="SVGID_7_" gradientUnits="userSpaceOnUse" x1="-423.1427" y1="1225.5552" x2="916.5768" y2="-112.8397" gradientTransform="matrix(1 0 0 1 0 -632)">
		<stop  offset="0" style="stop-color:#673AB7"/>
		<stop  offset="1" style="stop-color:#9C27B0"/>
	</linearGradient>
	<path class="st3" d="M1358.1,0L191.6,205.9c-23.3,4.1-47,4.1-70.2,0.1L-1016.1,0H1358.1z"/>
</g>
</svg>
